<svg width="97" height="97" viewBox="0 0 97 97" fill="none" xmlns="http://www.w3.org/2000/svg">
<path d="M27.5694 43.4464C33.3294 54.7664 42.6094 64.0064 53.9294 69.8064L62.7294 61.0064C63.8094 59.9264 65.4094 59.5664 66.8094 60.0464C71.2894 61.5264 76.1294 62.3264 81.0894 62.3264C83.2894 62.3264 85.0894 64.1264 85.0894 66.3264V80.2864C85.0894 82.4864 83.2894 84.2864 81.0894 84.2864C43.5294 84.2864 13.0894 53.8464 13.0894 16.2864C13.0894 14.0864 14.8894 12.2864 17.0894 12.2864H31.0894C33.2894 12.2864 35.0894 14.0864 35.0894 16.2864C35.0894 21.2864 35.8894 26.0864 37.3694 30.5664C37.8094 31.9664 37.4894 33.5264 36.3694 34.6464L27.5694 43.4464Z" fill="#4E4B66"/>
</svg>
