<svg width="16" height="18" viewBox="0 0 16 18" fill="none" xmlns="http://www.w3.org/2000/svg">
<mask id="mask0_100_459" style="mask-type:luminance" maskUnits="userSpaceOnUse" x="0" y="1" width="16" height="16">
<path d="M16 1H0V17H16V1Z" fill="white"/>
</mask>
<g mask="url(#mask0_100_459)">
<path d="M10.8505 10.4129L8.61962 8.73978V5.33159C8.61962 4.98891 8.34262 4.71191 7.99994 4.71191C7.65725 4.71191 7.38025 4.98891 7.38025 5.33159V9.04966C7.38025 9.24484 7.47197 9.42891 7.62812 9.54541L10.1068 11.4045C10.2184 11.4881 10.3485 11.5284 10.478 11.5284C10.667 11.5284 10.8529 11.4435 10.9744 11.2799C11.1802 11.0066 11.1244 10.6181 10.8505 10.4129Z" fill="white"/>
<path d="M8 1C3.58853 1 0 4.58853 0 9C0 13.4115 3.58853 17 8 17C12.4115 17 16 13.4115 16 9C16 4.58853 12.4115 1 8 1ZM8 15.7607C4.27266 15.7607 1.23934 12.7273 1.23934 9C1.23934 5.27266 4.27266 2.23934 8 2.23934C11.728 2.23934 14.7607 5.27266 14.7607 9C14.7607 12.7273 11.7273 15.7607 8 15.7607Z" fill="white"/>
</g>
</svg>
