<svg width="98" height="99" viewBox="0 0 98 99" fill="none" xmlns="http://www.w3.org/2000/svg">
<rect y="0.75" width="97.3228" height="97.3228" rx="48.6614" fill="#1A1A1A"/>
<circle cx="48.6614" cy="49.4114" r="47.1614" stroke="#A1987B" stroke-width="3"/>
<path d="M40.5094 32.6919C39.3151 34.9247 37.7055 37.3132 36.9785 37.9882L35.5766 39.2863L37.342 39.5459L39.0555 39.8055L39.3151 52.5268C39.6267 66.754 39.7824 67.4809 43.2094 68.9348C45.1825 69.7656 53.3346 69.9733 53.3346 69.1944C53.3346 68.9348 52.0884 68.3636 50.5826 67.8963C47.571 67.0136 45.7017 65.5597 45.2864 63.7943C45.1306 63.1712 45.0787 57.5115 45.1306 51.2287L45.2864 39.8055L48.5056 39.6497C51.3095 39.494 51.8807 39.2863 52.8672 38.092L53.9576 36.6901L49.4922 36.5343L45.0267 36.3785V32.5362C45.0267 28.8496 44.9748 28.6419 43.8844 28.6419C42.9498 28.6419 42.2229 29.4727 40.5094 32.6919Z" fill="white"/>
<path d="M61.3828 65.2482C59.825 66.754 59.7731 67.5848 61.1751 69.3502C62.6289 71.2195 65.329 71.2195 66.7828 69.2983C69.5867 65.8194 64.5501 62.0289 61.3828 65.2482Z" fill="white"/>
</svg>
