<svg width="98" height="98" viewBox="0 0 98 98" fill="none" xmlns="http://www.w3.org/2000/svg">
<circle cx="48.6614" cy="48.7918" r="47.1614" stroke="#A1987B" stroke-width="3"/>
<path d="M40.5093 32.0724C39.3151 34.3052 37.7054 36.6936 36.9785 37.3687L35.5765 38.6668L37.3419 38.9264L39.0554 39.186L39.3151 51.9073C39.6266 66.1345 39.7824 66.8614 43.2093 68.3153C45.1825 69.1461 53.3345 69.3537 53.3345 68.5749C53.3345 68.3153 52.0883 67.7441 50.5825 67.2768C47.5709 66.3941 45.7017 64.9402 45.2863 63.1748C45.1305 62.5517 45.0786 56.892 45.1305 50.6092L45.2863 39.186L48.5056 39.0302C51.3095 38.8745 51.8806 38.6668 52.8672 37.4725L53.9576 36.0706L49.4921 35.9148L45.0267 35.759V31.9167C45.0267 28.2301 44.9748 28.0224 43.8844 28.0224C42.9497 28.0224 42.2228 28.8531 40.5093 32.0724Z" fill="white"/>
<path d="M61.3827 64.6285C59.825 66.1343 59.7731 66.965 61.175 68.7305C62.6289 70.5997 65.3289 70.5997 66.7828 68.6785C69.5867 65.1996 64.5501 61.4092 61.3827 64.6285Z" fill="white"/>
</svg>
