<svg width="20" height="21" viewBox="0 0 20 21" fill="none" xmlns="http://www.w3.org/2000/svg">
<g clip-path="url(#clip0_100_470)">
<mask id="mask0_100_470" style="mask-type:luminance" maskUnits="userSpaceOnUse" x="0" y="0" width="20" height="21">
<path d="M20 0.5H0V20.5H20V0.5Z" fill="white"/>
</mask>
<g mask="url(#mask0_100_470)">
<path d="M10 2.3023C12.6717 2.3023 12.9853 2.31421 14.0413 2.36185C15.0179 2.40552 15.5459 2.56828 15.8992 2.70722C16.3676 2.88984 16.7011 3.10421 17.0504 3.45355C17.3998 3.8029 17.6181 4.13636 17.7968 4.6048C17.9317 4.95812 18.0985 5.48611 18.1421 6.46268C18.1898 7.51866 18.2017 7.83227 18.2017 10.504C18.2017 13.1757 18.1898 13.4893 18.1421 14.5453C18.0985 15.5218 17.9357 16.0498 17.7968 16.4031C17.6141 16.8716 17.3998 17.205 17.0504 17.5544C16.7011 17.9037 16.3676 18.1221 15.8992 18.3007C15.5459 18.4357 15.0179 18.6024 14.0413 18.6461C12.9853 18.6937 12.6717 18.7056 10 18.7056C7.32831 18.7056 7.01469 18.6937 5.95872 18.6461C4.98214 18.6024 4.45415 18.4397 4.10084 18.3007C3.6324 18.1181 3.29893 17.9037 2.94959 17.5544C2.60024 17.205 2.3819 16.8716 2.20326 16.4031C2.06828 16.0498 1.90155 15.5218 1.85788 14.5453C1.81024 13.4893 1.79833 13.1757 1.79833 10.504C1.79833 7.83227 1.81024 7.51866 1.85788 6.46268C1.90155 5.48611 2.06431 4.95812 2.20326 4.6048C2.38587 4.13636 2.60024 3.8029 2.94959 3.45355C3.29893 3.10421 3.6324 2.88587 4.10084 2.70722C4.45415 2.57225 4.98214 2.40552 5.95872 2.36185C7.01469 2.31024 7.33228 2.3023 10 2.3023ZM10 0.5C7.28464 0.5 6.94324 0.511909 5.87535 0.559547C4.81144 0.607185 4.08496 0.777888 3.44978 1.02402C2.79079 1.27809 2.23502 1.62346 1.67924 2.17924C1.12346 2.73501 0.782057 3.29476 0.524018 3.94978C0.277888 4.58495 0.107185 5.31143 0.0595475 6.37932C0.0119095 7.44323 0 7.78464 0 10.5C0 13.2154 0.0119095 13.5568 0.0595475 14.6247C0.107185 15.6886 0.277888 16.415 0.524018 17.0542C0.778087 17.7132 1.12346 18.269 1.67924 18.8247C2.23502 19.3805 2.79476 19.7219 3.44978 19.98C4.08496 20.2261 4.81144 20.3968 5.87932 20.4444C6.94721 20.4921 7.28464 20.504 10.004 20.504C12.7233 20.504 13.0607 20.4921 14.1286 20.4444C15.1925 20.3968 15.919 20.2261 16.5582 19.98C17.2172 19.7259 17.7729 19.3805 18.3287 18.8247C18.8845 18.269 19.2259 17.7092 19.4839 17.0542C19.7301 16.419 19.9008 15.6925 19.9484 14.6247C19.996 13.5568 20.008 13.2193 20.008 10.5C20.008 7.78067 19.996 7.44323 19.9484 6.37535C19.9008 5.31143 19.7301 4.58495 19.4839 3.94581C19.2299 3.28682 18.8845 2.73104 18.3287 2.17527C17.7729 1.61949 17.2132 1.27809 16.5582 1.02005C15.923 0.773918 15.1965 0.603216 14.1286 0.555578C13.0568 0.511909 12.7154 0.5 10 0.5Z" fill="white"/>
<path d="M10 2.30225C12.6717 2.30225 12.9853 2.31416 14.0413 2.3618C15.0179 2.40547 15.5459 2.56823 15.8992 2.70717C16.3676 2.88979 16.7011 3.10416 17.0504 3.4535C17.3998 3.80285 17.6181 4.13631 17.7968 4.60475C17.9317 4.95807 18.0985 5.48606 18.1421 6.46263C18.1898 7.51861 18.2017 7.83222 18.2017 10.5039C18.2017 13.1756 18.1898 13.4892 18.1421 14.5452C18.0985 15.5217 17.9357 16.0497 17.7968 16.403C17.6141 16.8715 17.3998 17.2049 17.0504 17.5543C16.7011 17.9036 16.3676 18.122 15.8992 18.3006C15.5459 18.4356 15.0179 18.6023 14.0413 18.646C12.9853 18.6936 12.6717 18.7055 10 18.7055C7.32832 18.7055 7.0147 18.6936 5.95873 18.646C4.98215 18.6023 4.45416 18.4396 4.10085 18.3006C3.63241 18.118 3.29894 17.9036 2.9496 17.5543C2.60025 17.2049 2.38191 16.8715 2.20327 16.403C2.06829 16.0497 1.90156 15.5217 1.85789 14.5452C1.81025 13.4892 1.79834 13.1756 1.79834 10.5039C1.79834 7.83222 1.81025 7.51861 1.85789 6.46263C1.90156 5.48606 2.06432 4.95807 2.20327 4.60475C2.38588 4.13631 2.60025 3.80285 2.9496 3.4535C3.29894 3.10416 3.63241 2.88582 4.10085 2.70717C4.45416 2.5722 4.98215 2.40547 5.95873 2.3618C7.0147 2.31019 7.33229 2.30225 10 2.30225Z" fill="white"/>
<path d="M10 5.36694C7.16554 5.36694 4.86304 7.66547 4.86304 10.5039C4.86304 13.3423 7.16157 15.6408 10 15.6408C12.8384 15.6408 15.137 13.3423 15.137 10.5039C15.137 7.66547 12.8384 5.36694 10 5.36694ZM10 13.8346C8.158 13.8346 6.66534 12.3419 6.66534 10.4999C6.66534 8.65793 8.158 7.16527 10 7.16527C11.842 7.16527 13.3347 8.65793 13.3347 10.4999C13.3347 12.3419 11.842 13.8346 10 13.8346Z" fill="#1A1A1A"/>
<path d="M15.3394 6.35945C16.0015 6.35945 16.5383 5.82269 16.5383 5.16056C16.5383 4.49843 16.0015 3.96167 15.3394 3.96167C14.6773 3.96167 14.1405 4.49843 14.1405 5.16056C14.1405 5.82269 14.6773 6.35945 15.3394 6.35945Z" fill="#1A1A1A"/>
</g>
</g>
<defs>
<clipPath id="clip0_100_470">
<rect width="20" height="21" fill="white"/>
</clipPath>
</defs>
</svg>
