<svg width="101" height="101" viewBox="0 0 101 101" fill="none" xmlns="http://www.w3.org/2000/svg">
<path d="M49.0868 16.3424C49.0265 16.3876 48.9812 18.2582 48.9812 20.4607C48.9812 23.7342 49.0265 24.5338 49.1924 24.6695C49.3583 24.8053 49.4639 24.7902 49.645 24.6092C49.8562 24.398 49.8863 23.8549 49.8863 20.5361C49.8863 18.4393 49.8411 16.6139 49.7958 16.4781C49.7053 16.2368 49.2678 16.1463 49.0868 16.3424Z" fill="#A1987B"/>
<path d="M54.7288 21.7279C54.3366 22.1955 54.94 22.799 55.4077 22.4067C55.7245 22.1503 55.6189 21.6072 55.2267 21.5469C55.0607 21.5167 54.8344 21.6072 54.7288 21.7279Z" fill="#A1987B"/>
<path d="M58.485 21.8788C58.1984 22.2258 58.3644 22.799 58.7566 22.8443C59.4505 22.9499 59.8427 22.1352 59.2544 21.8185C58.8622 21.6073 58.7113 21.6223 58.485 21.8788Z" fill="#A1987B"/>
<path d="M43.3091 22.0296C43.1583 22.4218 43.3695 22.7537 43.7315 22.6934C43.988 22.6632 44.0785 22.5425 44.0785 22.271C44.0785 21.9994 43.988 21.8788 43.7315 21.8486C43.5354 21.8184 43.3544 21.8939 43.3091 22.0296Z" fill="#A1987B"/>
<path d="M61.3815 22.4068C61.0647 22.6029 61.2307 23.1007 61.6229 23.146C62.0302 23.2063 62.2263 22.8141 61.9548 22.4973C61.7436 22.2408 61.6531 22.2257 61.3815 22.4068Z" fill="#A1987B"/>
<path d="M38.4667 23.0855C38.0142 23.4778 38.0896 24.0058 38.6477 24.2622C39.3115 24.5639 39.9903 23.8398 39.6434 23.2062C39.402 22.7537 38.9193 22.7084 38.4667 23.0855Z" fill="#A1987B"/>
<path d="M63.4784 23.4326C63.1013 23.689 63.0711 24.2623 63.403 24.5941C63.6896 24.8808 63.931 24.8958 64.2478 24.6394C65.0322 24.0209 64.293 22.8593 63.4784 23.4326Z" fill="#A1987B"/>
<path d="M35.7362 24.4131C35.4496 24.6997 35.525 25.2579 35.872 25.4389C36.1133 25.5747 36.2642 25.5596 36.5508 25.3635C36.9581 25.107 36.9883 24.9562 36.762 24.5187C36.581 24.2019 36.0077 24.1416 35.7362 24.4131Z" fill="#A1987B"/>
<path d="M44.8328 25.4238C44.7423 25.5144 44.3802 25.5898 44.0031 25.62L43.3242 25.6652L43.279 26.7363C43.2187 28.4108 42.8113 28.3052 48.9813 28.3052C51.8777 28.3052 54.3366 28.2599 54.4724 28.2147C54.6685 28.1392 54.7138 27.8677 54.7138 26.857V25.5898H54.2009C53.9142 25.5898 53.6276 25.5144 53.5824 25.4389C53.4617 25.2428 45.0289 25.2277 44.8328 25.4238ZM48.8304 26.6458C48.8304 26.7363 48.9511 26.7212 49.1321 26.6156C49.3584 26.4798 49.464 26.4647 49.5998 26.6005C50.0071 27.0078 49.5395 27.0983 46.8542 27.0983C44.2595 27.0983 44.1539 27.0832 44.1539 26.7966C44.1539 26.51 44.2595 26.4949 46.4922 26.4949C47.9706 26.4949 48.8304 26.5553 48.8304 26.6458Z" fill="#A1987B"/>
<path d="M33.5638 26.0574C33.0057 26.3742 33.4281 27.219 34.0466 27.0229C34.3785 26.9173 34.4539 26.3591 34.1673 26.0725C33.9561 25.8613 33.8957 25.8613 33.5638 26.0574Z" fill="#A1987B"/>
<path d="M30.9542 27.1888C30.6223 27.5358 30.7279 28.0336 31.2106 28.2901C31.5727 28.5013 31.633 28.5013 31.9196 28.2448C32.2968 27.8979 32.3269 27.5056 31.9951 27.1888C31.6933 26.8721 31.271 26.8871 30.9542 27.1888Z" fill="#A1987B"/>
<path d="M60.4764 27.7772C59.6014 28.0487 58.8472 28.6522 58.4399 29.4064C58.108 30.04 58.108 30.0551 58.108 37.5827C58.108 46.0004 58.0627 45.5629 59.179 46.5586C60.0087 47.2827 60.582 47.4637 62.0453 47.4637C63.6292 47.4637 64.1874 47.69 64.6701 48.5499C65.002 49.1533 65.0171 49.1835 64.9115 52.9548C64.8512 55.0366 64.6701 57.9632 64.5042 59.4416C64.3534 60.935 64.2176 62.2324 64.2176 62.3531C64.2176 62.4586 64.112 62.5492 63.9913 62.5492C63.7952 62.5492 63.765 61.9608 63.765 58.1744C63.765 54.3879 63.7348 53.7996 63.5387 53.7996C63.3728 53.7996 63.3125 53.6337 63.3125 53.1962C63.3125 52.6531 63.2672 52.5928 62.9504 52.5928C62.694 52.5928 62.5582 52.4872 62.4978 52.2156C62.4224 51.9139 62.1358 51.7027 61.2759 51.2954C60.6574 51.0088 60.1143 50.7071 60.0691 50.6317C59.9786 50.4959 58.0024 51.4161 57.5498 51.8083C57.399 51.929 57.2783 52.1553 57.2783 52.3061C57.2783 52.4872 57.1425 52.5928 56.871 52.6229C56.5089 52.6682 56.4486 52.7436 56.4033 53.1962C56.3731 53.4828 56.2525 53.7845 56.1318 53.8449C55.9658 53.9354 55.9206 54.4634 55.9206 56.515C55.9206 58.9739 55.9055 59.0795 55.6189 59.0795C55.3172 59.0795 55.3172 58.9739 55.3172 44.6276V30.1607L54.9853 29.859C54.7741 29.6629 54.3215 29.4969 53.8539 29.4366C53.4164 29.3763 53.0543 29.2857 53.0543 29.2254C53.0543 29.1651 51.6363 29.15 49.9166 29.1801C47.88 29.2254 46.4922 29.1801 45.9642 29.0745C45.2703 28.9237 45.1345 28.9388 45.0289 29.1349C44.9535 29.2707 44.6819 29.3612 44.3802 29.3612C43.6712 29.3612 43.1432 29.5875 42.932 29.9948C42.7812 30.2663 42.751 32.1822 42.7812 38.3672C42.8113 43.451 42.7661 46.4077 42.6756 46.4077C42.6001 46.4077 42.4493 46.3021 42.3437 46.1664C41.9967 45.7591 41.6196 45.6233 41.2877 45.8043C41.0011 45.9552 40.986 45.8948 40.9558 43.285L40.9106 40.5998L40.5033 40.5546C40.0959 40.5093 40.0809 40.4791 40.0809 39.5288C40.0809 38.6689 40.0507 38.5633 39.7792 38.5633C39.5529 38.5633 39.4774 38.4577 39.4774 38.1862C39.4774 37.8844 39.402 37.809 39.1154 37.809C38.7684 37.809 38.7383 37.7487 38.693 37.0095C38.6477 36.2401 38.6327 36.2251 38.1348 36.1798C37.803 36.1496 37.5013 35.9837 37.2448 35.682C36.566 34.8674 35.9022 34.6411 34.1975 34.6411C32.4476 34.6411 31.8895 34.8221 31.271 35.5613C30.9994 35.8781 30.6525 36.1044 30.3658 36.1496C29.9284 36.2251 29.8982 36.2703 29.8228 36.9793C29.7473 37.7034 29.7322 37.7336 29.2646 37.7789C28.8573 37.8241 28.7668 37.8995 28.7668 38.1862C28.7668 38.3672 28.6612 38.5633 28.5405 38.6236C28.3746 38.684 28.3142 38.9404 28.3142 39.6042C28.3142 40.4188 28.284 40.5093 27.9823 40.5546C27.6505 40.5998 27.6354 40.6602 27.5901 42.5911L27.5449 44.5975H27.1074C26.6699 44.5975 26.6548 44.5824 26.6548 43.8583C26.6548 43.1644 26.1872 42.1687 25.6893 41.8519C25.5988 41.7916 24.5278 41.7312 23.3209 41.7312H21.1034L20.5754 42.3196C20.0776 42.8777 19.7155 43.7074 19.7155 44.3259C19.7155 44.522 19.5646 44.5975 19.0819 44.6276L18.4332 44.6729L18.388 45.6836C18.3427 46.5888 18.3126 46.7094 18.0561 46.7094C17.7695 46.7094 17.7544 46.8452 17.7544 50.4808V54.2522H16.7588C15.8084 54.2522 15.7782 54.2673 15.6273 54.7047C15.5217 54.9763 15.3558 55.1573 15.1899 55.1573C14.9183 55.1573 13.8322 55.8211 13.6512 56.1228C13.5908 56.2133 13.5305 59.0192 13.5305 62.3531V68.4325H12.4745C11.5995 68.4325 11.4034 68.4777 11.2677 68.7191C11.1771 68.9001 11.1168 70.2277 11.1168 71.9625V74.9192H9.60825C7.94885 74.9192 7.64714 75.0852 8.17513 75.6735C8.44667 75.9752 8.82381 75.9752 37.9991 75.9752C66.0278 75.9752 67.5364 75.9903 67.5364 76.2317C67.5364 76.5183 66.9631 78.6906 66.5709 79.9729C66.4351 80.3802 66.3295 80.7422 66.3295 80.7573C66.3295 80.7875 66.8123 80.8026 67.4006 80.8026C68.3359 80.8026 68.4566 80.8327 68.4113 81.059C68.3661 81.3004 68.1096 81.3305 66.1334 81.3758C64.9115 81.3909 63.9159 81.4512 63.9159 81.4965C63.9159 81.5417 64.1271 81.8887 64.3986 82.2508L64.8663 82.9145H69.588H74.3097L74.8528 82.1904L75.411 81.4814L74.4455 81.4361C73.1934 81.3909 72.8163 81.3004 72.8163 81.0288C72.8163 80.878 72.9671 80.8026 73.2689 80.8026C73.7968 80.8026 73.7818 80.8327 73.4951 80.1539C73.3745 79.8522 73.2689 79.5656 73.2689 79.5203C73.2689 79.475 75.2149 79.4449 77.6135 79.4449C81.3848 79.4449 82.0637 79.3996 82.833 79.1582C83.6175 78.9169 83.6778 78.8716 83.361 78.766C83.1649 78.6906 81.5357 78.6303 79.7556 78.6001C77.9755 78.585 75.6825 78.5699 74.6869 78.5548L72.8465 78.5397L72.5146 77.6346C72.3336 77.1368 72.1073 76.6842 72.0469 76.639C71.9715 76.5937 71.9112 77.3631 71.9112 78.3285C71.9112 79.3544 71.8508 80.0483 71.7754 79.9729C71.6698 79.8371 70.2518 76.2015 70.2518 76.0356C70.2518 76.0054 75.0942 75.9752 81.0077 75.9752C91.5222 75.9752 91.7787 75.9752 92.0502 75.6735C92.5481 75.1153 92.2614 74.9192 90.9188 74.9192H89.712V71.7362V68.5532L88.8823 67.0748C88.4146 66.2602 87.9017 65.4757 87.7509 65.34C87.4643 65.0835 87.4492 64.8572 87.4492 62.2173V59.3812H87.072C86.7251 59.3812 86.6949 59.3209 86.6949 58.7024C86.6949 58.0537 86.6195 57.933 85.4881 56.6508C84.8243 55.8965 84.0851 55.0064 83.8588 54.6896C83.6326 54.3728 83.3308 54.0711 83.1951 54.0108C82.8029 53.8901 82.3503 54.0711 82.2447 54.4181C82.1089 54.8254 81.2641 54.8254 81.2641 54.4181C81.2641 54.2522 81.2038 54.0711 81.1133 54.0259C81.0379 53.9806 80.9624 53.7996 80.9624 53.6337C80.9624 53.4677 80.8568 53.3018 80.7362 53.2565C80.4344 53.1358 80.0573 53.4526 80.0573 53.8147C80.0573 53.9806 79.9517 54.1013 79.831 54.1013C79.6953 54.1013 79.6047 54.2371 79.6047 54.4784C79.6047 54.75 79.5293 54.8556 79.3181 54.8556C79.0768 54.8556 79.0164 54.7349 78.9712 54.2069C78.941 53.7242 78.8505 53.5431 78.594 53.4225C78.3074 53.3018 78.2471 53.1358 78.2169 52.3665C78.1716 51.5066 78.1565 51.4614 77.7643 51.4161C77.357 51.3708 77.3419 51.3407 77.3419 50.345C77.3419 49.7567 77.2665 49.2589 77.1609 49.1533C76.9044 48.8968 72.6504 48.8968 72.3939 49.1533C72.2883 49.2589 72.2129 49.7567 72.2129 50.3601C72.2129 51.2502 72.1827 51.3859 71.9413 51.3859C71.4737 51.3859 71.3077 51.7178 71.3077 52.6229V53.4828L70.2216 53.5281L69.1204 53.5733L69.0751 56.168C69.0449 58.2498 68.9997 58.7778 68.8337 58.7778C68.4717 58.7778 68.1398 55.4137 68.1398 51.567C68.1398 48.927 68.2001 48.6253 68.9695 47.9163C69.3316 47.5693 69.5277 47.5391 70.991 47.4637C72.4693 47.3883 72.6805 47.343 73.3443 46.9357C73.8874 46.6038 74.2041 46.2569 74.5059 45.6685L74.9283 44.869V37.7034C74.9283 32.4839 74.883 30.3568 74.7472 29.9193C74.6416 29.5724 74.2796 29.0142 73.9477 28.6672C72.937 27.6113 72.5598 27.5509 66.4201 27.566C62.4526 27.566 60.9591 27.6263 60.4764 27.7772ZM72.6805 29.1198C73.7365 29.8439 73.7214 29.7232 73.7214 37.5677C73.7214 44.2656 73.7063 44.6427 73.4197 45.1858C73.2236 45.5931 72.9219 45.8797 72.4542 46.0909C71.8056 46.4077 71.6547 46.4228 66.2843 46.3776C60.9591 46.3323 60.7479 46.3172 60.3406 46.0155C60.1143 45.8496 59.7674 45.4724 59.5863 45.2009L59.2394 44.7031V37.5978V30.4926L59.5863 29.9193C60.3105 28.7276 60.1143 28.7578 66.4804 28.7578H72.1374L72.6805 29.1198ZM46.115 31.1714V32.0766H47.4727C48.7248 32.0766 48.8304 32.0916 48.8304 32.3783C48.8304 32.6649 48.7248 32.68 46.2659 32.68C43.8221 32.68 43.7014 32.6649 43.7014 32.3933C43.7014 32.152 43.8221 32.0916 44.2746 32.0464C44.6518 32.0162 44.8328 31.9257 44.8328 31.7748C44.8328 31.624 44.6518 31.5335 44.2746 31.5033C43.7315 31.458 43.7014 31.4279 43.7014 30.9602C43.7014 30.6887 43.7466 30.4172 43.807 30.3719C43.8522 30.3116 44.3953 30.2663 45.0138 30.2663H46.115V31.1714ZM47.0202 30.7943C47.0202 31.1563 46.9447 31.3223 46.7939 31.3223C46.643 31.3223 46.5676 31.1563 46.5676 30.7943C46.5676 30.4322 46.643 30.2663 46.7939 30.2663C46.9447 30.2663 47.0202 30.4322 47.0202 30.7943ZM47.9253 30.7943C47.9253 31.1563 47.8499 31.3223 47.699 31.3223C47.5482 31.3223 47.4727 31.1563 47.4727 30.7943C47.4727 30.4322 47.5482 30.2663 47.699 30.2663C47.8499 30.2663 47.9253 30.4322 47.9253 30.7943ZM48.8003 30.8395C48.8304 31.2016 48.7852 31.3223 48.6192 31.3223C48.4382 31.3223 48.3779 31.1714 48.3779 30.7792C48.3779 30.1004 48.7399 30.1456 48.8003 30.8395ZM49.8562 30.9904C49.9015 31.2469 49.8261 31.3223 49.5998 31.3223C49.3584 31.3223 49.283 31.2318 49.283 30.9301C49.283 30.4322 49.7808 30.4775 49.8562 30.9904ZM49.811 32.3783C49.811 32.4989 49.6903 32.6196 49.5545 32.6498C49.3584 32.68 49.283 32.6045 49.283 32.3783C49.283 32.152 49.3584 32.0766 49.5545 32.1067C49.6903 32.1369 49.811 32.2576 49.811 32.3783ZM48.8003 33.6907C48.8455 34.0226 48.8003 34.0377 47.9404 34.0377C47.2163 34.0377 47.0202 34.0829 47.0202 34.2639C47.0202 34.4148 47.1861 34.4902 47.518 34.5053C48.6947 34.5355 48.755 34.5657 48.8003 34.8975C48.8455 35.2294 48.8003 35.2445 47.9404 35.2445C47.1258 35.2445 47.0202 35.2747 47.0202 35.5462C47.0202 35.8177 47.1258 35.8479 47.9253 35.8479C48.7248 35.8479 48.8304 35.8781 48.8304 36.1496C48.8304 36.391 48.7248 36.4513 48.3779 36.4513C48.0309 36.4513 47.9253 36.5117 47.9253 36.753C47.9253 36.9944 48.0309 37.0548 48.3779 37.0548C48.7248 37.0548 48.8304 37.1151 48.8304 37.3565C48.8304 37.628 48.7248 37.6582 47.9253 37.6582C47.0805 37.6582 47.0202 37.6733 47.0202 38.0202C47.0202 38.3068 47.0805 38.3521 47.3973 38.2918C47.6085 38.2616 47.88 38.3068 48.0007 38.4124C48.1516 38.5482 48.227 38.5482 48.227 38.4275C48.227 38.337 48.3628 38.2616 48.5287 38.2616C48.7248 38.2616 48.8304 38.3672 48.8304 38.5633C48.8304 38.8499 48.7248 38.865 46.2659 38.865C43.807 38.865 43.7014 38.8499 43.7014 38.5633C43.7014 38.337 43.807 38.2616 44.0785 38.2616C44.35 38.2616 44.4556 38.1862 44.4556 37.9599C44.4556 37.7336 44.35 37.6582 44.0785 37.6582C43.807 37.6582 43.7014 37.5827 43.7014 37.3565C43.7014 37.0698 43.807 37.0548 45.0591 37.0548C46.3112 37.0548 46.4168 37.0397 46.4168 36.753C46.4168 36.4664 46.3112 36.4513 45.0591 36.4513C43.807 36.4513 43.7014 36.4212 43.7014 36.1496C43.7014 35.8932 43.8221 35.863 45.0138 35.8177C46.1301 35.7725 46.3413 35.7272 46.3866 35.5009C46.4318 35.2747 46.2961 35.2445 45.0591 35.2445C43.7165 35.2445 43.6863 35.2294 43.7315 34.8975C43.7617 34.6863 43.8975 34.5506 44.1238 34.5204C44.5914 34.445 44.5612 34.0377 44.0785 34.0377C43.7768 34.0377 43.7014 33.9622 43.7014 33.6605V33.2834L46.2357 33.3136C48.7248 33.3588 48.755 33.3588 48.8003 33.6907ZM49.8864 33.6605C49.8864 33.7812 49.7506 33.8868 49.5847 33.8868C49.4188 33.8868 49.283 33.7812 49.283 33.6605C49.283 33.5398 49.4188 33.4342 49.5847 33.4342C49.7506 33.4342 49.8864 33.5398 49.8864 33.6605ZM49.7355 34.8674C49.7355 34.988 49.63 35.0936 49.5093 35.0936C49.3886 35.0936 49.283 34.988 49.283 34.8674C49.283 34.7467 49.3886 34.6411 49.5093 34.6411C49.63 34.6411 49.7355 34.7467 49.7355 34.8674ZM34.6501 35.8479C34.6501 36.1345 34.5445 36.1496 33.3377 36.1496L32.0101 36.1345L32.3722 35.8479C32.6437 35.6216 32.9454 35.5462 33.6846 35.5462C34.5445 35.5462 34.6501 35.5764 34.6501 35.8479ZM49.811 36.1496C49.811 36.2703 49.6903 36.391 49.5545 36.4212C49.3584 36.4513 49.283 36.3759 49.283 36.1496C49.283 35.9233 49.3584 35.8479 49.5545 35.8781C49.6903 35.9083 49.811 36.0289 49.811 36.1496ZM34.6501 37.2659C34.6501 37.5224 33.6997 37.6582 31.9951 37.6582C30.8335 37.6582 30.7279 37.628 30.7279 37.3565C30.7279 37.0698 30.8335 37.0548 32.689 37.0548C34.2428 37.0548 34.6501 37.1 34.6501 37.2659ZM49.7808 37.4319C49.7959 37.5073 49.6903 37.5978 49.5545 37.628C49.3886 37.6582 49.283 37.5827 49.283 37.4319C49.283 37.1754 49.7355 37.1604 49.7808 37.4319ZM34.4992 39.393V40.5244H33.8204H33.1416V39.393V38.2616H33.8204H34.4992V39.393ZM51.3799 38.4577C51.5911 38.7292 51.4402 38.865 50.9122 38.865C50.52 38.865 50.3541 38.6086 50.5954 38.3672C50.7614 38.1862 51.1988 38.2465 51.3799 38.4577ZM49.8864 38.6387C49.8864 38.7594 49.7506 38.865 49.5847 38.865C49.4188 38.865 49.283 38.7594 49.283 38.6387C49.283 38.518 49.4188 38.4124 49.5847 38.4124C49.7506 38.4124 49.8864 38.518 49.8864 38.6387ZM32.0554 39.8154C32.1007 40.5998 32.0705 40.6753 31.7839 40.6753C31.5123 40.6753 31.4822 40.5847 31.4822 39.8757C31.4822 39.4232 31.5274 39.0159 31.5878 38.9555C31.8442 38.7141 32.0101 39.0309 32.0554 39.8154ZM29.8228 39.8456C29.8228 40.2981 29.7624 40.6753 29.6719 40.6753C29.5965 40.6753 29.521 40.2981 29.521 39.8456C29.521 39.393 29.5965 39.0159 29.6719 39.0159C29.7624 39.0159 29.8228 39.393 29.8228 39.8456ZM31.0296 39.8456C31.0296 40.63 31.0145 40.6753 30.6525 40.6753C30.2904 40.6753 30.2753 40.63 30.2753 39.8456C30.2753 39.0611 30.2904 39.0159 30.6525 39.0159C31.0145 39.0159 31.0296 39.0611 31.0296 39.8456ZM38.3913 39.4232C38.3309 39.755 38.0594 39.7249 37.9991 39.4081C37.9689 39.2572 38.0443 39.1667 38.1952 39.1667C38.346 39.1667 38.4215 39.2723 38.3913 39.4232ZM48.8003 39.8003C48.8455 40.0115 48.6041 40.0568 47.0353 40.1473C45.6474 40.2378 45.2099 40.3132 45.2099 40.4641C45.2099 40.63 45.572 40.6753 46.9447 40.6753C48.3779 40.6753 48.7097 40.7205 48.7852 40.9015C48.8304 41.0373 48.8304 41.1882 48.7701 41.2334C48.6947 41.3239 47.7292 41.3843 46.0094 41.4144C45.8133 41.4295 45.6625 41.52 45.6625 41.6407C45.6625 41.9274 46.1452 42.033 47.5934 42.033C48.7097 42.033 48.8455 42.0631 48.8003 42.2894C48.755 42.5308 48.4985 42.5609 46.2206 42.6062C43.807 42.6364 43.7014 42.6364 43.7014 42.3497C43.7014 42.1385 43.8221 42.033 44.1087 42.0028C44.3651 41.9726 44.5462 41.8519 44.5763 41.686C44.6216 41.4899 44.5311 41.4295 44.1539 41.4295C43.7466 41.4295 43.6863 41.3843 43.7315 41.0826C43.7617 40.8412 43.8975 40.7356 44.1992 40.7054C44.7272 40.6451 44.6518 40.3132 44.1087 40.2529C43.7165 40.2076 43.5505 39.8154 43.807 39.5589C43.8673 39.5137 44.9987 39.4835 46.3262 39.4986C48.4382 39.5438 48.755 39.574 48.8003 39.8003ZM53.7634 40.0266C53.5823 40.2076 53.4767 40.2227 53.1901 40.0718C52.8733 39.8908 52.8582 39.8757 53.1298 39.6796C53.3259 39.5288 53.4767 39.5288 53.703 39.6344C53.9595 39.7852 53.9746 39.8305 53.7634 40.0266ZM49.7355 39.8456C49.7355 39.9662 49.63 40.0718 49.5093 40.0718C49.3886 40.0718 49.283 39.9662 49.283 39.8456C49.283 39.7249 49.3886 39.6193 49.5093 39.6193C49.63 39.6193 49.7355 39.7249 49.7355 39.8456ZM51.4704 39.8456C51.4704 39.921 51.1838 40.0115 50.8368 40.0417C50.3239 40.0869 50.1881 40.0417 50.1881 39.8456C50.1881 39.6494 50.3239 39.6042 50.8368 39.6494C51.1838 39.6796 51.4704 39.755 51.4704 39.8456ZM49.7355 41.0524C49.7355 41.1731 49.63 41.2787 49.5093 41.2787C49.3886 41.2787 49.283 41.1731 49.283 41.0524C49.283 40.9317 49.3886 40.8261 49.5093 40.8261C49.63 40.8261 49.7355 40.9317 49.7355 41.0524ZM34.4691 41.686C34.4389 41.8821 34.2428 41.9726 33.7751 42.0028C33.217 42.048 33.1416 42.0179 33.1416 41.7463C33.1416 41.4748 33.2321 41.4295 33.8355 41.4295C34.4087 41.4295 34.5143 41.4748 34.4691 41.686ZM30.8787 41.8821C30.8787 42.1989 30.3809 42.3196 30.1999 42.033C30.0641 41.8067 30.2602 41.5804 30.5921 41.5804C30.7731 41.5804 30.8787 41.686 30.8787 41.8821ZM32.2364 41.8067C32.2364 41.9424 32.1007 42.033 31.8593 42.033C31.6179 42.033 31.4822 41.9424 31.4822 41.8067C31.4822 41.6709 31.6179 41.5804 31.8593 41.5804C32.1007 41.5804 32.2364 41.6709 32.2364 41.8067ZM29.521 41.9575C29.521 42.0933 29.3853 42.1838 29.1439 42.1838C28.9025 42.1838 28.7668 42.0933 28.7668 41.9575C28.7668 41.8218 28.9025 41.7312 29.1439 41.7312C29.3853 41.7312 29.521 41.8218 29.521 41.9575ZM49.7355 42.2592C49.7355 42.3799 49.63 42.4855 49.5093 42.4855C49.3886 42.4855 49.283 42.3799 49.283 42.2592C49.283 42.1385 49.3886 42.033 49.5093 42.033C49.63 42.033 49.7355 42.1385 49.7355 42.2592ZM22.4158 43.632C22.6723 44.1751 22.8834 44.6578 22.8834 44.7031C22.8834 44.7332 22.7024 44.7483 22.4761 44.7182C22.1443 44.688 22.0236 44.5673 21.9029 44.1751C21.7219 43.5566 21.6314 43.5717 21.39 44.2203C21.2693 44.5824 21.1034 44.7483 20.9073 44.7483C20.5301 44.7483 20.5452 44.5975 21.0129 43.6471C21.4956 42.7118 21.6766 42.4704 21.8275 42.5609C21.9029 42.6062 22.1593 43.0889 22.4158 43.632ZM34.4992 42.9381C34.4992 43.1945 34.3936 43.2398 33.8204 43.2398C33.3528 43.2398 33.1416 43.1794 33.1416 43.0437C33.1416 42.7269 33.3075 42.6364 33.926 42.6364C34.3936 42.6364 34.4992 42.6816 34.4992 42.9381ZM25.2971 43.0135C25.2971 43.1945 25.101 43.2398 24.392 43.2398C23.683 43.2398 23.4869 43.1945 23.4869 43.0135C23.4869 42.8325 23.683 42.7872 24.392 42.7872C25.101 42.7872 25.2971 42.8325 25.2971 43.0135ZM30.8033 43.5415V44.2203L31.5274 44.1751C32.161 44.1298 32.2364 44.1449 32.2364 44.4315C32.2364 44.7182 32.161 44.7332 30.9994 44.7031C29.7926 44.6729 29.2797 44.4315 29.9585 44.2203C30.215 44.1449 30.2753 43.9941 30.2753 43.451C30.2753 42.8777 30.3206 42.7721 30.5469 42.8174C30.743 42.8626 30.8033 43.0286 30.8033 43.5415ZM29.6719 43.1644C29.6719 43.3152 29.521 43.3906 29.2193 43.3906C28.9176 43.3906 28.7668 43.3152 28.7668 43.1644C28.7668 43.0135 28.9176 42.9381 29.2193 42.9381C29.521 42.9381 29.6719 43.0135 29.6719 43.1644ZM32.2364 43.1644C32.2364 43.3001 32.1007 43.3906 31.8593 43.3906C31.6179 43.3906 31.4822 43.3001 31.4822 43.1644C31.4822 43.0286 31.6179 42.9381 31.8593 42.9381C32.1007 42.9381 32.2364 43.0286 32.2364 43.1644ZM37.3655 43.0889C37.3655 43.1644 37.1995 43.2398 36.9883 43.2398C36.7771 43.2398 36.6112 43.1644 36.6112 43.0889C36.6112 42.9984 36.7771 42.9381 36.9883 42.9381C37.1995 42.9381 37.3655 42.9984 37.3655 43.0889ZM39.7792 43.0889C39.7792 43.1644 39.4774 43.2398 39.1003 43.2398C38.7232 43.2398 38.4215 43.1644 38.4215 43.0889C38.4215 42.9984 38.7232 42.9381 39.1003 42.9381C39.4774 42.9381 39.7792 42.9984 39.7792 43.0889ZM51.7419 43.4661C51.757 43.5566 51.5156 43.632 51.2139 43.6622C50.6105 43.7074 50.4597 43.5113 50.8971 43.27C51.1687 43.104 51.6967 43.2398 51.7419 43.4661ZM48.8003 43.4962C48.755 43.7225 48.5589 43.7829 47.8046 43.813C47.1107 43.8432 46.8693 43.9186 46.8693 44.0695C46.8693 44.2505 47.0956 44.2958 47.8499 44.2958C48.7248 44.2958 48.8304 44.3259 48.8304 44.5975C48.8304 44.8841 48.7248 44.8992 47.0202 44.8992C45.3155 44.8992 45.2099 44.9143 45.2099 45.2009C45.2099 45.4875 45.3155 45.5026 47.0202 45.5026C48.7248 45.5026 48.8304 45.5177 48.8304 45.8043C48.8304 46.0759 48.7248 46.106 47.9253 46.106C47.1258 46.106 47.0202 46.1362 47.0202 46.4077C47.0202 46.6793 47.1258 46.7094 47.9404 46.7094H48.8606L48.755 47.3129L48.6494 47.9163H49.2076C49.645 47.9163 49.7506 47.9615 49.7054 48.1727C49.6601 48.399 49.464 48.4594 48.7097 48.4895C47.9253 48.5197 47.7744 48.58 47.7744 48.8063C47.7744 49.0477 47.9555 49.108 49.2076 49.1985C50.2485 49.274 50.6407 49.3494 50.6407 49.5002C50.6407 49.802 49.6601 49.8925 46.8693 49.8472C44.4255 49.802 44.3802 49.802 44.335 49.455C44.2897 49.1231 44.3199 49.1231 45.8133 49.1231C47.1861 49.1231 47.337 49.0929 47.2917 48.8516C47.2465 48.6253 47.0202 48.5951 45.5871 48.5499C44.0332 48.5046 43.7165 48.4292 43.7014 48.0219C43.7014 47.9615 44.3199 47.9163 45.0591 47.9163C46.3112 47.9163 46.4168 47.9012 46.4168 47.6146C46.4168 47.3279 46.3112 47.3129 45.0591 47.3129C43.8221 47.3129 43.7014 47.2827 43.7014 47.0262C43.7014 46.8301 43.8221 46.7094 44.0332 46.6793C44.5462 46.6038 44.5914 46.106 44.0936 46.106C43.807 46.106 43.7014 46.0306 43.7014 45.8043C43.7014 45.578 43.807 45.5026 44.0785 45.5026C44.35 45.5026 44.4556 45.4272 44.4556 45.2009C44.4556 44.9746 44.35 44.8992 44.0785 44.8992C43.807 44.8992 43.7014 44.8238 43.7014 44.5975C43.7014 44.3712 43.807 44.2958 44.0785 44.2958C44.3199 44.2958 44.4556 44.2053 44.4556 44.0695C44.4556 43.9337 44.3199 43.8432 44.0785 43.8432C43.807 43.8432 43.7014 43.7678 43.7014 43.5415C43.7014 43.2549 43.807 43.2398 46.281 43.2398C48.6494 43.2398 48.8455 43.2549 48.8003 43.4962ZM49.8562 43.4962C49.8864 43.6169 49.7808 43.6923 49.5998 43.6923C49.4188 43.6923 49.283 43.6018 49.283 43.451C49.283 43.1794 49.7506 43.2247 49.8562 43.4962ZM34.4992 44.2958C34.4992 44.5522 34.3936 44.5975 33.8204 44.5975C33.2472 44.5975 33.1416 44.5522 33.1416 44.2958C33.1416 44.0393 33.2472 43.9941 33.8204 43.9941C34.3936 43.9941 34.4992 44.0393 34.4992 44.2958ZM29.521 44.4315C29.521 44.5673 29.159 44.7483 28.9025 44.7483C28.8271 44.7483 28.7668 44.6427 28.7668 44.522C28.7668 44.3863 28.9025 44.2958 29.1439 44.2958C29.3551 44.2958 29.521 44.3561 29.521 44.4315ZM39.221 44.5522C38.874 44.5824 38.2555 44.5824 37.8633 44.5522C37.4711 44.522 37.7577 44.507 38.4969 44.507C39.2512 44.507 39.568 44.522 39.221 44.5522ZM49.7355 44.6729C49.7355 44.7936 49.63 44.8992 49.5093 44.8992C49.3886 44.8992 49.283 44.7936 49.283 44.6729C49.283 44.5522 49.3886 44.4466 49.5093 44.4466C49.63 44.4466 49.7355 44.5522 49.7355 44.6729ZM34.4992 45.6384C34.4992 45.8194 34.3635 45.9401 34.0919 46.0004C33.5489 46.106 33.2924 45.9853 33.2924 45.6384C33.2924 45.4121 33.398 45.3517 33.8958 45.3517C34.3936 45.3517 34.4992 45.4121 34.4992 45.6384ZM22.8533 56.7714L22.8834 67.9799H22.5063H22.1292V56.7262V45.4875L22.4761 45.5328L22.808 45.578L22.8533 56.7714ZM31.0296 45.8043C31.0296 46.0457 30.924 46.106 30.577 46.106C30.2301 46.106 30.1245 46.0457 30.1245 45.8043C30.1245 45.5629 30.2301 45.5026 30.577 45.5026C30.924 45.5026 31.0296 45.5629 31.0296 45.8043ZM32.2364 45.8043C32.2364 46.0004 32.1308 46.106 31.9347 46.106C31.7386 46.106 31.633 46.0004 31.633 45.8043C31.633 45.6082 31.7386 45.5026 31.9347 45.5026C32.1308 45.5026 32.2364 45.6082 32.2364 45.8043ZM37.1845 45.6535C37.275 45.6535 37.3655 45.7289 37.3655 45.8194C37.3655 46.0457 36.4151 45.9099 36.3397 45.6685C36.2793 45.5177 36.3548 45.4875 36.6263 45.5479C36.8224 45.6082 37.0789 45.6535 37.1845 45.6535ZM49.7355 45.8043C49.7355 45.9703 49.63 46.106 49.5093 46.106C49.3886 46.106 49.283 45.9703 49.283 45.8043C49.283 45.6384 49.3886 45.5026 49.5093 45.5026C49.63 45.5026 49.7355 45.6384 49.7355 45.8043ZM21.224 56.8921C21.224 63.8314 21.1637 68.1308 21.0883 68.1308C20.9978 68.1308 20.8318 67.9799 20.7111 67.7989C20.4999 67.4972 20.4698 66.2149 20.4698 56.8619V46.2569H19.9418C19.5194 46.2569 19.4138 46.1965 19.4138 45.9552C19.4138 45.6836 19.5194 45.6535 20.3189 45.6535H21.224V56.8921ZM26.2022 45.8948C26.2022 46.0759 26.0665 46.106 25.5687 46.0759C24.6786 46.0155 24.6183 45.6535 25.5083 45.6535C26.0363 45.6535 26.2022 45.7138 26.2022 45.8948ZM29.2193 45.8797C29.2193 46.0004 29.1137 46.106 28.9931 46.106C28.8724 46.106 28.7668 46.0004 28.7668 45.8797C28.7668 45.7591 28.8724 45.6535 28.9931 45.6535C29.1137 45.6535 29.2193 45.7591 29.2193 45.8797ZM39.2964 45.9099C39.1456 45.9401 38.874 45.9401 38.693 45.9099C38.4969 45.8797 38.6176 45.8496 38.9495 45.8496C39.2813 45.8345 39.4322 45.8647 39.2964 45.9099ZM49.7355 47.0111C49.7355 47.1771 49.63 47.3129 49.5093 47.3129C49.3886 47.3129 49.283 47.1771 49.283 47.0111C49.283 46.8452 49.3886 46.7094 49.5093 46.7094C49.63 46.7094 49.7355 46.8452 49.7355 47.0111ZM30.8486 47.2073C30.8938 47.4185 30.7882 47.4637 30.215 47.4637C29.4305 47.4637 29.2193 47.0715 29.9434 46.9659C30.5921 46.8603 30.8033 46.9206 30.8486 47.2073ZM32.2364 47.162C32.2364 47.4185 32.1308 47.4637 31.633 47.4637C31.3011 47.4637 31.0296 47.4034 31.0296 47.343C31.0296 47.0866 31.4067 46.8603 31.814 46.8603C32.1308 46.8603 32.2364 46.9357 32.2364 47.162ZM34.4992 47.1771C34.4992 47.4486 34.4238 47.4788 33.8657 47.4335C33.398 47.4034 33.2019 47.3129 33.1717 47.1167C33.1265 46.9056 33.2321 46.8603 33.8053 46.8603C34.4087 46.8603 34.4992 46.9056 34.4992 47.1771ZM41.6347 49.3494L41.514 50.2545L40.3524 50.2998L39.2059 50.345L39.4473 49.6813C39.583 49.3192 40.1412 48.5348 40.6843 47.9314L41.6648 46.8301L41.7101 47.6447C41.7252 48.0822 41.695 48.8516 41.6347 49.3494ZM37.2146 47.162C37.2146 47.2374 37.0336 47.3129 36.8224 47.3129C36.6112 47.3129 36.4754 47.2525 36.5358 47.162C36.581 47.0715 36.7621 47.0111 36.928 47.0111C37.0789 47.0111 37.2146 47.0715 37.2146 47.162ZM39.1757 47.162C39.1757 47.2374 39.0098 47.3129 38.7986 47.3129C38.5874 47.3129 38.4215 47.2374 38.4215 47.162C38.4215 47.0715 38.5874 47.0111 38.7986 47.0111C39.0098 47.0111 39.1757 47.0715 39.1757 47.162ZM19.6853 57.043L19.7155 66.8334L19.3384 66.4714L18.9612 66.1244V57.0279C18.9612 48.0671 19.0065 47.0564 19.4591 47.2073C19.5948 47.2525 19.6552 49.4097 19.6853 57.043ZM32.2364 48.5197C32.2364 48.7761 32.1308 48.8214 31.4822 48.8214C30.8335 48.8214 30.7279 48.7761 30.7279 48.5197C30.7279 48.2632 30.8335 48.218 31.4822 48.218C32.1308 48.218 32.2364 48.2632 32.2364 48.5197ZM34.4992 48.5197C34.4992 48.7761 34.3936 48.8214 33.8204 48.8214C33.2472 48.8214 33.1416 48.7761 33.1416 48.5197C33.1416 48.2632 33.2472 48.218 33.8204 48.218C34.3936 48.218 34.4992 48.2632 34.4992 48.5197ZM25.7497 48.5951C25.7497 48.7309 25.6139 48.8214 25.3725 48.8214C25.1312 48.8214 24.9954 48.7309 24.9954 48.5951C24.9954 48.4594 25.1312 48.3688 25.3725 48.3688C25.6139 48.3688 25.7497 48.4594 25.7497 48.5951ZM30.0943 48.5348C30.0641 48.6253 29.9736 48.6856 29.8982 48.6856C29.8228 48.6856 29.7322 48.6253 29.7021 48.5348C29.6719 48.4443 29.7624 48.3688 29.8982 48.3688C30.034 48.3688 30.1245 48.4443 30.0943 48.5348ZM66.2994 54.3276C66.3295 60.1958 66.3295 60.2109 66.0128 60.4825C65.8317 60.6333 65.6658 60.7238 65.6507 60.7087C65.6356 60.6786 65.6658 57.8878 65.696 54.5086C65.7563 48.9119 65.7865 48.3538 66.0128 48.399C66.2239 48.4443 66.2541 49.0326 66.2994 54.3276ZM27.5599 48.6705C27.5599 48.746 27.394 48.8214 27.1828 48.8214C26.9716 48.8214 26.8057 48.746 26.8057 48.6705C26.8057 48.58 26.9716 48.5197 27.1828 48.5197C27.394 48.5197 27.5599 48.58 27.5599 48.6705ZM36.9582 48.6253C36.8526 48.6555 36.6414 48.6555 36.5056 48.6253C36.3548 48.58 36.4453 48.5499 36.6866 48.5499C36.9431 48.5499 37.0487 48.58 36.9582 48.6253ZM30.9994 49.9226C31.0447 50.1037 30.9542 50.1791 30.6675 50.1791C30.2904 50.1791 30.1396 49.9076 30.3809 49.6662C30.5619 49.4852 30.9542 49.636 30.9994 49.9226ZM32.2364 49.8623C32.2364 50.0282 32.1761 50.2093 32.0856 50.2545C32.0101 50.2998 31.9347 50.4808 31.9347 50.6467C31.9347 50.7976 32.0101 50.9334 32.0856 50.9334C32.1761 50.9334 32.2364 51.0691 32.2364 51.2351C32.2364 51.5066 32.1308 51.5368 31.1804 51.5368C30.3809 51.5368 30.1245 51.4915 30.1245 51.3256C30.1245 51.1898 30.3809 51.0842 30.8787 51.0088C31.633 50.9032 31.633 50.9032 31.633 50.345C31.633 50.0282 31.6783 49.7265 31.7386 49.6813C31.9347 49.4701 32.2364 49.5908 32.2364 49.8623ZM34.4691 49.8321C34.4389 50.0433 34.273 50.1037 33.8204 50.1037C33.3678 50.1037 33.2019 50.0433 33.1717 49.8321C33.1265 49.6209 33.2321 49.5757 33.8204 49.5757C34.4087 49.5757 34.5143 49.6209 34.4691 49.8321ZM25.7497 50.0282C25.7497 50.1037 25.5837 50.1791 25.3725 50.1791C25.1614 50.1791 24.9954 50.1037 24.9954 50.0282C24.9954 49.9377 25.1614 49.8774 25.3725 49.8774C25.5837 49.8774 25.7497 49.9377 25.7497 50.0282ZM27.5599 50.0282C27.5599 50.1037 27.4242 50.1791 27.2582 50.1791C27.0923 50.1791 26.9565 50.1037 26.9565 50.0282C26.9565 49.9377 27.0923 49.8774 27.2582 49.8774C27.4242 49.8774 27.5599 49.9377 27.5599 50.0282ZM36.9582 49.983C36.8526 50.0132 36.6414 50.0132 36.5056 49.983C36.3548 49.9377 36.4453 49.9076 36.6866 49.9076C36.9431 49.9076 37.0487 49.9377 36.9582 49.983ZM75.23 50.5562V51.2351H74.2494H73.2689V50.5562V49.8774H74.2494H75.23V50.5562ZM49.8562 50.7373C51.5307 50.7976 52.1492 50.873 52.1492 51.0239C52.1492 51.1446 51.5458 51.2351 49.9618 51.3105C47.7895 51.4161 47.7744 51.4312 47.7744 51.7782C47.7744 52.11 47.8348 52.1402 48.4985 52.1402C50.2334 52.1402 52.1492 52.3363 52.1492 52.5173C52.1492 52.7738 50.7463 52.8945 47.5331 52.8945C44.9233 52.8945 44.7574 52.8794 44.7574 52.6079C44.7574 52.276 45.2853 52.1402 46.5073 52.1402C47.2766 52.1402 47.3219 52.1251 47.3219 51.7631C47.3219 51.401 47.2917 51.3859 46.2961 51.3859C45.4815 51.3859 45.2099 51.3256 45.0138 51.1144C44.8629 50.9635 44.8026 50.7825 44.8629 50.7373C44.9836 50.6015 46.9297 50.6015 49.8562 50.7373ZM34.4992 51.0842C34.4992 51.3407 34.3936 51.3859 33.8204 51.3859C33.3377 51.3859 33.1416 51.3256 33.1416 51.1747C33.1416 50.9635 33.4583 50.8429 34.1674 50.7976C34.4087 50.7825 34.4992 50.873 34.4992 51.0842ZM53.5823 50.9334C53.8991 51.054 53.8991 51.054 53.175 51.2954C52.9789 51.3558 52.9035 51.2954 52.9035 51.0842C52.9035 50.7674 53.0845 50.7222 53.5823 50.9334ZM25.7497 51.3105C25.7497 51.4463 25.6139 51.5368 25.3725 51.5368C25.0105 51.5368 24.8898 51.3859 25.101 51.1898C25.282 50.9937 25.7497 51.0842 25.7497 51.3105ZM41.4084 51.3407C41.3631 51.582 41.167 51.6122 39.8546 51.6122C38.5421 51.6122 38.346 51.582 38.3008 51.3407C38.2555 51.1144 38.4064 51.0842 39.8546 51.0842C41.3028 51.0842 41.4536 51.1144 41.4084 51.3407ZM27.5599 51.3859C27.5599 51.4614 27.394 51.5368 27.1828 51.5368C26.9716 51.5368 26.8057 51.4614 26.8057 51.3859C26.8057 51.2954 26.9716 51.2351 27.1828 51.2351C27.394 51.2351 27.5599 51.2954 27.5599 51.3859ZM36.8677 51.3256C36.8224 51.3708 36.6866 51.3859 36.581 51.3407C36.4604 51.2954 36.5056 51.2502 36.6716 51.2502C36.8375 51.2351 36.928 51.2803 36.8677 51.3256ZM75.8334 52.2156C75.8334 52.3967 75.5468 52.4419 74.174 52.4419C72.8012 52.4419 72.5146 52.3967 72.5146 52.2156C72.5146 52.0346 72.8012 51.9893 74.174 51.9893C75.5468 51.9893 75.8334 52.0346 75.8334 52.2156ZM34.4992 52.4419C34.4992 52.6682 34.3936 52.7436 34.1221 52.7436C33.7601 52.7436 33.6092 52.4721 33.8506 52.2458C34.0769 52.0195 34.4992 52.1402 34.4992 52.4419ZM53.2655 52.6079C53.1449 52.819 52.7526 52.7738 52.7526 52.5475C52.7526 52.4268 52.7979 52.2911 52.8582 52.2458C52.994 52.11 53.3711 52.4419 53.2655 52.6079ZM31.1503 52.5626C31.1804 52.6833 30.9391 52.7436 30.3658 52.7436C29.3853 52.7436 29.2193 52.4872 30.1697 52.3967C30.9843 52.3363 31.0748 52.3514 31.1503 52.5626ZM32.2364 52.5928C32.2364 52.7587 32.1308 52.8945 32.0101 52.8945C31.8895 52.8945 31.7839 52.7587 31.7839 52.5928C31.7839 52.4268 31.8895 52.2911 32.0101 52.2911C32.1308 52.2911 32.2364 52.4268 32.2364 52.5928ZM41.7252 53.0001C42.1174 53.5884 42.1928 53.8449 42.1928 54.584V55.459L41.8157 55.2176C41.4838 54.9914 41.4386 54.8707 41.4386 53.9957C41.4386 53.0755 41.4235 53.0302 41.1067 53.0755C40.7899 53.1208 40.7597 53.2113 40.7145 54.1013C40.6843 54.7651 40.5938 55.112 40.4429 55.2025C40.3373 55.2629 40.2317 55.4288 40.2317 55.5344C40.2317 55.6702 40.0959 55.7607 39.9149 55.7607C39.6434 55.7607 39.6132 55.8361 39.6585 56.3189C39.6886 56.6508 39.6283 56.8921 39.5076 56.9374C39.3869 56.9675 39.3266 56.8167 39.3266 56.4546C39.3266 56.168 39.2662 55.8814 39.1757 55.8361C39.0852 55.7758 39.0249 55.0064 39.0249 54.0108V52.2911H40.1412H41.2575L41.7252 53.0001ZM25.9005 52.7436C25.9005 52.819 25.7044 52.8945 25.448 52.8945C25.2066 52.8945 24.9954 52.819 24.9954 52.7436C24.9954 52.6531 25.2066 52.5928 25.448 52.5928C25.7044 52.5928 25.9005 52.6531 25.9005 52.7436ZM27.5599 52.7436C27.5599 52.819 27.394 52.8945 27.1828 52.8945C26.9716 52.8945 26.8057 52.819 26.8057 52.7436C26.8057 52.6531 26.9716 52.5928 27.1828 52.5928C27.394 52.5928 27.5599 52.6531 27.5599 52.7436ZM60.8988 53.7393C60.8988 53.7694 60.6574 53.7996 60.3708 53.7996C59.8881 53.7996 59.8428 53.7694 59.8428 53.332V52.8794L60.3708 53.2867C60.6574 53.4979 60.8988 53.7091 60.8988 53.7393ZM59.179 53.9203C58.998 54.0862 58.9075 53.8147 59.0282 53.4677L59.1489 53.1208L59.2092 53.4677C59.2394 53.6638 59.2243 53.8599 59.179 53.9203ZM75.8334 53.347C75.8334 53.4375 75.1847 53.4979 74.174 53.4979C73.1633 53.4979 72.5146 53.4375 72.5146 53.347C72.5146 53.2565 73.1633 53.1962 74.174 53.1962C75.1847 53.1962 75.8334 53.2565 75.8334 53.347ZM33.5941 53.875C33.5941 53.9957 33.4885 54.1013 33.3678 54.1013C33.2472 54.1013 33.1416 53.9957 33.1416 53.875C33.1416 53.7543 33.2472 53.6487 33.3678 53.6487C33.4885 53.6487 33.5941 53.7543 33.5941 53.875ZM34.4992 53.875C34.4992 54.0108 34.3635 54.1013 34.1523 54.1013C33.9411 54.1013 33.7902 54.0108 33.7902 53.875C33.7902 53.7393 33.9411 53.6487 34.1523 53.6487C34.3635 53.6487 34.4992 53.7393 34.4992 53.875ZM48.8304 53.9505C48.8304 54.2371 48.7248 54.2522 46.8693 54.2522C45.0138 54.2522 44.9082 54.2371 44.9082 53.9505C44.9082 53.6638 45.0138 53.6487 46.8693 53.6487C48.7248 53.6487 48.8304 53.6638 48.8304 53.9505ZM49.7355 53.8599C49.7355 54.1617 49.4489 54.3276 49.2528 54.1315C49.1623 54.041 49.1472 53.9052 49.1925 53.8147C49.3433 53.5733 49.7355 53.6186 49.7355 53.8599ZM27.5599 54.0259C27.5599 54.2069 27.3186 54.2522 26.2777 54.2522C25.2368 54.2522 24.9954 54.2069 24.9954 54.0259C24.9954 53.8449 25.2368 53.7996 26.2777 53.7996C27.3186 53.7996 27.5599 53.8449 27.5599 54.0259ZM32.2364 54.041C32.2364 54.2522 32.1157 54.2823 31.5425 54.1918C31.1503 54.1466 30.5469 54.1013 30.1848 54.1013C29.8228 54.1013 29.521 54.0259 29.521 53.9505C29.521 53.8599 30.0792 53.7996 30.8787 53.7996C32.0403 53.7996 32.2364 53.8298 32.2364 54.041ZM37.0185 54.041C36.9733 54.0862 36.8375 54.1013 36.7319 54.0561C36.6112 54.0108 36.6565 53.9655 36.8224 53.9655C36.9883 53.9505 37.0789 53.9957 37.0185 54.041ZM75.8334 54.4784C75.8334 54.6595 75.5618 54.7047 74.2494 54.7047C72.771 54.7047 72.6654 54.7198 72.6654 55.0064C72.6654 55.2931 72.771 55.3081 74.2494 55.3081C75.7278 55.3081 75.8334 55.3232 75.8334 55.6099C75.8334 55.8965 75.7278 55.9116 73.9477 55.9116H72.062V55.0819V54.2522H73.9477C75.5166 54.2522 75.8334 54.2823 75.8334 54.4784ZM70.5535 56.5753C70.5535 58.5968 70.4026 59.2002 70.1009 58.4007C70.0104 58.1895 69.9501 57.224 69.9501 56.2736C69.9501 54.6595 69.9651 54.5539 70.2518 54.5539C70.5384 54.5539 70.5535 54.6595 70.5535 56.5753ZM59.0584 56.8469C59.0131 58.7627 58.9829 59.0041 58.7566 59.0493C58.5002 59.0946 58.4851 58.9136 58.4851 56.9072C58.4851 54.7952 58.5002 54.7047 58.7868 54.7047C59.0885 54.7047 59.0885 54.7802 59.0584 56.8469ZM60.4462 57.2693C60.4462 59.8036 60.4462 59.8489 60.1445 59.6829C59.8579 59.5321 59.8428 59.3661 59.8428 57.1184C59.8428 54.8103 59.8579 54.7047 60.1445 54.7047C60.4311 54.7047 60.4462 54.8103 60.4462 57.2693ZM34.4691 55.2025C34.5143 55.4137 34.4087 55.459 33.9109 55.459C33.4734 55.459 33.2924 55.3987 33.2924 55.2478C33.2924 54.8254 34.3936 54.7802 34.4691 55.2025ZM32.0856 55.2327C32.0856 55.4741 31.5576 55.5495 31.4218 55.3232C31.3011 55.1422 31.4822 55.0064 31.814 55.0064C31.9649 55.0064 32.0856 55.112 32.0856 55.2327ZM48.8304 55.2931C48.8304 55.5646 48.6947 55.5948 47.0654 55.64C45.3306 55.6853 44.9082 55.5948 44.9082 55.1422C44.9082 55.0668 45.7681 55.0064 46.8693 55.0064C48.7097 55.0064 48.8304 55.0215 48.8304 55.2931ZM17.7544 55.459C17.7544 55.5344 17.4225 55.6099 17.0001 55.6099C16.5928 55.6099 16.2458 55.5344 16.2458 55.459C16.2458 55.3685 16.5928 55.3081 17.0001 55.3081C17.4225 55.3081 17.7544 55.3685 17.7544 55.459ZM25.6441 55.4741C25.5234 55.5948 25.4027 55.5948 25.1915 55.4741C24.9502 55.3383 24.9803 55.3232 25.3725 55.3081C25.6893 55.3081 25.7648 55.3534 25.6441 55.4741ZM27.5599 55.459C27.5599 55.5344 27.4242 55.6099 27.2582 55.6099C27.0923 55.6099 26.9565 55.5344 26.9565 55.459C26.9565 55.3685 27.0923 55.3081 27.2582 55.3081C27.4242 55.3081 27.5599 55.3685 27.5599 55.459ZM29.4154 55.4137C29.3099 55.4439 29.1288 55.4439 29.0383 55.4137C28.9327 55.3685 29.0081 55.3383 29.2193 55.3383C29.4305 55.3383 29.506 55.3685 29.4154 55.4137ZM83.2253 55.7155C83.2102 55.9568 83.1347 56.4999 83.0291 56.9374L82.833 57.7369L82.4257 57.4201C82.1994 57.2391 82.0184 57.0279 82.0184 56.9374C82.0184 56.696 82.9386 55.3081 83.0895 55.3081C83.1649 55.3081 83.2253 55.4892 83.2253 55.7155ZM41.2877 56.8921V58.0235H39.1003C37.2599 58.0235 36.9129 57.9934 36.9129 57.7972C36.9129 57.6011 37.2297 57.571 38.7986 57.571H40.6843V56.6658C40.6843 55.8663 40.7145 55.7607 40.986 55.7607C41.2575 55.7607 41.2877 55.8663 41.2877 56.8921ZM79.7556 56.3641C79.9215 56.7111 80.1327 57.1486 80.2082 57.3598C80.3439 57.7067 80.3288 57.7369 80.0573 57.6464C79.7858 57.5559 79.7556 57.6162 79.7556 58.2347C79.7556 58.8231 79.7103 58.9287 79.4539 58.9287C79.1824 58.9287 79.1522 58.8231 79.1522 57.9934V57.0581L78.6996 57.4955C78.3677 57.8123 78.2471 58.0688 78.2471 58.4308C78.2471 58.8231 78.1867 58.9287 77.9453 58.9287C77.6889 58.9287 77.6436 58.8231 77.6436 58.1442C77.6436 57.3899 77.6738 57.3296 78.4733 56.5602C78.9259 56.1228 79.3332 55.7607 79.3785 55.7607C79.4086 55.7607 79.5897 56.0322 79.7556 56.3641ZM15.4916 56.4396C15.4916 56.7111 15.4162 56.8167 15.1899 56.8167C14.8731 56.8167 14.8278 56.696 14.9787 56.3038C15.1295 55.9266 15.4916 56.0172 15.4916 56.4396ZM34.4992 56.515C34.4992 56.7714 34.3936 56.8167 33.8204 56.8167C33.3528 56.8167 33.1416 56.7563 33.1416 56.6206C33.1416 56.3038 33.3075 56.2133 33.926 56.2133C34.3936 56.2133 34.4992 56.2585 34.4992 56.515ZM36.7621 56.515C36.7621 56.7111 36.6565 56.8167 36.4754 56.8167C36.0983 56.8167 35.9022 56.515 36.1737 56.349C36.5207 56.1228 36.7621 56.1982 36.7621 56.515ZM38.4215 56.6809C38.4215 56.9826 38.1952 57.0731 38.0443 56.8167C37.9086 56.5904 38.0896 56.168 38.2706 56.2887C38.346 56.334 38.4215 56.515 38.4215 56.6809ZM42.7208 56.515C42.7208 56.6206 42.6303 56.7413 42.5398 56.7714C42.4191 56.8167 42.3437 56.7111 42.3437 56.515C42.3437 56.3189 42.4191 56.2133 42.5398 56.2434C42.6303 56.2887 42.7208 56.4094 42.7208 56.515ZM44.9082 56.6055C44.9082 56.7262 44.8026 56.8167 44.6819 56.8167C44.4556 56.8167 44.3651 56.4999 44.5462 56.3189C44.697 56.1831 44.9082 56.349 44.9082 56.6055ZM30.577 56.5904C30.577 56.7413 30.4111 56.8167 30.049 56.8167C29.687 56.8167 29.521 56.7413 29.521 56.5904C29.521 56.4396 29.687 56.3641 30.049 56.3641C30.4111 56.3641 30.577 56.4396 30.577 56.5904ZM32.2364 56.5904C32.2364 56.7262 32.1007 56.8167 31.8593 56.8167C31.6179 56.8167 31.4822 56.7262 31.4822 56.5904C31.4822 56.4546 31.6179 56.3641 31.8593 56.3641C32.1007 56.3641 32.2364 56.4546 32.2364 56.5904ZM51.3648 56.696C51.41 56.9525 51.1988 56.9675 48.6947 56.9675C46.5224 56.9675 45.9642 56.9223 45.9642 56.7714C45.9642 56.6508 46.0094 56.515 46.0698 56.4546C46.1301 56.4094 47.337 56.3792 48.7399 56.3943C51.048 56.4396 51.3195 56.4697 51.3648 56.696ZM75.8032 56.696C75.7579 56.8318 75.2601 56.9072 74.2041 56.9374C72.7861 56.9675 72.6654 56.9977 72.6654 57.2693C72.6654 57.5559 72.771 57.571 74.2494 57.571C75.5618 57.571 75.8334 57.6162 75.8334 57.7972C75.8334 57.9934 75.5166 58.0235 73.9477 58.0235H72.062V57.2693V56.515H73.9628C75.411 56.515 75.8485 56.5602 75.8032 56.696ZM25.7497 56.8167C25.7497 56.8921 25.6139 56.9675 25.4631 56.9675C25.2971 56.9675 25.1161 56.8921 25.0708 56.8167C25.0105 56.7262 25.1463 56.6658 25.3575 56.6658C25.5687 56.6658 25.7497 56.7262 25.7497 56.8167ZM27.5599 56.8167C27.5599 56.8921 27.4242 56.9675 27.2582 56.9675C27.0923 56.9675 26.9565 56.8921 26.9565 56.8167C26.9565 56.7262 27.0923 56.6658 27.2582 56.6658C27.4242 56.6658 27.5599 56.7262 27.5599 56.8167ZM34.4992 57.7972C34.4992 57.9632 34.3182 58.0235 33.8204 58.0235C33.3226 58.0235 33.1416 57.9632 33.1416 57.7972C33.1416 57.6313 33.3226 57.571 33.8204 57.571C34.3182 57.571 34.4992 57.6313 34.4992 57.7972ZM17.3018 57.8727C17.3018 57.9481 17.1359 58.0235 16.9398 58.0235C16.7588 58.0235 16.1704 58.0688 15.6575 58.114C14.8731 58.2046 14.7373 58.1895 14.7373 57.9632C14.7373 57.752 14.9334 57.7218 16.0196 57.7218C16.7738 57.7218 17.3018 57.7822 17.3018 57.8727ZM32.2364 57.9481C32.2364 58.1291 31.9951 58.1744 30.924 58.1593L29.5965 58.1291L30.5016 57.9481C31.7839 57.6766 32.2364 57.6766 32.2364 57.9481ZM49.7355 58.0235C49.7355 58.3102 49.63 58.3252 48.227 58.3252C46.8241 58.3252 46.7185 58.3102 46.7185 58.0235C46.7185 57.7369 46.8241 57.7218 48.227 57.7218C49.63 57.7218 49.7355 57.7369 49.7355 58.0235ZM27.5599 58.099C27.5599 58.28 27.3186 58.3252 26.2777 58.3252C25.2368 58.3252 24.9954 58.28 24.9954 58.099C24.9954 57.9179 25.2368 57.8727 26.2777 57.8727C27.3186 57.8727 27.5599 57.9179 27.5599 58.099ZM81.6865 57.9632C81.9581 58.0386 82.0184 58.1593 82.0184 58.642C82.0184 59.2756 82.0033 59.3058 81.596 59.0946C81.4603 59.0192 81.234 58.9136 81.0982 58.8834C80.8568 58.808 80.6306 58.114 80.7814 57.9481C80.887 57.8425 81.2641 57.8576 81.6865 57.9632ZM75.8032 58.8834C75.7579 59.1248 75.5468 59.1549 73.9477 59.1549C72.3486 59.1549 72.1374 59.1248 72.0922 58.8834C72.0469 58.6571 72.2129 58.6269 73.9477 58.6269C75.6825 58.6269 75.8485 58.6571 75.8032 58.8834ZM41.2877 64.6611C41.2877 67.9347 41.2274 70.5445 41.1519 70.5445C41.0765 70.5445 40.9407 70.4389 40.8351 70.3182C40.7145 70.1673 40.3675 70.0919 39.7942 70.0919H38.9344L37.3806 68.6588C35.6156 67.0145 35.3139 66.9239 34.4389 67.6933C34.0014 68.0704 33.8053 68.1459 33.2924 68.1006L32.6739 68.0554L33.2924 67.2257L33.9109 66.396L35.5251 66.3205L37.1392 66.2451L37.1845 62.5039L37.2146 58.7778H39.2512H41.2877V64.6611ZM17.3018 59.1549C17.3018 59.336 17.0605 59.3812 16.0196 59.3812C14.9787 59.3812 14.7373 59.336 14.7373 59.1549C14.7373 58.9739 14.9787 58.9287 16.0196 58.9287C17.0605 58.9287 17.3018 58.9739 17.3018 59.1549ZM34.4691 59.1851C34.4389 59.3812 34.2579 59.4717 33.8506 59.5019C33.3678 59.5472 33.2924 59.5019 33.2924 59.2454C33.2924 58.9739 33.3829 58.9287 33.9109 58.9287C34.4087 58.9287 34.5143 58.9739 34.4691 59.1851ZM25.7497 59.5321C25.7497 59.6075 25.5837 59.6829 25.3725 59.6829C25.1614 59.6829 24.9954 59.6075 24.9954 59.5321C24.9954 59.4416 25.1614 59.3812 25.3725 59.3812C25.5837 59.3812 25.7497 59.4416 25.7497 59.5321ZM27.5599 59.5321C27.5599 59.6075 27.4242 59.6829 27.2582 59.6829C27.0923 59.6829 26.9565 59.6075 26.9565 59.5321C26.9565 59.4416 27.0923 59.3812 27.2582 59.3812C27.4242 59.3812 27.5599 59.4416 27.5599 59.5321ZM30.6223 59.4868C30.5167 59.517 30.3055 59.517 30.1697 59.4868C30.0189 59.4416 30.1094 59.4114 30.3507 59.4114C30.6072 59.4114 30.7128 59.4416 30.6223 59.4868ZM49.811 59.698C49.8713 59.7885 49.8864 59.879 49.8713 59.8941C49.8411 59.9243 49.117 59.9846 48.2723 60.0299C46.809 60.1053 46.7185 60.0902 46.7185 59.8187C46.7185 59.5622 46.8391 59.5321 48.2119 59.5321C49.117 59.5321 49.7506 59.5924 49.811 59.698ZM81.1133 63.1526V66.6222H80.2082H79.303V65.7925C79.303 64.9779 79.303 64.9628 79.7556 64.9628H80.2082V63.9823C80.2082 62.866 80.4194 62.9716 78.2471 62.9414L76.9648 62.9263L76.9195 61.2971L76.8743 59.6829H79.0013H81.1133V63.1526ZM75.8334 60.0601C75.8334 60.2562 75.5166 60.2863 73.9477 60.2863C72.3788 60.2863 72.062 60.2562 72.062 60.0601C72.062 59.864 72.3788 59.8338 73.9477 59.8338C75.5166 59.8338 75.8334 59.864 75.8334 60.0601ZM84.2812 59.9846C84.2812 60.0601 84.1153 60.1355 83.9041 60.1355C83.6929 60.1355 83.527 60.0601 83.527 59.9846C83.527 59.8941 83.6929 59.8338 83.9041 59.8338C84.1153 59.8338 84.2812 59.8941 84.2812 59.9846ZM15.4916 63.756V67.5274H15.1144H14.7373V63.8616C14.7373 61.8401 14.7826 60.1355 14.8429 60.0902C14.8882 60.0299 15.0692 59.9846 15.22 59.9846C15.4765 59.9846 15.4916 60.1958 15.4916 63.756ZM54.4875 60.4372C54.2763 60.6635 54.0198 60.7389 53.4013 60.7389C52.7074 60.7389 52.6018 60.7087 52.6018 60.4372C52.6018 60.1657 52.7074 60.1355 53.6879 60.1355C54.7439 60.1355 54.759 60.1355 54.4875 60.4372ZM17.3018 60.4372C17.3018 60.5126 17.1359 60.5881 16.9247 60.5881C16.7135 60.5881 16.5476 60.5126 16.5476 60.4372C16.5476 60.3467 16.7135 60.2863 16.9247 60.2863C17.1359 60.2863 17.3018 60.3467 17.3018 60.4372ZM33.5639 60.5428C33.4885 60.9199 33.1416 60.9652 33.1416 60.6031C33.1416 60.4221 33.2321 60.2863 33.3829 60.2863C33.5187 60.2863 33.5941 60.3919 33.5639 60.5428ZM34.4691 60.5428C34.3936 60.935 33.8958 60.9803 33.8958 60.6031C33.8958 60.3769 33.9863 60.2863 34.2126 60.2863C34.4238 60.2863 34.4992 60.3618 34.4691 60.5428ZM31.105 60.6635C31.105 60.8294 30.0641 60.9501 29.7172 60.8294C29.5965 60.7842 29.5512 60.6635 29.5965 60.5881C29.7172 60.3769 31.105 60.4523 31.105 60.6635ZM32.2364 60.6635C32.2364 60.7842 32.1007 60.8898 31.9347 60.8898C31.7688 60.8898 31.633 60.7842 31.633 60.6635C31.633 60.5428 31.7688 60.4372 31.9347 60.4372C32.1007 60.4372 32.2364 60.5428 32.2364 60.6635ZM44.2897 60.7992C44.5763 61.1462 44.4406 62.8509 44.1238 63.0621C43.6109 63.3789 43.3242 63.0017 43.279 61.9608C43.2337 60.9652 43.3846 60.5881 43.8522 60.5881C44.0031 60.5881 44.1992 60.6786 44.2897 60.7992ZM25.7497 60.8898C25.7497 60.9652 25.5837 61.0406 25.3725 61.0406C25.1614 61.0406 24.9954 60.9652 24.9954 60.8898C24.9954 60.7992 25.1614 60.7389 25.3725 60.7389C25.5837 60.7389 25.7497 60.7992 25.7497 60.8898ZM27.5599 60.8898C27.5599 60.9652 27.4242 61.0406 27.2582 61.0406C27.0923 61.0406 26.9565 60.9652 26.9565 60.8898C26.9565 60.7992 27.0923 60.7389 27.2582 60.7389C27.4242 60.7389 27.5599 60.7992 27.5599 60.8898ZM74.4757 61.1915C74.4757 61.4479 74.3701 61.4932 73.8723 61.4932C73.3745 61.4932 73.2689 61.4479 73.2689 61.1915C73.2689 60.935 73.3745 60.8898 73.8723 60.8898C74.3701 60.8898 74.4757 60.935 74.4757 61.1915ZM48.6494 61.2216C48.6041 61.3423 48.227 61.4328 47.6538 61.463C46.8844 61.4932 46.7185 61.463 46.7185 61.2669C46.7185 61.0859 46.9146 61.0406 47.7141 61.0406C48.4382 61.0406 48.6947 61.0859 48.6494 61.2216ZM84.2812 61.2669C84.2812 61.4027 84.1455 61.4932 83.9041 61.4932C83.6627 61.4932 83.527 61.4027 83.527 61.2669C83.527 61.1311 83.6627 61.0406 83.9041 61.0406C84.1455 61.0406 84.2812 61.1311 84.2812 61.2669ZM53.9595 61.644C53.9595 61.9307 53.8539 61.9457 52.3755 61.9457C50.8971 61.9457 50.7915 61.9307 50.7915 61.644C50.7915 61.3574 50.8971 61.3423 52.3755 61.3423C53.8539 61.3423 53.9595 61.3574 53.9595 61.644ZM55.8904 61.6742C55.7848 61.9608 55.3172 62.0061 55.3172 61.7345C55.3172 61.5837 55.4529 61.4932 55.634 61.4932C55.815 61.4932 55.9206 61.5686 55.8904 61.6742ZM17.3018 61.7949C17.3018 61.8703 17.1661 61.9457 17.0152 61.9457C16.8493 61.9457 16.6682 61.8703 16.623 61.7949C16.5626 61.7044 16.6984 61.644 16.9096 61.644C17.1208 61.644 17.3018 61.7044 17.3018 61.7949ZM34.4691 61.9005C34.4992 62.0363 34.3182 62.0966 33.8355 62.0966C33.1868 62.0966 33.0058 61.991 33.2472 61.7345C33.4282 61.5686 34.3936 61.7044 34.4691 61.9005ZM32.2364 62.0212C32.2364 62.2022 31.98 62.2475 30.8787 62.2475C29.7775 62.2475 29.521 62.2022 29.521 62.0212C29.521 61.8401 29.7775 61.7949 30.8787 61.7949C31.98 61.7949 32.2364 61.8401 32.2364 62.0212ZM25.7497 62.2475C25.7497 62.3229 25.5837 62.3983 25.3725 62.3983C25.1614 62.3983 24.9954 62.3229 24.9954 62.2475C24.9954 62.1569 25.1614 62.0966 25.3725 62.0966C25.5837 62.0966 25.7497 62.1569 25.7497 62.2475ZM27.5599 62.2475C27.5599 62.3229 27.4242 62.3983 27.2733 62.3983C27.1074 62.3983 26.9263 62.3229 26.8811 62.2475C26.8208 62.1569 26.9565 62.0966 27.1677 62.0966C27.3789 62.0966 27.5599 62.1569 27.5599 62.2475ZM84.2511 62.5039C84.2812 62.6246 84.1605 62.7 83.9192 62.7C83.6627 62.7 83.527 62.6246 83.527 62.4586C83.527 62.172 84.1455 62.2173 84.2511 62.5039ZM47.4727 62.6246C47.4727 62.7604 47.337 62.8509 47.0956 62.8509C46.8542 62.8509 46.7185 62.7604 46.7185 62.6246C46.7185 62.4888 46.8542 62.3983 47.0956 62.3983C47.337 62.3983 47.4727 62.4888 47.4727 62.6246ZM72.8163 62.6849C72.8163 62.8509 71.9112 63.0017 70.9004 63.0017C69.7992 63.0017 69.769 63.2582 70.8552 63.3789C71.8508 63.4995 72.0771 63.8013 71.2927 63.9672C71.0362 64.0125 68.2756 64.0577 65.168 64.0577H59.526L59.5713 63.7107C59.6165 63.3789 59.6316 63.3789 62.9353 63.3034C66.239 63.228 66.2541 63.228 66.2994 62.881L66.3446 62.5492H69.588C71.3681 62.5492 72.8163 62.6095 72.8163 62.6849ZM51.5458 63.0772C51.5458 63.3185 51.4553 63.4543 51.3195 63.4543C51.1536 63.4543 51.0932 63.6202 51.0932 64.0577C51.0932 64.646 51.0782 64.6611 50.5653 64.6611H50.0373V63.6806V62.7H50.7915C51.5005 62.7 51.5458 62.7302 51.5458 63.0772ZM54.6383 63.756V64.7366H54.1103C53.5974 64.7366 53.5823 64.7215 53.5371 64.0879C53.4918 63.575 53.4315 63.4543 53.1901 63.4543C52.8281 63.4543 52.7979 62.8961 53.175 62.8056C53.3108 62.7604 53.703 62.7453 54.0349 62.7453L54.6383 62.7754V63.756ZM17.3018 63.0017C17.3018 63.0772 17.1359 63.1526 16.9247 63.1526C16.7135 63.1526 16.5476 63.0772 16.5476 63.0017C16.5476 62.9112 16.7135 62.8509 16.9247 62.8509C17.1359 62.8509 17.3018 62.9112 17.3018 63.0017ZM32.2364 63.228C32.2364 63.3789 32.0856 63.4543 31.7839 63.4543C31.4822 63.4543 31.3313 63.3789 31.3313 63.228C31.3313 63.0772 31.4822 63.0017 31.7839 63.0017C32.0856 63.0017 32.2364 63.0772 32.2364 63.228ZM34.4992 63.228C34.4992 63.3939 34.3182 63.4543 33.8204 63.4543C33.3226 63.4543 33.1416 63.3939 33.1416 63.228C33.1416 63.0621 33.3226 63.0017 33.8204 63.0017C34.3182 63.0017 34.4992 63.0621 34.4992 63.228ZM25.7497 63.6051C25.7497 63.6806 25.5837 63.756 25.3725 63.756C25.1614 63.756 24.9954 63.6806 24.9954 63.6051C24.9954 63.5146 25.1614 63.4543 25.3725 63.4543C25.5837 63.4543 25.7497 63.5146 25.7497 63.6051ZM84.2511 63.937C84.2058 64.0426 84.0549 64.1331 83.9041 64.1331C83.7532 64.1331 83.6024 64.0426 83.5722 63.937C83.527 63.8314 83.6476 63.756 83.9041 63.756C84.1605 63.756 84.2812 63.8314 84.2511 63.937ZM17.3018 64.3594C17.3018 64.4348 17.1661 64.5103 17.0152 64.5103C16.8493 64.5103 16.6682 64.4348 16.623 64.3594C16.5626 64.2689 16.6984 64.2086 16.9096 64.2086C17.1208 64.2086 17.3018 64.2689 17.3018 64.3594ZM31.1804 64.6159C31.1804 64.6762 30.924 64.9779 30.6223 65.2947C30.0189 65.9132 29.5512 66.0792 29.8228 65.5813C30.034 65.1589 30.0189 65.1137 29.6266 65.1137C29.4305 65.1137 29.1137 65.2796 28.9176 65.4908C28.4802 65.9585 28.0728 66.0188 28.3142 65.5813C28.5405 65.1589 28.5103 65.1137 28.0276 65.1137C27.7259 65.1137 27.4845 65.2495 27.2733 65.5059C27.0621 65.7774 26.8509 65.868 26.5794 65.8378L26.1872 65.7925L26.7302 65.1439L27.2884 64.5103H29.2344C30.3055 64.5103 31.1804 64.5555 31.1804 64.6159ZM47.2465 64.6611C47.2012 64.7366 47.0202 64.812 46.8542 64.812C46.7034 64.812 46.5676 64.7366 46.5676 64.6611C46.5676 64.5706 46.7486 64.5103 46.9598 64.5103C47.171 64.5103 47.3068 64.5706 47.2465 64.6611ZM34.3484 64.8874C34.3484 65.174 34.2126 65.174 33.8355 64.8874C33.5489 64.6762 33.5489 64.6611 33.9411 64.6611C34.1975 64.6611 34.3484 64.7366 34.3484 64.8874ZM69.9501 66.5468V68.1308H69.4975H69.0449V67.0748V66.0188H68.5169H67.9889V66.7731V67.5274H67.461H66.933V66.7731C66.933 66.0339 66.9179 66.0188 66.4804 66.0188C66.0429 66.0188 66.0278 66.0339 66.0278 66.7731C66.0278 67.5123 66.0128 67.5274 65.5753 67.5274C65.1378 67.5274 65.1227 67.5123 65.1227 66.7731C65.1227 66.0339 65.1076 66.0188 64.6701 66.0188C64.2327 66.0188 64.2176 66.0339 64.2176 66.7731V67.5274H63.3125H62.4073V67.0145C62.4073 66.23 62.2716 66.0188 61.7888 66.0188H61.3513V67.3011V68.5833H65.6507H69.9501V70.1673V71.7513H69.4975H69.0449V70.6199V69.4885H68.5169H67.9889V70.3182V71.1479H67.461H66.933V70.3182C66.933 69.5036 66.933 69.4885 66.4804 69.4885C66.0278 69.4885 66.0278 69.5036 66.0278 70.3182C66.0278 71.1328 66.0278 71.1479 65.5753 71.1479C65.1227 71.1479 65.1227 71.1328 65.1227 70.3182V69.4885H64.1422H63.1616V70.3333C63.1616 71.1479 63.1616 71.163 62.7543 71.1177C62.3621 71.0724 62.3319 71.0272 62.2866 70.2729C62.2414 69.5036 62.2263 69.4734 61.8341 69.5186C61.4419 69.5639 61.4268 69.5941 61.3815 70.7255L61.3363 71.9021H60.8234H60.2954V70.7707V69.6393H59.7674H59.2394V70.3936V71.1479H58.7265H58.1985L58.1532 70.3483C58.108 69.5941 58.0929 69.5639 57.6554 69.5639C57.233 69.5639 57.2029 69.6092 57.1576 70.1975L57.1123 70.8462L56.4033 69.8958C55.8452 69.1566 55.5736 68.9303 55.1211 68.8247C54.5931 68.6889 54.5629 68.6437 54.5629 68.1006V67.5274H57.0671C59.3601 67.5274 59.5562 67.5424 59.5109 67.7838C59.4657 68.0101 59.2545 68.0554 58.0325 68.1006C56.6296 68.1459 55.9809 68.342 56.4033 68.5984C56.5089 68.6739 57.4291 68.7342 58.4549 68.7342H60.2954V66.9541C60.2954 65.9736 60.3406 65.1137 60.401 65.0684C60.4462 65.0081 62.6185 64.9628 65.2283 64.9628H69.9501V66.5468ZM84.2812 65.1891C84.2812 65.3249 84.1455 65.4154 83.9041 65.4154C83.6627 65.4154 83.527 65.3249 83.527 65.1891C83.527 65.0533 83.6627 64.9628 83.9041 64.9628C84.1455 64.9628 84.2812 65.0533 84.2812 65.1891ZM17.2264 65.5663C17.2867 65.6568 17.151 65.7171 16.9247 65.7171C16.6984 65.7171 16.5626 65.6568 16.623 65.5663C16.6682 65.4757 16.804 65.4154 16.9247 65.4154C17.0454 65.4154 17.1811 65.4757 17.2264 65.5663ZM73.4197 66.4714V67.5274H72.9671H72.5146V66.4714V65.4154H72.9671H73.4197V66.4714ZM76.5877 66.4714V67.5274H76.1351H75.6825V66.4714V65.4154H76.1351H76.5877V66.4714ZM50.6407 66.0188C50.6407 66.4563 50.6105 66.4714 49.9618 66.4714C49.3132 66.4714 49.283 66.4563 49.283 66.0188C49.283 65.5813 49.3132 65.5663 49.9618 65.5663C50.6105 65.5663 50.6407 65.5813 50.6407 66.0188ZM53.0845 65.9434C53.1901 66.4261 53.1147 66.4714 52.4208 66.4714C51.8777 66.4714 51.8475 66.4412 51.8475 66.0188C51.8475 65.5964 51.8777 65.5663 52.4358 65.5663C52.9337 65.5663 53.0242 65.6115 53.0845 65.9434ZM86.3932 66.4714C86.2574 66.7429 86.0764 66.7731 84.8847 66.7731C83.6326 66.7731 83.527 66.758 83.527 66.4714C83.527 66.1848 83.6326 66.1697 85.0355 66.1697C86.5139 66.1697 86.5441 66.1848 86.3932 66.4714ZM17.9052 67.3765C17.9052 67.9498 17.8751 67.9799 17.4527 67.9799C17.0755 67.9799 17.0001 67.9196 17.0001 67.6179C17.0001 67.286 17.4829 66.7731 17.7846 66.7731C17.86 66.7731 17.9052 67.0446 17.9052 67.3765ZM29.8228 67.0748C29.8228 67.3614 29.7172 67.3765 26.8811 67.3765C24.045 67.3765 23.9394 67.3614 23.9394 67.0748C23.9394 66.7882 24.045 66.7731 26.8811 66.7731C29.7172 66.7731 29.8228 66.7882 29.8228 67.0748ZM50.6407 68.0554C50.6407 68.523 50.5954 68.5833 50.2635 68.5833C49.9317 68.5833 49.8864 68.523 49.8864 68.0554C49.8864 67.5877 49.9317 67.5274 50.2635 67.5274C50.5954 67.5274 50.6407 67.5877 50.6407 68.0554ZM53.0543 68.0554C53.0543 68.5683 53.0393 68.5833 52.4509 68.5833C51.8928 68.5833 51.8475 68.5532 51.8475 68.1609C51.8475 67.6028 51.938 67.5274 52.5565 67.5274C53.0242 67.5274 53.0543 67.5575 53.0543 68.0554ZM85.9406 67.5877C85.9406 67.8894 85.6993 68.1308 85.4126 68.1308C85.0204 68.1308 84.8092 67.9196 84.9601 67.6782C85.0506 67.5424 85.9406 67.4519 85.9406 67.5877ZM87.9621 67.8592C88.309 68.3571 88.2638 68.4325 87.6 68.4325C87.1173 68.4325 86.9966 68.3721 86.9966 68.1609C86.9966 67.8442 87.2682 67.5274 87.5397 67.5274C87.6453 67.5274 87.8414 67.6782 87.9621 67.8592ZM24.7691 68.5984C24.7691 68.8247 24.6635 68.9756 24.4976 69.0057C24.1657 69.0661 23.9998 68.6437 24.2411 68.3571C24.5127 68.0403 24.7691 68.1609 24.7691 68.5984ZM26.4285 68.4325C26.5492 68.7945 26.4134 69.0359 26.1117 69.0359C25.8553 69.0359 25.6893 68.6739 25.81 68.3571C25.9307 68.0252 26.3229 68.0855 26.4285 68.4325ZM28.0125 68.3571C28.2539 68.6437 28.103 69.0359 27.7259 69.0359C27.3789 69.0359 27.1979 68.6135 27.4242 68.342C27.6505 68.0704 27.7862 68.0704 28.0125 68.3571ZM29.6417 68.2665C29.9284 68.4325 29.8077 68.9454 29.4758 69.0057C29.1892 69.0661 28.9931 68.704 29.1288 68.3571C29.2193 68.1006 29.3551 68.0704 29.6417 68.2665ZM37.0487 69.6092L38.5723 71.0272V72.9732V74.9192H38.1952H37.818L37.803 73.2146L37.7879 71.525L36.219 70.107C34.7255 68.7493 34.6652 68.6588 34.9066 68.4023C35.0423 68.2515 35.2384 68.1459 35.344 68.1609C35.4496 68.1911 36.219 68.8398 37.0487 69.6092ZM16.8945 69.3678C17.7242 70.4087 17.7544 70.5143 17.7544 72.7922C17.7544 74.8136 17.7393 74.9192 17.4527 74.9192C17.1661 74.9192 17.151 74.8136 17.151 73.1241C17.151 71.7362 17.1057 71.3138 16.9398 71.2535C16.5174 71.0875 16.3967 71.5099 16.3967 73.2146C16.3967 74.8136 16.3816 74.9192 16.095 74.9192C15.8084 74.9192 15.7933 74.8136 15.7933 73.0939C15.7933 71.2987 15.7933 71.2836 15.4614 71.3289C15.1295 71.3742 15.1144 71.4345 15.0692 73.1391C15.039 74.7985 15.0088 74.9192 14.7373 74.9192C14.4507 74.9192 14.4356 74.8136 14.4356 72.8978C14.4356 70.9819 14.4507 70.8612 14.8278 70.3031C15.2804 69.6393 16.095 68.7342 16.2609 68.7342C16.3213 68.7342 16.6079 69.0208 16.8945 69.3678ZM33.1416 68.7795C33.1416 68.8096 32.9756 68.9906 32.7644 69.1868L32.3873 69.5337V69.1415C32.3873 68.8096 32.4627 68.7342 32.7644 68.7342C32.9756 68.7342 33.1416 68.7493 33.1416 68.7795ZM73.4197 70.0165V71.1479H72.9671H72.5146V70.0165V68.8851H72.9671H73.4197V70.0165ZM76.5575 70.0466L76.6027 71.1479H76.1351H75.6825V70.0014V68.87L76.1049 68.9152C76.4971 68.9605 76.5122 68.9906 76.5575 70.0466ZM80.178 70.0466L80.2232 71.1479H79.6802H79.1522V70.1221C79.1522 69.5488 79.1974 69.0359 79.2578 68.9756C79.3181 68.9152 79.5444 68.8851 79.7556 68.9152C80.1176 68.9605 80.1327 69.0057 80.178 70.0466ZM83.4515 69.5337C83.5119 69.8053 83.527 70.2729 83.4968 70.5595C83.4515 71.0121 83.3912 71.0724 82.9688 71.1177L82.471 71.163V70.107V69.0359H82.9235C83.3007 69.0359 83.3761 69.0962 83.4515 69.5337ZM36.3095 73.2146V74.9192H35.8569H35.4044V73.5615V72.2039H34.0467H32.689V73.5615V74.9192H32.2364H31.7839V73.1241V71.3289L32.8549 70.3333L33.9411 69.3527L35.1177 70.4389L36.3095 71.525V73.2146ZM12.9271 69.941C12.9271 70.288 12.8667 70.3936 12.6253 70.3936C12.384 70.3936 12.3236 70.288 12.3236 69.941C12.3236 69.5941 12.384 69.4885 12.6253 69.4885C12.8667 69.4885 12.9271 69.5941 12.9271 69.941ZM29.8228 70.8462C29.8228 72.1888 29.8228 72.2039 29.4456 72.2039C29.0836 72.2039 29.0685 72.1586 29.0685 71.3742C29.0685 70.5595 29.0685 70.5445 28.6159 70.5445C28.1634 70.5445 28.1634 70.5595 28.1634 71.3742C28.1634 72.1586 28.1483 72.2039 27.7862 72.2039C27.4242 72.2039 27.4091 72.1586 27.4091 71.3742C27.4091 70.5595 27.4091 70.5445 26.9565 70.5445C26.504 70.5445 26.504 70.5595 26.504 71.3742C26.504 72.1586 26.4889 72.2039 26.1419 72.2039C25.7949 72.2039 25.7648 72.1435 25.7195 71.4043C25.6743 70.6802 25.6441 70.6199 25.267 70.5746C24.8446 70.5294 24.8446 70.5445 24.8446 71.3591C24.8446 72.1586 24.8295 72.2039 24.4674 72.2039C24.0903 72.2039 24.0903 72.1888 24.0903 70.8462V69.4885H26.9565H29.8228V70.8462ZM87.9017 70.469V71.4496H87.4492H86.9966V70.469V69.4885H87.4492H87.9017V70.469ZM20.9978 69.941C21.1185 69.941 21.4503 70.1522 21.752 70.4087L22.2951 70.8914L22.2499 72.8676C22.2046 74.7231 22.1895 74.8438 21.9029 74.8438C21.6163 74.8438 21.6012 74.7231 21.5559 73.109C21.5107 71.3742 21.39 70.9819 20.9676 71.3289C20.8318 71.4345 20.7715 71.9927 20.7715 73.1995C20.7715 74.8136 20.7564 74.9192 20.4698 74.9192C20.1832 74.9192 20.1681 74.8136 20.1681 73.0939C20.1681 71.2987 20.1681 71.2836 19.8362 71.3289C19.5043 71.3742 19.4892 71.4345 19.444 73.1391C19.4138 74.7985 19.3836 74.9192 19.1121 74.9192C18.8255 74.9192 18.8104 74.8136 18.8104 72.8374C18.8104 70.8311 18.8255 70.7406 19.1724 70.4087C19.5496 70.0466 20.2737 69.7751 20.5905 69.8807C20.7111 69.9109 20.8922 69.941 20.9978 69.941ZM48.3175 70.7255C50.2032 72.6715 50.339 72.8978 50.339 73.9688C50.339 74.9343 50.339 74.9343 49.9317 74.8891C49.5244 74.8438 49.5093 74.8136 49.464 73.8632C49.4338 73.0788 49.3584 72.8224 49.117 72.6112C48.7097 72.2793 48.4533 72.2793 48.0762 72.6564C47.8348 72.8978 47.7744 73.1542 47.7744 73.9387V74.9192H47.2465H46.7185V73.8783C46.7185 72.9581 46.6732 72.7922 46.3866 72.5961C45.934 72.2793 45.7228 72.2944 45.3608 72.6564C45.1194 72.8978 45.0591 73.1542 45.0591 73.9387C45.0591 74.8891 45.044 74.9192 44.6819 74.9192C44.3199 74.9192 44.3048 74.8891 44.3048 73.9688C44.3048 73.1391 44.3651 72.928 44.7423 72.415C45.3759 71.5853 47.0956 69.7902 47.2615 69.7902C47.337 69.7902 47.8197 70.2126 48.3175 70.7255ZM12.9271 72.053C12.9271 72.4 12.8667 72.5056 12.6253 72.5056C12.384 72.5056 12.3236 72.4 12.3236 72.053C12.3236 71.706 12.384 71.6004 12.6253 71.6004C12.8667 71.6004 12.9271 71.706 12.9271 72.053ZM69.9501 73.4861C69.9501 74.1951 69.9048 74.7684 69.8294 74.7684C69.769 74.7684 69.5427 74.3158 69.3316 73.7426C69.0298 72.9883 68.8488 72.7168 68.6225 72.6866C68.351 72.6413 68.2605 72.7922 67.9739 73.7727C67.6872 74.7835 67.5967 74.9192 67.2799 74.9192C66.948 74.9192 66.933 74.8589 66.933 74.0141C66.933 73.109 66.933 73.109 66.4804 73.109C66.058 73.109 66.0429 73.1241 65.9977 73.9688C65.9524 74.8287 65.9524 74.8438 65.4697 74.8891L64.9719 74.9343V73.9538C64.9719 73.4107 64.9266 72.943 64.8663 72.9129C64.7908 72.8676 64.3534 72.8827 63.8857 72.9129L63.0107 72.9883V73.9538C63.0107 74.8136 62.9806 74.9192 62.709 74.9192C62.4375 74.9192 62.4073 74.8136 62.4073 74.0141C62.4073 73.109 62.4073 73.109 61.9548 73.109C61.5324 73.109 61.5173 73.1241 61.472 73.9688L61.4268 74.8438L60.8686 74.8891L60.2954 74.9343V74.0292V73.109H59.6919H59.0885V74.0141V74.9192H58.4851H57.8817V73.5615V72.2039H63.9159H69.9501V73.4861ZM73.4197 73.7275V74.9343L72.937 74.8891L72.4392 74.8438L72.3939 73.8783C72.3336 72.6564 72.3939 72.5056 72.9671 72.5056H73.4197V73.7275ZM76.5877 73.7124V74.9192H76.1351H75.6825V73.7124V72.5056H76.1351H76.5877V73.7124ZM80.1327 73.7124V74.8438L79.65 74.8891L79.1522 74.9343V73.818C79.1522 73.2146 79.1974 72.6564 79.2578 72.5961C79.3181 72.5357 79.5444 72.5056 79.7556 72.5357C80.1176 72.581 80.1327 72.6112 80.1327 73.7124ZM83.4515 73.7124V74.8438L82.9688 74.8891L82.471 74.9343V73.7124V72.4905L82.9688 72.5357L83.4515 72.581V73.7124ZM87.9017 73.7878V74.9192H87.4492H86.9966V73.7878V72.6564H87.4492H87.9017V73.7878ZM29.8228 73.9387C29.8228 74.8891 29.8077 74.9192 29.4456 74.9192C29.1137 74.9192 29.0685 74.8589 29.0685 74.3912C29.0685 73.9085 29.0383 73.8632 28.6159 73.8632C28.1935 73.8632 28.1634 73.9085 28.1634 74.3912C28.1634 74.8589 28.1181 74.9192 27.7862 74.9192C27.4543 74.9192 27.4091 74.8589 27.4091 74.3912C27.4091 73.9085 27.3789 73.8632 26.9565 73.8632C26.5341 73.8632 26.504 73.9085 26.504 74.3912C26.504 74.8438 26.4587 74.9192 26.1419 74.9192C25.8553 74.9192 25.7648 74.8136 25.6893 74.3912C25.5988 73.9688 25.5234 73.8632 25.2217 73.8632C24.9351 73.8632 24.8596 73.9538 24.8144 74.346C24.7842 74.7231 24.6937 74.8589 24.4523 74.8891C24.1657 74.9343 24.1205 74.8438 24.0299 74.1046C23.9696 73.637 23.9545 73.1995 24.0149 73.109C24.0752 73.0185 25.1915 72.9581 26.9716 72.9581H29.8228V73.9387ZM52.6621 73.1542C52.8582 73.3051 52.9186 73.5163 52.8733 74.0895C52.8281 74.8438 52.8281 74.8438 52.3001 74.8438C51.7721 74.8438 51.7721 74.8438 51.7268 74.1197C51.6967 73.5465 51.7419 73.3353 51.9531 73.1693C52.3001 72.9129 52.3302 72.9129 52.6621 73.1542ZM55.1512 73.1693C55.2568 73.29 55.3172 73.7124 55.287 74.1197C55.2417 74.8136 55.2267 74.8438 54.7892 74.8438C54.3668 74.8438 54.3366 74.7985 54.2914 74.18C54.2612 73.7275 54.3215 73.4409 54.5026 73.2447C54.8043 72.8978 54.9249 72.8827 55.1512 73.1693ZM12.9271 74.3158C12.9271 74.8136 12.8818 74.9192 12.6253 74.9192C12.3689 74.9192 12.3236 74.8136 12.3236 74.3158C12.3236 73.818 12.3689 73.7124 12.6253 73.7124C12.8818 73.7124 12.9271 73.818 12.9271 74.3158ZM68.4415 77.4838V80.1991H68.0191C67.7777 80.1991 67.5515 80.169 67.5062 80.1237C67.461 80.0785 67.5364 79.475 67.6872 78.7962C67.8381 78.1173 68.0493 76.9256 68.1549 76.1562C68.2454 75.402 68.351 74.7684 68.3812 74.7684C68.4113 74.7684 68.4415 75.9903 68.4415 77.4838ZM71.881 81.059C71.9262 81.2099 71.6396 81.2551 70.7948 81.2551C69.8595 81.2551 69.6483 81.2099 69.6483 81.0288C69.6483 80.8327 69.8294 80.8026 70.7345 80.8327C71.4284 80.8629 71.8357 80.9383 71.881 81.059Z" fill="#A1987B"/>
<path d="M66.5105 33.5549L66.5558 37.8241L67.7626 38.4728C70.7043 40.0416 72.5598 40.9769 72.6051 40.9317C72.6352 40.9015 72.2732 40.1774 71.7904 39.3025C71.3077 38.4426 69.9802 35.8931 68.8337 33.6605C67.6872 31.4128 66.6916 29.5271 66.6161 29.4366C66.5256 29.3611 66.4955 31.0507 66.5105 33.5549Z" fill="#A1987B"/>
<path d="M66.0579 29.693C65.9825 29.7986 65.0774 31.4882 64.0666 33.4342C63.0408 35.3802 61.7435 37.8543 61.1702 38.9253C60.597 39.9964 60.1746 40.9015 60.2048 40.9468C60.3556 41.0825 61.653 38.8499 63.4934 35.3199C65.9825 30.5529 66.7519 28.8482 66.0579 29.693Z" fill="#A1987B"/>
<path d="M66.1032 38.0956C66.0127 38.171 65.0321 38.7141 63.9158 39.3175C62.7995 39.9209 61.5021 40.6149 61.0495 40.8864L60.2198 41.3541L60.9741 41.4597C62.015 41.5954 72.077 41.5803 72.424 41.4446C72.7559 41.3239 72.424 41.1127 68.8186 39.2421C67.7475 38.6839 66.7971 38.1559 66.7217 38.0956C66.5256 37.9297 66.2842 37.9297 66.1032 38.0956Z" fill="#A1987B"/>
<path d="M61.0497 42.4403C60.2653 42.9833 60.0239 43.7074 60.3558 44.522C60.748 45.4573 62.0755 45.9099 62.6639 45.3065C63.041 44.9294 62.7544 44.5371 62.1208 44.5371C61.4419 44.522 61.1251 44.0695 61.3967 43.5415C61.5626 43.2398 61.6984 43.1644 62.1359 43.1945C62.5733 43.2247 62.694 43.1644 62.7695 42.8928C62.9505 42.2291 61.7889 41.9274 61.0497 42.4403Z" fill="#A1987B"/>
<path d="M64.474 42.2743C64.4137 42.3347 64.3684 42.5458 64.3684 42.742C64.3684 42.9833 64.4589 43.0889 64.6701 43.0889C64.9266 43.0889 64.9567 43.2096 65.002 44.2505L65.0473 45.4272H65.4998H65.9524L65.9976 44.2505C66.0429 43.1342 66.058 43.0889 66.4049 43.0889C66.7368 43.0889 66.7519 43.1342 66.6312 43.451C66.1787 44.6427 67.6721 46.0004 68.894 45.5026C69.422 45.2763 69.5276 45.05 69.4069 44.2807C69.3164 43.7074 69.2863 43.6923 68.7281 43.6923C68.2001 43.6923 68.1398 43.7376 68.1398 44.0695C68.1398 44.3108 68.2303 44.4466 68.3661 44.4466C68.4867 44.4466 68.5923 44.507 68.5923 44.5975C68.5923 44.8539 68.1549 44.7634 67.8381 44.4466C67.2196 43.8281 67.6872 43.0286 68.6225 43.1191C69.0449 43.1644 69.1203 43.1191 69.1656 42.8023C69.2712 42.1084 68.2152 41.9575 67.3402 42.5458L66.7972 42.923L66.7519 42.5911C66.7067 42.2894 66.6011 42.2592 65.6507 42.214C65.0623 42.1989 64.5343 42.214 64.474 42.2743Z" fill="#A1987B"/>
<path d="M70.3724 42.4252C69.8293 42.7118 69.6483 43.0738 69.6483 43.9186C69.6483 44.4919 69.7237 44.7031 70.0858 45.0651C70.7194 45.6836 71.6999 45.6836 72.3939 45.0651C72.8313 44.6729 72.8917 44.5371 72.8766 43.9035C72.8615 43.285 72.7861 43.1191 72.3184 42.6816C71.6999 42.1235 71.0663 42.0329 70.3724 42.4252ZM71.4435 43.2398C71.8206 43.4359 71.9262 43.7678 71.7603 44.2203C71.6094 44.6276 71.0513 44.7332 70.7345 44.4164C70.478 44.16 70.5082 43.6018 70.7948 43.3303C71.0663 43.0437 71.0965 43.0437 71.4435 43.2398Z" fill="#A1987B"/>
<path d="M63.1615 43.9186V45.5026H63.6141H64.0666V43.9186V42.3346H63.6141H63.1615V43.9186Z" fill="#A1987B"/>
<path d="M45.0591 34.264C45.0591 34.4299 45.2401 34.4902 45.7379 34.4902C46.2357 34.4902 46.4168 34.4299 46.4168 34.264C46.4168 34.098 46.2357 34.0377 45.7379 34.0377C45.2401 34.0377 45.0591 34.098 45.0591 34.264Z" fill="#A1987B"/>
<path d="M47.0203 36.753C47.0203 36.9189 47.0957 37.0547 47.1711 37.0547C47.2616 37.0547 47.322 36.9189 47.322 36.753C47.322 36.587 47.2616 36.4513 47.1711 36.4513C47.0957 36.4513 47.0203 36.587 47.0203 36.753Z" fill="#A1987B"/>
<path d="M45.0591 37.9598C45.0591 38.2163 45.1647 38.2615 45.7379 38.2615C46.3112 38.2615 46.4168 38.2163 46.4168 37.9598C46.4168 37.7034 46.3112 37.6581 45.7379 37.6581C45.1647 37.6581 45.0591 37.7034 45.0591 37.9598Z" fill="#A1987B"/>
<path d="M45.1495 43.979C45.0892 44.0544 45.1194 44.16 45.1948 44.2052C45.2702 44.2656 45.3758 44.2354 45.4211 44.16C45.4814 44.0846 45.4512 43.979 45.3758 43.9337C45.3004 43.8734 45.1948 43.9035 45.1495 43.979Z" fill="#A1987B"/>
<path d="M45.9641 44.0695C45.9641 44.1901 46.0395 44.2957 46.115 44.2957C46.2055 44.2957 46.2658 44.1901 46.2658 44.0695C46.2658 43.9488 46.2055 43.8432 46.115 43.8432C46.0395 43.8432 45.9641 43.9488 45.9641 44.0695Z" fill="#A1987B"/>
<path d="M44.9685 46.2719C44.8026 46.5435 45.1496 46.7396 45.753 46.6793C46.1603 46.6491 46.3564 46.5586 46.3866 46.3625C46.4318 46.1513 46.3262 46.106 45.753 46.106C45.3759 46.106 45.0289 46.1814 44.9685 46.2719Z" fill="#A1987B"/>
<path d="M47.9554 47.5241C47.9705 47.6749 48.0761 47.7805 48.1515 47.7805C48.3778 47.7654 48.3325 47.4185 48.1063 47.343C47.9705 47.2978 47.9102 47.3732 47.9554 47.5241Z" fill="#A1987B"/>
<path d="M47.0203 47.5994C47.0203 47.69 47.0957 47.7956 47.1711 47.8408C47.2616 47.8861 47.322 47.8257 47.322 47.705C47.322 47.5693 47.2616 47.4637 47.1711 47.4637C47.0957 47.4637 47.0203 47.524 47.0203 47.5994Z" fill="#A1987B"/>
<path d="M73.827 50.2695C73.5706 50.526 73.7516 50.7824 74.1891 50.7824C74.5511 50.7824 74.6416 50.7221 74.5964 50.5109C74.5511 50.2544 74.0231 50.0734 73.827 50.2695Z" fill="#A1987B"/>
<path d="M39.7037 53.1358C39.4774 53.3772 39.402 54.2069 39.5679 54.8103C39.6283 55.0517 39.7791 55.1573 40.0205 55.1573C40.3674 55.1573 40.3825 55.112 40.3825 54.1164C40.3825 53 40.1563 52.6832 39.7037 53.1358Z" fill="#A1987B"/>
<path d="M38.3007 60.0148C38.18 60.1355 38.1197 60.8596 38.1197 62.2776V64.3594H38.4817H38.8589L38.9041 62.3078C38.9494 59.9846 38.8287 59.4868 38.3007 60.0148Z" fill="#A1987B"/>
<path d="M39.6584 59.9544C39.5227 60.06 39.4774 60.6031 39.5076 62.1871C39.5528 64.2387 39.5528 64.2839 39.8998 64.3292L40.2468 64.3745L40.2015 62.1569C40.1563 59.9846 40.0808 59.698 39.6584 59.9544Z" fill="#A1987B"/>
<path d="M38.331 66.9843C38.2857 67.0899 38.2706 67.4821 38.3008 67.8442C38.331 68.3873 38.4064 68.5079 38.6478 68.5079C38.9042 68.5079 38.9495 68.3873 38.9947 67.633C39.04 66.8485 39.0098 66.7731 38.7232 66.7731C38.5572 66.7731 38.3762 66.8636 38.331 66.9843Z" fill="#A1987B"/>
<path d="M39.4774 67.6782C39.4774 68.5532 39.4925 68.5984 39.8244 68.5532C40.1261 68.5079 40.1563 68.4174 40.1563 67.6782C40.1563 66.939 40.1261 66.8485 39.8244 66.8033C39.4925 66.758 39.4774 66.8033 39.4774 67.6782Z" fill="#A1987B"/>
<path d="M77.6437 60.6635C77.6437 60.8445 77.9001 60.8897 79.0014 60.8897C80.1026 60.8897 80.3591 60.8445 80.3591 60.6635C80.3591 60.4824 80.1026 60.4372 79.0014 60.4372C77.9001 60.4372 77.6437 60.4824 77.6437 60.6635Z" fill="#A1987B"/>
<path d="M77.6737 61.9005C77.719 62.1418 77.9 62.172 79.0012 62.172C80.1025 62.172 80.2835 62.1418 80.3288 61.9005C80.374 61.6742 80.2383 61.644 79.0012 61.644C77.7642 61.644 77.6285 61.6742 77.6737 61.9005Z" fill="#A1987B"/>
<path d="M28.6309 29.346C28.4046 29.7382 28.5706 30.1003 29.0081 30.2059C29.4908 30.3266 29.8528 30.0098 29.7925 29.5271C29.7623 29.2103 29.6567 29.1197 29.2645 29.0896C28.9175 29.0594 28.7516 29.1197 28.6309 29.346Z" fill="#A1987B"/>
<path d="M26.9866 31.2016C26.881 31.3072 26.8056 31.5184 26.8056 31.6994C26.8056 32.4084 27.7409 32.6498 28.0275 32.0162C28.3594 31.3072 27.5297 30.6585 26.9866 31.2016Z" fill="#A1987B"/>
<path d="M39.1304 32.0162C39.0701 32.0765 39.0248 32.2877 39.0248 32.4687C39.0248 32.6799 38.9042 32.8459 38.7231 32.9062C38.3611 33.0269 38.346 33.2532 38.693 33.6756C39.1455 34.2488 39.583 34.2639 40.0808 33.7359C40.6088 33.1777 40.639 32.9816 40.2468 32.876C40.0657 32.8308 39.93 32.6497 39.8998 32.3933C39.8545 32.0011 39.3718 31.7748 39.1304 32.0162Z" fill="#A1987B"/>
<path d="M25.3725 33.4343C25.2669 33.7812 25.5234 34.1885 25.8251 34.1885C26.1268 34.1885 26.3832 33.7812 26.2776 33.4343C26.2173 33.2382 26.0514 33.1326 25.8251 33.1326C25.5988 33.1326 25.4329 33.2382 25.3725 33.4343Z" fill="#A1987B"/>
<path d="M23.3359 35.0936C22.9739 35.4557 22.9588 35.6669 23.2756 36.1194C23.7131 36.753 24.8445 36.3759 24.8445 35.5914C24.8445 35.2897 24.2712 34.7919 23.9394 34.7919C23.7734 34.7919 23.5019 34.9277 23.3359 35.0936Z" fill="#A1987B"/>
<path d="M76.4368 35.4104C76.301 35.6367 76.3161 35.7725 76.4518 35.9384C76.8592 36.4362 77.6436 35.9233 77.3268 35.3501C77.1156 35.0031 76.6329 35.0333 76.4368 35.4104Z" fill="#A1987B"/>
<path d="M77.6737 37.3866C77.372 37.6883 77.4625 38.2314 77.8698 38.5029C78.2168 38.7292 78.2771 38.7292 78.6241 38.5029C79.2879 38.0654 79.0465 37.2055 78.247 37.2055C78.0358 37.2055 77.7793 37.281 77.6737 37.3866Z" fill="#A1987B"/>
<path d="M21.1335 37.8844C20.9072 38.2314 20.9072 38.2917 21.1335 38.6387C21.2995 38.8951 21.5257 39.0158 21.7973 39.0158C22.3253 39.0158 22.5817 38.7744 22.5817 38.2615C22.5817 37.7486 22.3253 37.5073 21.7973 37.5073C21.5257 37.5073 21.2995 37.6279 21.1335 37.8844Z" fill="#A1987B"/>
<path d="M79.6651 39.8908C79.5746 39.9512 79.4237 40.1473 79.3181 40.3434C78.941 41.0675 79.8914 41.8218 80.5853 41.3692C81.2792 40.9166 80.9625 39.7701 80.1629 39.7701C79.9819 39.7701 79.7556 39.8305 79.6651 39.8908Z" fill="#A1987B"/>
<path d="M81.9279 44.5069C81.8072 44.8237 81.9732 45.05 82.3352 45.05C82.5615 45.05 82.6369 44.9595 82.5917 44.7181C82.5313 44.3108 82.0637 44.1599 81.9279 44.5069Z" fill="#A1987B"/>
<path d="M83.8891 48.5951C83.8287 48.7309 83.8589 48.9119 83.9494 49.0024C84.1757 49.2287 84.6132 49.0175 84.5528 48.7158C84.4925 48.3688 84.0097 48.2783 83.8891 48.5951Z" fill="#A1987B"/>
<path d="M15.039 48.7459C14.8882 48.9269 14.8882 49.0175 15.039 49.1985C15.3408 49.5756 15.8687 49.4248 15.8687 48.9722C15.8687 48.5196 15.3408 48.3688 15.039 48.7459Z" fill="#A1987B"/>
<path d="M84.9148 51.1143C84.6282 51.4009 84.7036 51.7932 85.0657 52.0496C85.3523 52.2457 85.4428 52.2608 85.7143 52.0798C86.1066 51.8082 86.1669 51.4764 85.8652 51.1747C85.5786 50.888 85.1713 50.8579 84.9148 51.1143Z" fill="#A1987B"/>
<path d="M12.6253 77.016L12.0974 77.1216L12.8365 77.3781C13.5305 77.6195 15.3709 77.6346 39.9602 77.6346C55.8753 77.6346 66.3295 77.5742 66.3295 77.4988C66.3295 77.4234 66.3748 77.2574 66.4201 77.1216C66.5106 76.8954 64.112 76.8803 39.8395 76.8954C25.1614 76.9105 12.912 76.9708 12.6253 77.016Z" fill="#A1987B"/>
<path d="M73.5706 77.0614C73.5856 77.6497 73.6007 77.6497 80.6758 77.6044C86.182 77.5743 87.6151 77.5139 87.9772 77.348L88.4297 77.1368L87.8263 77.0161C87.4944 76.9558 84.1455 76.8954 80.4043 76.8954C75.0338 76.8803 73.5706 76.9256 73.5706 77.0614Z" fill="#A1987B"/>
<path d="M41.6647 78.6604C28.3141 78.6755 17.3319 78.7509 17.2565 78.8263C17.1961 78.8867 17.528 79.0526 18.0258 79.2035C18.8253 79.4297 21.0429 79.4448 42.4492 79.4448H65.9975L66.0881 79.1129C66.1333 78.9168 66.1182 78.7358 66.0579 78.6906C65.9975 78.6453 55.0304 78.6302 41.6647 78.6604Z" fill="#A1987B"/>
<path d="M22.5062 80.4858L21.7519 80.5914L22.5816 80.878C23.3811 81.1646 24.0147 81.1797 43.0375 81.2249C62.5882 81.2702 62.6485 81.2702 62.9352 80.9534C63.1162 80.7573 63.4179 80.6517 63.8252 80.6366C64.4135 80.6215 64.4286 80.6064 63.9912 80.5008C63.4481 80.3651 23.5923 80.35 22.5062 80.4858Z" fill="#A1987B"/>
<path d="M76.0446 80.712C76.2407 80.9081 76.5424 81.1042 76.7234 81.1495C77.0704 81.24 78.0811 81.0439 78.7751 80.7573L79.2276 80.5763L78.4734 80.4707C78.066 80.4254 77.2665 80.3651 76.7084 80.3651L75.6976 80.35L76.0446 80.712Z" fill="#A1987B"/>
<path d="M27.7107 82.2357C27.7107 82.2658 28.1633 82.4318 28.7063 82.6128C29.6869 82.9145 30.0188 82.9145 46.7334 82.9145H63.7649L63.5236 82.5374L63.2822 82.1602H45.4964C35.706 82.1602 27.7107 82.1904 27.7107 82.2357Z" fill="#A1987B"/>
<path d="M42.042 83.9554L41.3632 84.0459L42.3286 84.3929C43.2941 84.7248 43.4299 84.7248 50.8067 84.7248C58.2287 84.7248 58.3041 84.7248 59.1036 84.3929L59.9183 84.0459L59.2394 83.9403C58.4097 83.8196 42.9924 83.8347 42.042 83.9554Z" fill="#A1987B"/>
</svg>
