<svg width="123" height="46" viewBox="0 0 123 46" fill="none" xmlns="http://www.w3.org/2000/svg">
<path d="M9.05383 5.21219C8.8877 5.32294 8.30627 6.26432 7.75252 7.28875C7.22645 8.34088 6.36814 9.64219 5.86977 10.1959L4.98376 11.2204L6.0082 11.3034L7.03264 11.3865L7.06033 18.0869C7.06033 22.6276 7.17108 25.0918 7.42027 25.7563C7.91864 27.1407 9.19227 27.6945 12.404 27.8883C15.422 28.0821 16.1418 27.6945 14.0099 27.03C11.961 26.4485 10.9089 25.8117 10.632 25.0365C10.4659 24.6488 10.3551 21.4094 10.3551 17.8377V11.3588H12.1271C13.733 11.3588 13.9822 11.2758 14.4806 10.6389C14.8128 10.2236 15.062 9.78063 15.062 9.66988C15.062 9.53144 14.0099 9.42069 12.7086 9.42069H10.3828L10.2998 7.28875C10.2167 5.10144 9.93983 4.63075 9.05383 5.21219Z" fill="black"/>
<path d="M23.1745 9.4484C20.9041 10.3344 19.3536 12.0233 18.6337 14.3768C18.1353 16.038 18.0523 16.8687 18.163 19.4713C18.2461 22.24 18.3568 22.7661 19.1321 24.3997C20.5718 27.473 23.5067 28.9958 27.466 28.7189C31.1485 28.4697 33.8341 26.6424 35.0524 23.5413C35.8553 21.5202 35.9384 16.6472 35.1908 14.5429C34.471 12.4663 33.0866 10.7774 31.37 9.83603C30.0686 9.11615 29.5426 9.0054 27.2445 8.95003C25.1126 8.86697 24.3373 8.97772 23.1745 9.4484ZM28.0751 10.2513C29.3488 10.6113 30.6501 11.9403 31.4253 13.7123C31.896 14.7644 32.0898 15.7888 32.1729 18.0038C32.3667 22.5446 31.453 25.2026 29.1273 26.9469C28.269 27.5837 26.2478 27.6391 25.1403 27.0577C22.51 25.6733 21.0979 21.4371 21.707 16.8133C22.2054 13.2139 23.1468 11.4419 25.168 10.4175C26.137 9.91909 26.7461 9.86372 28.0751 10.2513Z" fill="black"/>
<path d="M79.0202 9.83614C77.5805 10.3622 76.3068 10.8052 76.2238 10.8052C76.113 10.8052 75.9746 10.4453 75.8915 9.97458C75.7254 9.14395 75.6977 9.14395 74.8117 9.53158C74.3133 9.72539 73.1505 10.1407 72.2645 10.4453C71.3508 10.7498 70.5755 11.1098 70.5202 11.2482C70.4925 11.3866 70.9355 11.7189 71.5446 11.9681L72.6521 12.4388L72.5967 19.416L72.5137 26.3656L71.2677 26.864C70.0218 27.3623 69.5788 27.833 70.2156 27.9991C70.4094 28.0822 72.4306 28.0822 74.6733 28.0268C79.0479 27.9161 79.5463 27.6946 77.359 26.8916L76.113 26.421L76.03 19.1668L75.9746 11.9127L76.5837 11.7743C79.131 11.2205 79.9062 11.0821 81.4014 11.0821C83.0072 11.0821 83.1734 11.1375 83.9763 12.0788L84.8346 13.0479L84.7792 19.7206L84.6962 26.3656L83.5333 26.8363C80.986 27.833 81.3737 27.9715 86.4405 27.9715C89.0708 27.9715 91.2027 27.9161 91.2027 27.8053C91.2027 27.7223 90.5382 27.3623 89.7076 27.0024L88.1848 26.3379L88.1017 19.333C88.0187 12.8818 87.9633 12.245 87.4372 11.2482C86.5512 9.55926 85.6652 9.0332 83.5056 8.95014C81.9551 8.86707 81.2352 9.0332 79.0202 9.83614Z" fill="black"/>
<path d="M99.1214 9.28229C96.9894 10.0299 95.1344 12.0234 94.4699 14.2384C93.9438 15.9273 94.0269 21.1326 94.5806 22.9876C95.1344 24.7873 96.6295 26.6701 98.1246 27.4176C99.7859 28.2759 102.776 28.6636 104.88 28.3036C107.068 27.9437 109.283 27.0023 109.117 26.5316C108.978 26.1163 108.895 26.144 106.569 26.587C104.022 27.0854 101.945 26.8362 100.533 25.8671C99.3152 25.0088 98.2077 23.2091 97.9585 21.5756L97.7924 20.6065L102.61 19.0006C109.504 16.6472 109.753 16.5364 109.753 15.5674C109.753 12.7432 107.677 9.80836 105.268 9.19923C103.551 8.75623 100.45 8.81161 99.1214 9.28229ZM104.687 10.6944C105.656 11.3035 106.209 12.6325 106.237 14.4599L106.292 16.1211L103.801 17.0902C102.444 17.6162 100.506 18.3638 99.5367 18.7237L97.7647 19.3882L97.9031 16.2872C98.0692 12.1895 98.5676 11.1927 100.81 10.3621C102.001 9.94679 103.745 10.0852 104.687 10.6944Z" fill="black"/>
<path d="M38.0427 9.42062L37.3505 9.61443L38.2918 10.1405C38.8179 10.4174 39.427 10.8604 39.6762 11.0819C39.9254 11.3034 41.5867 15.2073 43.414 19.7204L46.7088 27.9159L47.6502 28.0266C48.2593 28.1097 48.7023 27.9989 48.9515 27.7221C49.2284 27.3621 51.4711 22.1292 53.1047 17.9207C53.2708 17.5054 53.4646 17.1731 53.5477 17.1731C53.6307 17.1731 54.046 18.1976 54.489 19.4435C56.261 24.5103 57.5347 27.8328 57.7839 28.0266C58.3099 28.3589 58.7529 27.9159 59.279 26.5038C59.5835 25.7009 60.6634 23.0706 61.6324 20.6341C62.6292 18.1976 63.9028 15.0135 64.4289 13.5737C65.3149 11.248 65.564 10.8881 66.45 10.3897C67.0315 10.0851 67.4468 9.69749 67.4468 9.55906C67.3914 9.22681 61.8539 9.00531 61.8539 9.33756C61.8539 9.78056 62.2969 10.2236 63.0168 10.5004C63.9028 10.8327 63.9028 10.8881 61.9924 15.7057C60.1373 20.3849 59.9989 20.8002 59.6112 21.9354C59.4174 22.5168 59.1959 22.9875 59.0852 22.9875C59.0021 22.9875 58.476 21.6585 57.8946 19.9973C53.9353 8.94993 54.2122 9.47599 52.0248 9.53137C51.0004 9.55906 50.9173 9.61443 50.9727 10.3343C51.0004 10.7496 51.4157 11.9956 51.9141 13.0477L52.8001 14.9858L52.191 16.4256C51.5818 17.8653 49.6437 22.6276 49.2838 23.652C49.173 23.9843 49.0069 24.095 48.8408 23.9289C48.7023 23.7904 47.761 21.5201 46.7642 18.8898C45.7675 16.2594 44.6323 13.4076 44.2723 12.5493C43.8847 11.7187 43.5802 10.9711 43.5802 10.9157C43.5802 10.8604 44.0232 10.6389 44.5492 10.4174C45.0753 10.1959 45.5183 9.80824 45.5183 9.61443C45.5183 9.28218 44.9092 9.19912 42.1404 9.22681C40.2577 9.22681 38.4303 9.30987 38.0427 9.42062Z" fill="black"/>
<path d="M114.543 24.9811C113.187 25.6456 113.131 27.5284 114.46 28.2482C116.592 29.3834 118.669 26.7254 116.786 25.2303C115.983 24.5935 115.457 24.5381 114.543 24.9811Z" fill="black"/>
<path d="M49.007 35.8898C48.7578 36.5267 49.1177 40.9843 49.4223 40.9843C49.533 40.9843 49.6715 40.5137 49.7268 39.9322C49.7822 39.2677 49.9483 38.9078 50.1975 38.9078C50.419 38.9078 50.8343 39.3785 51.1389 39.9322C51.9142 41.4827 52.551 41.3166 51.8311 39.7384C51.5542 39.157 51.5819 38.8801 51.9695 38.2156C52.2187 37.8003 52.4402 37.2465 52.4402 37.0527C52.4402 36.3882 51.4435 35.696 50.2806 35.5299C49.4223 35.4192 49.1731 35.4745 49.007 35.8898ZM51.1666 36.4436C52.1357 36.8035 51.3604 38.354 50.3083 38.1602C49.7822 38.0772 49.533 37.3296 49.7822 36.6651C49.9483 36.2498 50.4467 36.1667 51.1666 36.4436Z" fill="black"/>
<path d="M55.0981 35.89C55.0151 36.1392 54.932 37.302 54.932 38.5203C54.932 40.5692 54.9597 40.7076 55.5965 40.8737C56.5102 41.0952 57.7838 40.9014 57.8946 40.5138C57.9776 40.32 57.6177 40.1538 56.9532 40.0985C56.1226 40.0431 55.9011 39.9047 55.9011 39.4617C55.9011 39.074 56.1226 38.8802 56.704 38.7695C57.8669 38.5757 57.9223 37.9942 56.8148 37.8835C56.0395 37.8281 55.8734 37.6897 55.818 37.0252C55.7349 36.3053 55.7903 36.2776 56.8424 36.2776C57.6731 36.2776 57.9776 36.1668 57.9776 35.8623C57.9776 35.2531 55.3473 35.2808 55.0981 35.89Z" fill="black"/>
<path d="M61.5493 36.7482C61.2448 37.4681 60.8295 38.4372 60.608 38.9079C59.9988 40.2369 59.8604 40.9844 60.165 40.9844C60.3311 40.9844 60.6633 40.6799 60.9125 40.2922C61.2725 39.7385 61.6047 39.6 62.4353 39.6C63.349 39.6 63.5705 39.7108 63.792 40.2922C64.0689 41.0121 64.6503 41.2613 64.595 40.6245C64.5673 39.8492 62.7953 35.613 62.463 35.5023C62.2692 35.4469 61.8816 35.9453 61.5493 36.7482ZM62.906 37.9942C63.0998 38.7694 63.0722 38.9079 62.6015 38.9909C61.7985 39.1294 61.494 38.6864 61.8816 37.8557C62.3246 36.859 62.6292 36.9144 62.906 37.9942Z" fill="black"/>
<path d="M67.1145 38.2435V41.0122L68.2774 40.9291C69.6064 40.8461 70.0217 40.237 68.8588 40.0985C68.1389 40.0155 68.0836 39.9324 68.0005 38.6311C67.8067 34.6164 67.1145 34.2841 67.1145 38.2435Z" fill="black"/>
<path d="M71.2677 35.6961C71.2677 35.8068 71.5723 36.056 71.9599 36.2221C72.6244 36.5267 72.6521 36.6651 72.6521 38.7694C72.6521 40.5967 72.7351 40.9844 73.0674 40.9844C73.455 40.9844 73.4827 40.7075 73.3166 39.3508C73.0951 37.3296 73.3166 36.3882 74.0365 36.1944C75.144 35.9176 74.5348 35.5299 72.929 35.5022C72.0153 35.5022 71.2677 35.5853 71.2677 35.6961Z" fill="black"/>
<path d="M76.5283 35.6684C76.556 35.7791 76.916 36.5544 77.359 37.385C77.8573 38.2987 78.1896 39.3231 78.1896 39.9322C78.1896 41.4551 78.6603 41.2059 78.7987 39.6C78.8818 38.7417 79.1863 37.9111 79.6293 37.3296C79.9893 36.8312 80.3769 36.1944 80.4876 35.9176C80.7922 35.1146 80.2108 35.3915 79.4078 36.4159C79.0202 36.942 78.5772 37.385 78.4388 37.385C78.3003 37.385 78.0235 37.0251 77.802 36.5821C77.4143 35.8622 76.5006 35.1977 76.5283 35.6684Z" fill="black"/>
<path d="M86.745 36.25C85.5821 37.4129 85.6098 39.0464 86.8004 40.2093C87.5756 40.9846 87.7418 41.0399 89.0431 40.9015C90.8428 40.68 91.4242 40.1816 91.0366 39.1295C90.8151 38.4927 90.5936 38.3266 89.7353 38.2712C89.1538 38.2158 88.7108 38.2989 88.7108 38.465C88.7108 38.6311 88.877 38.7696 89.0708 38.7696C89.2646 38.7696 89.6799 38.9634 89.9845 39.1849C90.4275 39.5448 90.4551 39.6279 90.0952 39.8771C89.4307 40.3201 87.991 40.2093 87.2988 39.6556C86.5235 39.0187 86.4681 37.6344 87.2157 36.8037C87.7418 36.2223 88.4616 36.1946 90.0398 36.693C90.9535 36.9976 90.8151 36.3607 89.8183 35.8624C88.6001 35.2256 87.6587 35.3363 86.745 36.25Z" fill="black"/>
<path d="M94.0268 35.8069C93.7776 36.0838 93.6945 36.9698 93.7499 38.4649C93.833 40.7076 94.3037 41.6767 94.4698 39.9324C94.5805 38.7972 95.2174 38.7695 95.8542 39.877C96.3249 40.6799 96.9617 41.1506 97.2385 40.846C97.3216 40.763 97.1832 40.4861 96.934 40.2092C96.3525 39.5724 96.3249 38.5203 96.8786 38.3265C97.377 38.1327 97.4324 36.8313 96.934 36.1668C96.4356 35.5023 94.4698 35.2532 94.0268 35.8069ZM96.3249 36.8313C96.5464 37.5789 95.9926 38.2711 95.245 38.1603C94.802 38.105 94.6359 37.8558 94.5805 37.1636C94.4975 36.333 94.5529 36.2776 95.3281 36.2776C95.9095 36.2776 96.2141 36.4437 96.3249 36.8313Z" fill="black"/>
<path d="M100.34 36.2223C99.2321 37.3298 99.1767 38.8803 100.229 40.1262C101.779 41.9813 104.77 40.7354 104.77 38.2435C104.77 36.7207 103.884 35.7516 102.361 35.5301C101.336 35.3917 101.115 35.4747 100.34 36.2223ZM103.441 36.7484C104.105 37.3575 104.105 38.8803 103.385 39.6002C101.669 41.3168 99.1213 38.6311 100.755 36.8314C101.364 36.1669 102.721 36.1116 103.441 36.7484Z" fill="black"/>
<path d="M107.261 37.6344C107.261 39.5171 107.345 39.9601 107.815 40.4308C108.535 41.1507 109.864 41.1507 110.584 40.4308C111.082 39.9324 111.138 39.5725 111.082 37.7451C111.027 36.2777 110.889 35.5855 110.639 35.5024C110.335 35.4194 110.307 35.6685 110.446 36.5822C110.529 37.2467 110.501 38.2989 110.39 38.908C110.169 39.877 110.058 40.0155 109.255 40.0985C108.258 40.2093 108.147 39.9601 108.037 37.2744C107.981 36.25 107.815 35.5855 107.621 35.5024C107.345 35.4194 107.261 35.9731 107.261 37.6344Z" fill="black"/>
<path d="M113.906 38.1882C113.906 40.3478 113.99 41.0123 114.266 40.9292C114.433 40.8462 114.626 40.3478 114.682 39.7664C114.765 38.7973 114.82 38.7419 115.568 38.908C117.007 39.2126 118.06 37.4406 117.174 36.1947C116.952 35.8901 116.26 35.6409 115.374 35.5302L113.906 35.364V38.1882ZM116.232 36.3608C116.537 36.5823 116.703 36.9976 116.62 37.4129C116.564 37.939 116.343 38.1051 115.651 38.1605C114.792 38.2435 114.737 38.2159 114.737 37.3022C114.737 35.9455 115.235 35.6409 116.232 36.3608Z" fill="black"/>
</svg>
