<svg width="16" height="18" viewBox="0 0 16 18" fill="none" xmlns="http://www.w3.org/2000/svg">
<path d="M12.9601 9.66674C12.8134 9.66674 12.6601 9.62007 12.5134 9.58674C12.2164 9.52129 11.9246 9.43439 11.6401 9.32674C11.3308 9.21422 10.9909 9.22006 10.6856 9.34314C10.3804 9.46621 10.1315 9.69783 9.98673 9.9934L9.84007 10.2934C9.19073 9.9322 8.59406 9.48356 8.06673 8.96007C7.54325 8.43275 7.09461 7.83607 6.7334 7.18674L7.0134 7.00007C7.30898 6.85535 7.54059 6.60642 7.66366 6.3012C7.78674 5.99597 7.79258 5.65602 7.68007 5.34675C7.57421 5.06169 7.48736 4.76993 7.42007 4.4734C7.38673 4.32674 7.36007 4.1734 7.34007 4.02007C7.25911 3.55048 7.01315 3.12524 6.64648 2.8209C6.27981 2.51657 5.81653 2.35314 5.34007 2.36007H3.34007C3.05275 2.35737 2.76823 2.41661 2.50587 2.53376C2.24351 2.6509 2.00947 2.82321 1.81969 3.03893C1.6299 3.25466 1.48882 3.50873 1.40606 3.78388C1.32329 4.05902 1.30079 4.34877 1.34007 4.6334C1.69522 7.42632 2.97075 10.0213 4.96517 12.0085C6.95958 13.9957 9.55921 15.2618 12.3534 15.6068H12.6068C13.0984 15.6075 13.573 15.4271 13.9401 15.1001C14.151 14.9115 14.3195 14.6802 14.4344 14.4216C14.5493 14.1631 14.6081 13.8831 14.6068 13.6001V11.6001C14.5986 11.137 14.43 10.6911 14.1297 10.3385C13.8294 9.98592 13.416 9.74849 12.9601 9.66674ZM13.2934 13.6668C13.2933 13.7614 13.273 13.855 13.234 13.9412C13.1949 14.0274 13.1379 14.1043 13.0668 14.1668C12.9925 14.2314 12.9054 14.2797 12.8112 14.3084C12.717 14.3371 12.6178 14.3457 12.5201 14.3334C10.0234 14.0133 7.70422 12.8711 5.92854 11.087C4.15286 9.30281 3.02167 6.97829 2.7134 4.48007C2.70279 4.38241 2.71209 4.28362 2.74073 4.18966C2.76938 4.0957 2.81678 4.00854 2.88007 3.93341C2.94254 3.8623 3.01944 3.8053 3.10565 3.76621C3.19186 3.72713 3.28541 3.70687 3.38007 3.70675H5.38007C5.5351 3.7033 5.68648 3.75399 5.80816 3.85012C5.92984 3.94624 6.01421 4.08178 6.04673 4.2334C6.0734 4.41562 6.10673 4.59563 6.14673 4.77341C6.22375 5.12484 6.32624 5.4702 6.4534 5.80675L5.52007 6.24007C5.44026 6.27668 5.36848 6.32871 5.30884 6.39314C5.24919 6.45758 5.20287 6.53314 5.17251 6.61553C5.14216 6.69792 5.12838 6.78549 5.13196 6.87322C5.13555 6.96094 5.15643 7.0471 5.1934 7.12673C6.15287 9.18191 7.8049 10.834 9.86007 11.7934C10.0224 11.8601 10.2045 11.8601 10.3668 11.7934C10.4499 11.7637 10.5263 11.7177 10.5916 11.6582C10.6568 11.5987 10.7095 11.5268 10.7468 11.4468L11.1601 10.5134C11.5048 10.6367 11.8565 10.7391 12.2134 10.8201C12.3912 10.8601 12.5712 10.8934 12.7534 10.9201C12.9051 10.9526 13.0406 11.037 13.1367 11.1587C13.2329 11.2803 13.2836 11.4317 13.2801 11.5868L13.2934 13.6668Z" fill="white"/>
</svg>
