<svg width="100" height="101" viewBox="0 0 100 101" fill="none" xmlns="http://www.w3.org/2000/svg">
<path d="M21.3205 16.4875C21.1546 16.8931 21.2283 17.0959 22.869 21.8153C23.8461 24.6728 24.4545 26.1476 24.731 26.3688L25.1181 26.6822V42.9236V59.1651H24.5651C23.4036 59.1651 23.4221 60.7136 24.5835 60.9533L25.1181 61.0455V64.5297V68.014H23.5511C22.2054 68.014 21.9657 68.0693 21.7998 68.3642C21.5417 68.862 21.5601 69.0463 21.9104 69.3782C22.1132 69.5994 22.5741 69.6731 23.6617 69.6731H25.1181V70.5027V71.3323H24.2885C23.6249 71.3323 23.3483 71.4245 23.0165 71.7932C22.7031 72.125 22.3897 72.2541 21.8735 72.2541C20.3803 72.2541 19.7719 73.1758 19.7719 75.4618V77.0104L19.2373 77.1394C18.9423 77.1947 18.5183 77.4528 18.2787 77.7109C17.8915 78.1349 17.8362 78.393 17.7809 79.96C17.7256 81.5823 17.7625 81.8035 18.1496 82.3935C18.4077 82.7806 18.8317 83.1124 19.182 83.223L19.7903 83.389L19.735 85.2509L19.6797 87.0944L13.7989 87.1866C8.52642 87.2604 7.89962 87.3157 7.71527 87.5922C7.40187 88.0899 7.78901 88.8827 8.43425 89.067C8.74765 89.1407 27.5884 89.1776 50.3191 89.1592C90.2682 89.1039 91.6693 89.0854 92.038 88.7536C92.4989 88.3296 92.5173 87.8872 92.0749 87.5C91.7799 87.2235 91.0978 87.1866 86.4521 87.1866H81.1612V85.2878V83.389L81.7696 83.1677C82.7282 82.8175 83.0047 82.1538 83.0047 80.1812C83.0047 77.969 82.636 77.2316 81.5299 77.2316C81.2349 77.2316 81.1981 77.0104 81.1243 75.4249C81.069 73.9132 80.9953 73.5261 80.645 73.0284C80.1841 72.4016 79.0412 71.9591 78.3775 72.1619C78.1194 72.2541 77.8982 72.1435 77.6401 71.8116C77.382 71.4798 77.0686 71.3323 76.4971 71.2954C75.7228 71.2401 75.7228 71.2401 75.7228 70.5027V69.7653L77.3451 69.71C78.8384 69.6547 78.9859 69.6178 79.1518 69.2307C79.2992 68.9173 79.2992 68.6961 79.1518 68.4195C78.9674 68.0693 78.7462 68.014 77.3267 67.9771L75.7228 67.9218L75.6675 64.456L75.6306 61.0086H76.1468C76.9027 61.0086 77.4004 60.4002 77.1792 59.755C77.0317 59.3494 76.8842 59.2388 76.3127 59.2019L75.6306 59.1466V42.9974V26.8666L76.1468 26.3872C76.5524 26.0001 76.9949 24.9124 78.1931 21.4097C79.0227 18.9578 79.6864 16.8009 79.6495 16.6166C79.5942 16.3216 77.7876 16.3032 50.5034 16.2479C24.6204 16.211 21.4126 16.2479 21.3205 16.4875ZM40.1981 18.5707L40.2534 18.9763L32.0866 18.9394L23.9198 18.8841L23.8645 18.4601L23.8092 18.0545L31.976 18.0914L40.1428 18.1467L40.1981 18.5707ZM58.8177 18.4601L58.7624 18.8841H50.4666H42.1707L42.1154 18.4601L42.0601 18.0545H50.4666H58.873L58.8177 18.4601ZM77.1239 18.4601L76.9764 18.8841L68.8096 18.9394C61.4171 18.9763 60.6612 18.9578 60.7719 18.6813C60.8272 18.5338 60.8825 18.3126 60.8825 18.2204C60.8825 18.1283 64.2192 18.0545 69.0861 18.0545H77.2714L77.1239 18.4601ZM26.4086 20.6354C26.4086 20.9488 26.2795 21.0042 25.6712 21.0042C25.1734 21.0042 24.9338 20.9304 24.9338 20.7645C24.9338 20.3773 25.1366 20.2667 25.8002 20.2667C26.2795 20.2667 26.4086 20.3405 26.4086 20.6354ZM29.3582 20.7276C29.3582 21.0963 29.2661 21.1885 28.8973 21.1885C28.5286 21.1885 28.4365 21.0963 28.4365 20.7276C28.4365 20.3589 28.5286 20.2667 28.8973 20.2667C29.2661 20.2667 29.3582 20.3589 29.3582 20.7276ZM32.4922 20.7276C32.4922 21.0963 32.4 21.1885 32.0498 21.1885C31.7917 21.1885 31.5336 21.0963 31.4783 21.0042C31.2571 20.6539 31.552 20.2667 32.0313 20.2667C32.4 20.2667 32.4922 20.3589 32.4922 20.7276ZM35.8106 20.6354C35.8106 20.9304 35.6815 21.0042 35.1653 21.0042C34.6491 21.0042 34.5201 20.9304 34.5201 20.6354C34.5201 20.3405 34.6491 20.2667 35.1653 20.2667C35.6815 20.2667 35.8106 20.3405 35.8106 20.6354ZM39.3132 20.6354C39.3132 20.9304 39.1842 21.0042 38.7602 21.0042C38.4284 21.0042 38.2071 20.912 38.2071 20.7645C38.2071 20.3958 38.3915 20.2667 38.8892 20.2667C39.1842 20.2667 39.3132 20.3773 39.3132 20.6354ZM44.1064 20.6354C44.1064 20.9304 43.9774 21.0042 43.498 21.0042C42.7975 21.0042 42.6132 20.8935 42.7606 20.5248C42.8159 20.3773 43.1109 20.2667 43.4796 20.2667C43.9774 20.2667 44.1064 20.3405 44.1064 20.6354ZM47.4247 20.6354C47.4247 20.9304 47.2957 21.0042 46.7795 21.0042C46.3739 21.0042 46.1343 20.912 46.1343 20.7645C46.1343 20.3958 46.3186 20.2667 46.9086 20.2667C47.2957 20.2667 47.4247 20.3589 47.4247 20.6354ZM51.1118 20.6354C51.1118 20.9488 50.9827 21.0042 50.3744 21.0042C49.8766 21.0042 49.637 20.9304 49.637 20.7645C49.637 20.3773 49.8398 20.2667 50.5034 20.2667C50.9827 20.2667 51.1118 20.3405 51.1118 20.6354ZM54.5223 20.6354C54.5223 20.8198 54.3011 20.9304 53.9324 20.9673C53.4162 21.0226 53.324 20.9673 53.324 20.6354C53.324 20.3036 53.4162 20.2483 53.9324 20.3036C54.3011 20.3405 54.5223 20.4511 54.5223 20.6354ZM58.1172 20.6354C58.1172 20.9488 57.9881 21.0042 57.3798 21.0042C56.7714 21.0042 56.6424 20.9488 56.6424 20.6354C56.6424 20.322 56.7714 20.2667 57.3798 20.2667C57.9881 20.2667 58.1172 20.322 58.1172 20.6354ZM62.5416 20.6354C62.5416 20.912 62.4126 21.0042 62.0807 21.0042C61.7489 21.0042 61.6199 20.912 61.6199 20.6354C61.6199 20.3589 61.7489 20.2667 62.0807 20.2667C62.4126 20.2667 62.5416 20.3589 62.5416 20.6354ZM66.2287 20.6354C66.2287 20.9304 66.0996 21.0042 65.5834 21.0042C65.0673 21.0042 64.9382 20.9304 64.9382 20.6354C64.9382 20.3405 65.0673 20.2667 65.5834 20.2667C66.0996 20.2667 66.2287 20.3405 66.2287 20.6354ZM69.3627 20.6354C69.3627 20.912 69.2336 21.0042 68.9018 21.0042C68.57 21.0042 68.4409 20.912 68.4409 20.6354C68.4409 20.3589 68.57 20.2667 68.9018 20.2667C69.2336 20.2667 69.3627 20.3589 69.3627 20.6354ZM72.4598 20.6723C72.4045 21.1332 71.833 21.336 71.538 21.041C71.2246 20.7276 71.5196 20.2667 72.0358 20.2667C72.4413 20.2667 72.5151 20.3405 72.4598 20.6723ZM75.815 20.6354C75.815 20.9488 75.6859 21.0042 75.0776 21.0042C74.5798 21.0042 74.3402 20.9304 74.3402 20.7645C74.3402 20.3773 74.543 20.2667 75.2066 20.2667C75.6859 20.2667 75.815 20.3405 75.815 20.6354ZM26.4086 22.9398C26.4086 23.6957 26.3717 23.7694 25.9477 23.7694C25.5237 23.7694 25.4868 23.6957 25.4868 22.9398C25.4868 22.184 25.5237 22.1103 25.9477 22.1103C26.3717 22.1103 26.4086 22.184 26.4086 22.9398ZM35.6262 22.6633C35.6262 23.0505 35.534 23.2164 35.3128 23.2348C34.9994 23.2532 34.9994 23.2717 35.3128 23.3454C35.8106 23.4745 35.6815 23.7694 35.11 23.7694C34.6123 23.7694 34.5754 23.7141 34.557 22.9398C34.5201 22.1287 34.5385 22.1103 35.0731 22.1103C35.5709 22.1103 35.6262 22.1656 35.6262 22.6633ZM44.0142 22.2946C44.0695 22.3868 44.0695 22.7555 43.9958 23.1242C43.9036 23.6404 43.793 23.7694 43.4427 23.7694C43.0372 23.7694 43.0003 23.6957 43.0003 22.9398C43.0003 22.184 43.0372 22.1103 43.4427 22.1103C43.7008 22.1103 43.9589 22.184 44.0142 22.2946ZM50.8906 22.9398C50.8721 23.7141 50.8353 23.7694 50.3744 23.7694C49.9135 23.7694 49.8766 23.7141 49.8582 22.9398C49.8213 22.1287 49.8398 22.1103 50.3744 22.1103C50.909 22.1103 50.9274 22.1287 50.8906 22.9398ZM57.9144 23.032C57.896 23.8616 57.8406 23.9538 57.4719 23.9538C57.1585 23.9538 57.0295 23.8247 56.9373 23.3823C56.7161 22.2762 56.7898 22.1103 57.3798 22.1103C57.9144 22.1103 57.9328 22.1287 57.9144 23.032ZM66.2287 22.6633C66.2287 23.1242 66.1549 23.2164 65.7678 23.2164C65.3807 23.2164 65.3069 23.1242 65.3069 22.6633C65.3069 22.2024 65.3807 22.1103 65.7678 22.1103C66.1549 22.1103 66.2287 22.2024 66.2287 22.6633ZM75.4094 22.9767C75.3541 23.7326 75.2988 23.8616 74.9485 23.9169C74.5614 23.9722 74.5245 23.9169 74.5245 23.0505C74.5245 22.1656 74.5614 22.1103 74.9854 22.1103C75.4463 22.1103 75.4647 22.1471 75.4094 22.9767ZM48.2543 22.479C48.199 22.5711 47.5722 22.6633 46.8533 22.6633C46.1343 22.6633 45.5812 22.5896 45.5812 22.479C45.5812 22.3684 46.1712 22.2946 46.9823 22.2946C47.8488 22.2946 48.3281 22.3684 48.2543 22.479ZM55.1675 22.479C55.1675 22.5896 54.6145 22.6633 53.8955 22.6633C53.1765 22.6633 52.5497 22.5711 52.4944 22.479C52.4207 22.3684 52.9 22.2946 53.7665 22.2946C54.5776 22.2946 55.1675 22.3684 55.1675 22.479ZM32.8609 24.3962V25.5761L31.6258 25.6498C30.9252 25.6867 29.8191 25.6867 29.137 25.6498L27.8834 25.5945V24.5253C27.8834 23.9353 27.9387 23.4007 28.0125 23.3454C28.0678 23.2717 29.1923 23.2164 30.5012 23.2164H32.8609V24.3962ZM39.1289 23.9907C39.1289 24.4331 39.1842 24.9677 39.2395 25.1889C39.3686 25.6683 38.8708 25.871 37.9306 25.6867C37.1748 25.5576 37.0826 25.0046 37.8016 24.9124C38.4284 24.8202 38.3731 23.9538 37.7463 23.9538C37.4144 23.9538 37.2854 23.8616 37.2854 23.5851C37.2854 23.2717 37.4144 23.2164 38.2071 23.2164H39.1289V23.9907ZM63.6477 23.5851C63.6477 23.8616 63.5187 23.9538 63.1869 23.9538C62.8182 23.9538 62.726 24.046 62.726 24.3962C62.726 24.7096 62.855 24.8755 63.1869 24.9493C63.445 25.023 63.6477 25.1889 63.6477 25.3364C63.6477 25.5576 63.279 25.613 61.6199 25.613H59.592V24.5068V23.4192L60.7534 23.3454C63.6477 23.1795 63.6477 23.1795 63.6477 23.5851ZM73.0128 24.4515L73.0681 25.613H72.0911C71.5565 25.613 70.4319 25.6683 69.6023 25.742L68.0722 25.8526V24.6543C68.0722 24.0091 68.1275 23.4007 68.2012 23.327C68.275 23.2717 69.3627 23.2348 70.6347 23.2532L72.9575 23.3085L73.0128 24.4515ZM66.2287 23.5851C66.2287 23.6773 66.0996 23.7694 65.9521 23.7694C65.8047 23.7694 65.6203 23.7694 65.5466 23.7879C65.4728 23.7879 65.3807 23.7141 65.3438 23.6035C65.3069 23.4929 65.4913 23.4007 65.7494 23.4007C66.0075 23.4007 66.2287 23.4745 66.2287 23.5851ZM48.3465 24.7834V25.7973H47.4432C46.9454 25.7973 46.2818 25.742 45.9684 25.6867C45.4153 25.5761 45.3969 25.5208 45.3969 24.6728V23.7694H46.8717H48.3465V24.7834ZM55.4441 24.5806C55.5178 25.0415 55.5178 25.4839 55.4441 25.5945C55.3888 25.7051 54.7067 25.7973 53.8586 25.7973H52.4023V24.7834V23.7694H53.8586H55.3335L55.4441 24.5806ZM40.0138 26.8481C41.3227 26.9219 42.0601 27.0325 42.0232 27.1615C41.9679 27.3459 40.2719 27.3459 39.6451 27.1615C39.4239 27.0878 39.3132 27.1615 39.3132 27.3459C39.3132 27.604 38.7418 27.6408 34.4463 27.6408C31.7917 27.6408 29.0817 27.6961 28.4549 27.7514C27.3304 27.8805 27.3304 27.8805 27.3304 27.4012C27.3304 26.9772 27.4041 26.9219 28.1231 26.8481C29.5241 26.7191 37.8753 26.7191 40.0138 26.8481ZM56.6424 27.1799V27.6408H50.3744C44.4198 27.6408 44.1064 27.6224 44.1064 27.309C44.1064 27.1246 44.1617 26.9034 44.2355 26.8481C44.2908 26.7744 47.1113 26.7191 50.5034 26.7191H56.6424V27.1799ZM73.5659 27.2721L73.6212 27.733H66.1365H58.6702V27.3274C58.6702 26.7928 58.9099 26.7744 67.0583 26.7928L73.5106 26.8112L73.5659 27.2721ZM39.3132 30.4983C39.3132 31.4016 39.2579 31.6966 39.0552 31.6966C38.4099 31.6966 38.2071 31.4569 38.2071 30.7564V30.0374H34.7229H31.2202L31.1649 30.8117C31.1096 31.5307 31.0543 31.6044 30.6118 31.6597L30.0956 31.715V30.5167V29.3H34.7044H39.3132V30.4983ZM54.2458 29.7609V30.2218H50.4666C46.927 30.2218 46.6873 30.2033 46.6873 29.8899C46.6873 29.7056 46.7426 29.4844 46.8164 29.429C46.8717 29.3553 48.5862 29.3 50.5956 29.3H54.2458V29.7609ZM70.8006 30.443C70.7453 31.5491 70.7269 31.6044 70.2844 31.6044C69.8788 31.6044 69.8051 31.5122 69.7314 30.867L69.6392 30.1296L66.0996 30.0743L62.5601 30.0374L62.5048 30.8117C62.4495 31.5122 62.3941 31.6044 61.9886 31.6044C61.5461 31.6044 61.5277 31.5491 61.4724 30.443L61.4171 29.3H66.1365H70.8559L70.8006 30.443ZM28.5839 30.3508C28.5102 30.7933 26.9616 30.9407 26.9616 30.5167C26.9616 30.3508 27.1829 30.2218 27.57 30.1665C27.8834 30.1296 28.2705 30.0743 28.3996 30.0743C28.5471 30.0558 28.6208 30.1665 28.5839 30.3508ZM60.1451 30.2955C60.1451 30.6273 59.7395 30.7748 58.8362 30.7748C58.3384 30.7748 58.1172 30.7011 58.1172 30.5167C58.1172 30.2586 58.32 30.2218 59.8317 30.0743C59.9976 30.0558 60.1451 30.148 60.1451 30.2955ZM45.6181 31.4569L45.6734 32.7105L46.3739 32.7658L47.056 32.8211V36.9506V41.0801L46.4661 41.1354C45.8762 41.1907 45.8578 41.2092 45.8024 42.1494L45.7471 43.1264H44.9176H44.1064V36.6741V30.2218H44.8438H45.5628L45.6181 31.4569ZM56.6424 36.6741V43.1264H55.9234H55.186L55.1307 42.1494L55.0754 41.1907L54.3933 41.1354L53.6927 41.0801V37.6327C53.6927 33.3742 53.7665 32.8027 54.338 32.8027C55.2413 32.8027 55.3519 32.6552 55.3519 31.4016V30.2218H55.9971H56.6424V36.6741ZM37.6541 31.0513C37.6541 31.291 37.2485 31.3279 34.7597 31.291C32.6581 31.2541 31.8654 31.1804 31.7917 30.996C31.7364 30.8301 32.4 30.7748 34.686 30.7748C37.2301 30.7748 37.6541 30.8117 37.6541 31.0513ZM68.994 31.0513C68.994 31.291 68.5884 31.3279 66.0996 31.291C63.998 31.2541 63.2053 31.1804 63.1316 30.996C63.0763 30.8301 63.7399 30.7748 66.0259 30.7748C68.57 30.7748 68.994 30.8117 68.994 31.0513ZM53.8771 31.1435C53.8771 31.2541 52.6235 31.3279 50.4666 31.3279C48.3096 31.3279 47.056 31.2541 47.056 31.1435C47.056 31.0329 48.3096 30.9592 50.4666 30.9592C52.6235 30.9592 53.8771 31.0329 53.8771 31.1435ZM60.1266 31.5675C60.0897 31.6228 59.6104 31.6966 59.0758 31.7519C58.3384 31.8441 58.1172 31.8072 58.1725 31.6413C58.2462 31.3832 59.7948 31.162 60.0344 31.3647C60.1266 31.4385 60.1819 31.5307 60.1266 31.5675ZM28.6208 31.4938C28.6208 31.6413 27.1276 31.9178 26.9985 31.7888C26.9616 31.7519 26.9801 31.6413 27.0538 31.5307C27.1829 31.291 28.6208 31.2541 28.6208 31.4938ZM31.8285 32.6368C31.6995 32.8396 30.5196 32.858 30.3906 32.6368C30.2247 32.3787 30.409 32.3234 31.1833 32.3971C31.6073 32.434 31.8839 32.5446 31.8285 32.6368ZM63.0947 32.5262C63.0947 32.7105 62.9103 32.8027 62.4679 32.8027C61.7305 32.8027 61.4171 32.4893 62.0254 32.3787C62.855 32.2128 63.0947 32.2496 63.0947 32.5262ZM39.1289 32.6183C39.1289 32.7105 38.8524 32.8027 38.5021 32.8027C38.1518 32.8027 37.8016 32.7105 37.7463 32.6183C37.6725 32.5077 37.9306 32.434 38.3731 32.434C38.7971 32.434 39.1289 32.5077 39.1289 32.6183ZM70.561 32.6183C70.5056 32.7105 70.1185 32.8027 69.7129 32.8027C69.3258 32.8027 68.994 32.7105 68.994 32.6183C68.994 32.5077 69.3811 32.434 69.842 32.434C70.3397 32.434 70.6347 32.5077 70.561 32.6183ZM35.9949 35.0149V36.6741H34.7966H33.5983V35.0149V33.3558H34.7966H35.9949V35.0149ZM51.8861 33.8535C51.9229 34.1485 51.9598 34.8674 51.9414 35.4758V36.5819L50.4297 36.6372L48.8996 36.6925V35.0149V33.3558H50.3559C51.7939 33.3558 51.8123 33.3558 51.8861 33.8535ZM67.3348 35.0149V36.6741H66.0443H64.7539V35.4205C64.7539 33.3926 64.7907 33.3558 66.1549 33.3558H67.3348V35.0149ZM31.7548 37.2271V40.9142H31.2939H30.833V37.2271V33.5401H31.2939H31.7548V37.2271ZM38.7602 37.2271V40.9142H38.2993H37.8384V37.2271V33.5401H38.2993H38.7602V37.2271ZM63.0947 37.2271V40.9142H62.5416H61.9886V37.2271V33.5401H62.5416H63.0947V37.2271ZM70.1001 37.2271V40.9142H69.547H68.994V37.3562C68.994 35.3836 69.0493 33.7245 69.123 33.6691C69.1783 33.5954 69.4364 33.5401 69.6761 33.5401H70.1001V37.2271ZM28.9895 37.4852C28.9895 41.0248 28.9895 41.0617 28.5839 41.1723C28.3443 41.2276 27.9756 41.2829 27.7544 41.2829H27.3304V37.7065C27.3304 33.7245 27.2382 34.0194 28.5839 33.9272L28.9895 33.9088V37.4852ZM41.6361 34.0932H42.0785V37.688C42.0785 41.6147 42.1154 41.4673 41.0277 41.1723C40.6037 41.0617 40.6037 41.0248 40.6037 37.4668C40.6037 34.2591 40.6406 33.8904 40.8987 33.9825C41.0646 34.0379 41.3964 34.0932 41.6361 34.0932ZM60.3294 37.4852C60.3294 41.0248 60.3294 41.0617 59.9238 41.1723C59.6842 41.2276 59.3155 41.2829 59.0942 41.2829H58.6702V37.7065V34.1116L59.2786 34.0379C59.592 34.001 59.9791 33.9457 60.1082 33.9457C60.2741 33.9088 60.3294 34.7384 60.3294 37.4852ZM73.1972 34.0932H73.6028V37.7065V41.3013L72.8285 41.246L72.0358 41.1907L71.9805 37.5221L71.9436 33.8719L72.3492 33.9825C72.5888 34.0379 72.9575 34.0932 73.1972 34.0932ZM35.9949 39.5316V40.9142H34.8151H33.6352L33.5062 39.7343C33.4324 39.0707 33.4324 38.4623 33.5062 38.3517C33.5615 38.2411 34.1514 38.1489 34.8151 38.1489H35.9949V39.5316ZM52.0336 39.5131V40.8773L50.6693 41.0064C49.9135 41.0801 49.213 41.0801 49.1024 41.0248C48.9917 40.9511 48.8996 40.3058 48.8996 39.5131V38.1489H50.4666H52.0336V39.5131ZM67.3348 39.5316V40.9142H66.0443H64.7539V39.5316V38.1489H66.0443H67.3348V39.5316ZM39.8663 42.6655V43.1264H34.8888H29.9113V42.6655V42.2047H34.8888H39.8663V42.6655ZM53.6927 42.6655V43.1264H50.4666H47.2404V42.6655V42.2047H50.4666H53.6927V42.6655ZM71.1693 42.6102L71.114 43.0342L66.0075 43.0896L60.8825 43.1264V42.6655V42.2047H66.0628H71.2246L71.1693 42.6102ZM27.6991 42.7577C27.6991 43.1449 27.0723 43.5873 26.7773 43.4029C26.5745 43.2739 26.5376 42.7024 26.722 42.5181C26.7773 42.4443 27.0354 42.389 27.275 42.389C27.57 42.389 27.6991 42.4996 27.6991 42.7577ZM42.521 42.5365C42.7053 42.8315 42.3919 43.4951 42.0785 43.4951C41.7651 43.4951 41.4517 42.8315 41.6361 42.5365C41.6914 42.4627 41.8942 42.389 42.0785 42.389C42.2629 42.389 42.4657 42.4627 42.521 42.5365ZM58.8177 42.8868C58.7808 43.2002 58.6334 43.4214 58.449 43.4583C58.1909 43.5136 58.1172 43.4029 58.1172 42.9605C58.1172 42.4996 58.1909 42.389 58.5043 42.389C58.7993 42.389 58.873 42.4812 58.8177 42.8868ZM74.1558 42.8683C74.1558 43.2555 74.0821 43.3292 73.7503 43.2739C73.4737 43.237 73.3078 43.0711 73.2709 42.7946C73.2156 42.4627 73.2894 42.389 73.6765 42.389C74.0636 42.389 74.1558 42.4812 74.1558 42.8683ZM39.3132 46.2604V47.5509H38.7602C38.2256 47.5509 38.2071 47.514 38.2071 46.7213V45.8917H34.7044H31.2017V46.7213C31.2017 47.514 31.1833 47.5509 30.6487 47.5509H30.0956V46.2604V44.9699H34.7044H39.3132V46.2604ZM70.8375 46.2604V47.5509H70.3029C69.8235 47.5509 69.7682 47.4771 69.6576 46.7213L69.5286 45.8917H66.0259H62.5416V46.7397C62.5416 47.5509 62.5232 47.5693 62.0439 47.514C61.5461 47.4587 61.5277 47.4218 61.4724 46.2051L61.4171 44.9699H66.1365H70.8375V46.2604ZM56.6424 51.8832V58.612H55.9234H55.186L55.1307 57.7271C55.0754 56.8975 55.0569 56.8607 54.4301 56.7685L53.7849 56.6763L53.7665 52.5653V48.4726L54.338 48.5095C55.2228 48.5648 55.3519 48.3805 55.3519 47.0716V45.8917H50.4666H45.5812V47.09C45.5812 48.2145 45.6181 48.3067 46.0421 48.4726C46.3002 48.5648 46.6136 48.6386 46.7426 48.6017C46.9086 48.5832 46.9823 49.5603 47.0192 52.6574L47.056 56.7685H46.4108H45.7656V57.6902V58.612H44.936H44.1064V51.8832V45.1543H50.3744H56.6424V51.8832ZM60.1451 45.7995C60.1451 46.1314 59.9976 46.1867 58.9099 46.3341C58.2094 46.4448 58.1172 46.4079 58.1172 46.0945C58.1172 45.7995 58.2647 45.7074 59.0021 45.652C59.4814 45.6152 59.9238 45.5783 60.016 45.5599C60.0897 45.5414 60.1451 45.652 60.1451 45.7995ZM28.8052 45.8917C28.8052 46.1129 28.6024 46.1867 27.6622 46.3341C27.0538 46.4079 26.9616 46.371 26.9616 46.0576C26.9616 45.7627 27.0907 45.7074 27.8834 45.7074C28.3996 45.7074 28.8052 45.7995 28.8052 45.8917ZM37.6541 46.795C37.6541 46.9609 33.119 47.2743 32.3263 47.1637C32.0682 47.1269 31.847 46.9794 31.7917 46.8503C31.7364 46.6844 32.4 46.6291 34.686 46.6291C36.3267 46.6291 37.6541 46.7029 37.6541 46.795ZM53.8402 46.8503C53.7665 47.0347 52.8816 47.1084 50.4113 47.1453C47.4985 47.1822 47.056 47.1453 47.056 46.9056C47.056 46.666 47.5354 46.6291 50.485 46.6291C53.1397 46.6291 53.8955 46.6844 53.8402 46.8503ZM68.994 46.8135C68.994 46.9241 67.8878 46.9978 66.0443 46.9978C64.2008 46.9978 63.0947 46.9241 63.0947 46.8135C63.0947 46.7029 64.2008 46.6291 66.0443 46.6291C67.8878 46.6291 68.994 46.7029 68.994 46.8135ZM28.6208 46.9794C28.6208 47.1822 27.1644 47.4587 26.9985 47.2743C26.7957 47.09 27.3857 46.8135 28.0309 46.8135C28.3443 46.8135 28.6208 46.8872 28.6208 46.9794ZM59.9607 46.9794C59.9607 47.1637 58.3015 47.4218 58.1356 47.2559C58.0803 47.2006 58.154 47.09 58.3015 46.9978C58.6518 46.7766 59.9607 46.7582 59.9607 46.9794ZM31.7548 48.3805C31.7548 48.5648 31.5705 48.657 31.128 48.657C30.3906 48.657 30.0772 48.3436 30.6856 48.233C31.5151 48.0671 31.7548 48.1039 31.7548 48.3805ZM70.5241 48.3805C70.5425 48.4726 70.2107 48.5832 69.7867 48.6201C68.9202 48.6754 68.6806 48.362 69.5101 48.233C70.2107 48.1224 70.4872 48.1592 70.5241 48.3805ZM39.2211 48.4726C39.1658 48.5648 38.8339 48.657 38.4837 48.657C38.1334 48.657 37.8016 48.5648 37.7463 48.4726C37.6725 48.362 37.9675 48.2883 38.4837 48.2883C38.9998 48.2883 39.2948 48.362 39.2211 48.4726ZM63.1869 48.4726C63.1316 48.5648 62.7444 48.657 62.3388 48.657C61.9517 48.657 61.6199 48.5648 61.6199 48.4726C61.6199 48.362 62.007 48.2883 62.4679 48.2883C62.9656 48.2883 63.2606 48.362 63.1869 48.4726ZM35.958 50.9983L36.0133 52.7127H34.7966H33.5983V50.9614V49.1916L34.7597 49.2469L35.9027 49.3022L35.958 50.9983ZM67.2979 50.9983L67.3532 52.7127H66.0443H64.7539V51.6435C64.7539 51.072 64.8092 50.2793 64.8645 49.8921L64.9935 49.1916L66.1181 49.2469L67.2426 49.3022L67.2979 50.9983ZM28.9895 53.2658V57.1372H28.4549C28.1599 57.1372 27.7912 57.1925 27.6253 57.2478C27.3672 57.34 27.3304 56.9344 27.3304 53.487V49.5972L28.0309 49.5234C28.3996 49.4866 28.7683 49.4497 28.8605 49.4313C28.9342 49.4128 28.9895 51.1273 28.9895 53.2658ZM31.7548 53.1736V56.9528H31.2939H30.833V53.1736V49.3944H31.2939H31.7548V53.1736ZM38.7602 51.7541C38.7602 53.063 38.8155 54.759 38.8708 55.5333L38.9998 56.9528H38.4099H37.8384V53.1736V49.3944H38.2993H38.7602V51.7541ZM42.0785 51.2564V52.8971H41.3411H40.6037V51.1826V49.4681L41.3411 49.5419L42.0785 49.6156V51.2564ZM51.9229 49.8C51.9782 50.0396 52.0336 50.777 52.0336 51.4591V52.7127H50.4666H48.8996V51.0536V49.3944H50.3559C51.7017 49.3944 51.8123 49.4313 51.9229 49.8ZM60.3294 51.1457C60.3294 52.8418 60.311 52.8971 59.9238 52.8971C59.6842 52.8971 59.3155 52.9524 59.0942 53.0077C58.6702 53.1183 58.6702 53.0999 58.6702 51.367V49.5972L59.1864 49.5234C60.4031 49.3391 60.3294 49.2285 60.3294 51.1457ZM63.0947 53.1552C63.0947 55.4965 63.0209 56.9713 62.9103 57.045C62.7997 57.1003 62.5601 57.1003 62.3573 57.045C62.007 56.9344 61.9886 56.7685 61.9886 53.1552V49.3944H62.5416H63.0947V53.1552ZM70.1001 53.1921V56.9713L69.6023 56.916L69.0861 56.8607L69.0308 53.5423C68.9755 49.6709 69.0124 49.3944 69.6392 49.3944H70.1001V53.1921ZM73.6028 53.3395C73.6028 55.4227 73.5475 57.1556 73.4737 57.1925C73.3815 57.2294 73.0128 57.2294 72.6441 57.1925L71.9436 57.1003V53.3395V49.5788H72.7732H73.6028V53.3395ZM35.9949 55.5702V56.9528H34.7966H33.5983V55.5702V54.1876H34.7966H35.9949V55.5702ZM51.9967 55.4227L51.9414 56.6763L50.4297 56.7316L48.8996 56.7869V55.478V54.1876H50.4666H52.052L51.9967 55.4227ZM67.3348 55.5702V56.9528H66.0443H64.7539V55.5702V54.1876H66.0443H67.3348V55.5702ZM42.0785 55.7546V57.1372H41.3411H40.6037V55.7546V54.3719H41.3411H42.0785V55.7546ZM60.3294 55.7546V57.1372H59.4998H58.6702V55.8836C58.6702 55.1831 58.7255 54.5563 58.7993 54.501C58.8546 54.4272 59.2417 54.3719 59.6289 54.3719H60.3294V55.7546ZM53.6005 58.1511C53.6005 58.5014 53.4531 58.5198 50.4297 58.5751L47.2404 58.612V58.1511V57.6902L50.4297 57.7271C53.4531 57.7824 53.6005 57.8009 53.6005 58.1511ZM27.6622 58.6489C27.6253 58.9623 27.4594 59.0913 27.1091 59.1282C26.6667 59.1835 26.5929 59.1282 26.5929 58.7226C26.5929 58.317 26.6667 58.2433 27.1644 58.2433C27.6438 58.2433 27.7175 58.2986 27.6622 58.6489ZM39.7741 58.7042C39.7741 59.0545 39.6266 59.0729 34.9441 59.1282L30.0956 59.1651V58.7042V58.2433L34.9441 58.2802C39.6266 58.3355 39.7741 58.3539 39.7741 58.7042ZM70.985 58.6489L70.9297 59.0729L66.0996 59.1282L61.2512 59.1651V58.7042V58.2433H66.1549H71.0403L70.985 58.6489ZM74.5245 58.7042C74.5245 59.0913 74.4324 59.1651 73.9715 59.1651C73.5106 59.1651 73.4184 59.0913 73.4184 58.7042C73.4184 58.317 73.5106 58.2433 73.9715 58.2433C74.4324 58.2433 74.5245 58.317 74.5245 58.7042ZM49.2683 60.7689C49.2683 61.2114 49.1392 61.3404 48.4571 61.617C47.9962 61.8013 47.2588 62.3728 46.7795 62.8705C46.208 63.4789 45.784 63.7739 45.489 63.7739C44.8438 63.7739 44.9176 63.4605 45.8393 62.2806C46.3924 61.5801 46.9823 61.0823 47.6275 60.7505C48.8996 60.1237 49.2683 60.1237 49.2683 60.7689ZM52.8816 60.6215C53.8955 61.0823 55.1122 62.1884 55.5547 63.0733L55.9049 63.7739H55.2966C54.8173 63.7739 54.6145 63.6633 54.4301 63.313C54.1352 62.7599 53.2871 62.0778 52.3285 61.6354C51.7939 61.3773 51.6648 61.2114 51.6648 60.7874C51.6648 60.179 51.8492 60.1606 52.8816 60.6215ZM45.5812 60.6952C45.5812 60.7321 45.2494 61.0823 44.8438 61.4695L44.1064 62.1884V61.4142V60.6399H44.8438C45.2494 60.6399 45.5812 60.6583 45.5812 60.6952ZM56.6424 61.3773C56.6424 61.7829 56.6055 62.1147 56.5686 62.1147C56.5317 62.1147 56.2183 61.7829 55.9049 61.3773L55.315 60.6399H55.9787C56.6239 60.6399 56.6424 60.6583 56.6424 61.3773ZM40.7328 61.1192C41.3964 61.1929 41.8389 61.322 41.8389 61.4695C41.8389 61.7091 41.8942 61.7091 33.2849 61.8382C27.5147 61.9119 27.3304 61.9119 27.3304 61.5616C27.3304 61.2851 27.4963 61.1929 28.1231 61.1376C29.4873 61.027 39.5898 61.0086 40.7328 61.1192ZM72.0911 61.1376C73.2156 61.2114 73.6028 61.322 73.6028 61.5063C73.6028 61.7091 73.2894 61.7644 72.0911 61.746C71.2431 61.7276 67.8878 61.7644 64.6248 61.8382C58.7071 61.9672 58.6702 61.9672 58.6702 61.5985C58.6702 61.2851 58.8177 61.1929 59.3708 61.1376C60.5691 61.0086 70.5056 61.0086 72.0911 61.1376ZM39.4607 64.3638C39.4054 65.1012 39.3686 65.1565 38.8155 65.2118C38.2993 65.2671 38.2071 65.2118 38.2071 64.8984C38.2071 64.5297 38.115 64.5113 34.7966 64.5113C31.5889 64.5113 31.3677 64.5297 31.1649 64.88C30.9437 65.2303 30.1141 65.4146 30.0772 65.1012C30.0035 64.3269 29.985 63.8476 30.0403 63.7186C30.0772 63.6448 32.2341 63.5895 34.8151 63.5895H39.516L39.4607 64.3638ZM70.8375 64.4191C70.8375 65.1934 70.8006 65.2487 70.3582 65.2487C70.0448 65.2487 69.842 65.1381 69.7867 64.88C69.6945 64.5297 69.5286 64.5113 66.1918 64.5113C62.855 64.5113 62.6891 64.5297 62.5969 64.88C62.5232 65.1381 62.3388 65.2487 61.9701 65.2487C61.454 65.2487 61.4355 65.2118 61.4355 64.4191V63.5895H66.1365H70.8375V64.4191ZM28.6208 64.2163C28.6208 64.3638 28.3443 64.5113 27.9387 64.5666C27.1644 64.6956 27.0538 64.6403 27.2013 64.2348C27.3488 63.866 28.6208 63.8476 28.6208 64.2163ZM60.1451 64.2348C60.1451 64.3822 59.9976 64.5113 59.8317 64.5113C59.6473 64.5113 59.1864 64.5666 58.8177 64.6219C58.2647 64.7141 58.1172 64.6772 58.1172 64.456C58.1172 64.0873 58.3937 63.9951 59.3708 63.9767C59.9423 63.9582 60.1451 64.032 60.1451 64.2348ZM28.6208 65.2487C28.6208 65.3409 28.3259 65.433 27.9756 65.433C27.6253 65.433 27.3304 65.3409 27.3304 65.2487C27.3304 65.1381 27.6253 65.0643 27.9756 65.0643C28.3259 65.0643 28.6208 65.1381 28.6208 65.2487ZM45.6918 65.6358C45.6365 65.9492 45.5812 66.3732 45.5812 66.5576C45.5812 66.8341 45.4337 66.9079 44.8438 66.9079C44.1617 66.9079 44.1064 66.871 44.1064 66.3917C44.1064 65.2856 44.2723 65.0643 45.065 65.0643C45.8024 65.0643 45.8024 65.0643 45.6918 65.6358ZM56.5317 65.3593C56.5871 65.5252 56.6424 65.9308 56.6424 66.2811C56.6424 66.8894 56.6239 66.9079 55.9234 66.9079H55.2044L55.1307 65.9861L55.0754 65.0643H55.739C56.1815 65.0643 56.458 65.1565 56.5317 65.3593ZM59.9607 65.2487C59.9607 65.3409 59.6657 65.433 59.3155 65.433C58.9652 65.433 58.6702 65.3409 58.6702 65.2487C58.6702 65.1381 58.9652 65.0643 59.3155 65.0643C59.6657 65.0643 59.9607 65.1381 59.9607 65.2487ZM31.7548 65.9861C31.7548 66.0783 31.423 66.1705 30.999 66.1705C30.5565 66.1705 30.2984 66.0967 30.3722 65.9861C30.4275 65.8755 30.7777 65.8017 31.128 65.8017C31.4783 65.8017 31.7548 65.8755 31.7548 65.9861ZM39.2211 65.9861C39.2948 66.0967 38.9998 66.1705 38.5021 66.1705C38.0412 66.1705 37.6541 66.0783 37.6541 65.9861C37.6541 65.8755 37.9859 65.8017 38.3731 65.8017C38.7786 65.8017 39.1658 65.8755 39.2211 65.9861ZM63.0947 66.0783C63.0947 66.2811 62.8919 66.3548 62.3573 66.3548C61.6567 66.3548 61.454 66.2073 61.7489 65.9308C61.8042 65.8571 62.1361 65.8017 62.4863 65.8017C62.9103 65.8017 63.0947 65.8939 63.0947 66.0783ZM70.561 65.9861C70.6347 66.0967 70.3397 66.1705 69.8235 66.1705C69.3074 66.1705 69.0124 66.0967 69.0861 65.9861C69.1414 65.8755 69.4733 65.8017 69.8235 65.8017C70.1738 65.8017 70.5056 65.8755 70.561 65.9861ZM52.9553 67V67.4609H50.4666H47.9778V67V66.5392H50.4666H52.9553V67ZM35.9949 68.4749V70.2262H34.7966H33.5983V68.4749V66.7235H34.7966H35.9949V68.4749ZM67.3348 68.4749V70.2446L66.0996 70.1893L64.846 70.134L64.7907 69.2123C64.7539 68.6961 64.7723 67.9402 64.846 67.4978L64.9566 66.7235H66.1549H67.3348V68.4749ZM31.7548 70.6871V74.282H31.2939H30.833V70.8161C30.833 68.8989 30.8883 67.2766 30.9621 67.2213C31.0174 67.1475 31.2386 67.0922 31.423 67.0922C31.7364 67.0922 31.7548 67.3319 31.7548 70.6871ZM38.7602 70.6871V74.282H38.2993H37.8384V70.6871V67.0922H38.2993H38.7602V70.6871ZM63.0578 70.724L63.0947 74.282H62.5416H61.9886V70.8161C61.9886 68.8989 62.0439 67.2766 62.1176 67.2028C62.1914 67.1291 62.4126 67.0922 62.6338 67.1291C62.9841 67.1844 63.0025 67.3134 63.0578 70.724ZM70.0632 70.724L70.1001 74.282H69.6576C69.418 74.282 69.1783 74.1713 69.123 74.0423C68.994 73.692 68.9571 67.4794 69.0861 67.2581C69.1599 67.166 69.3995 67.0922 69.6023 67.1291C70.0079 67.1844 70.0079 67.2581 70.0632 70.724ZM28.9895 70.9636V74.4663H28.1599H27.3304V70.9636V67.4609H28.1599H28.9895V70.9636ZM42.0785 70.982V74.4847L41.3964 74.4294L40.6959 74.3741L40.6406 70.9083L40.6037 67.4609H41.3411H42.0785V70.982ZM60.2925 70.9083L60.2372 74.3741H59.4998H58.7624L58.7071 71.148C58.6887 69.3782 58.7071 67.8296 58.744 67.7006C58.7993 67.5531 59.1496 67.4609 59.592 67.4609H60.3294L60.2925 70.9083ZM73.4922 67.7559C73.5475 67.9218 73.6028 69.4519 73.6028 71.1664V74.282H72.7732H71.9436V70.8714V67.4609H72.6626C73.1419 67.4609 73.4184 67.5531 73.4922 67.7559ZM45.9499 71.7932V74.6507H45.0282C44.2355 74.6507 44.1064 74.5954 44.1064 74.282C44.1064 74.0054 44.2355 73.9132 44.5673 73.9132C44.9544 73.9132 45.0282 73.8211 45.0282 73.3602C45.0282 72.8993 44.9544 72.8071 44.5673 72.8071C44.2355 72.8071 44.1064 72.715 44.1064 72.4384C44.1064 72.1619 44.2355 72.0697 44.5673 72.0697C44.936 72.0697 45.0282 71.9776 45.0282 71.6088C45.0282 71.2401 44.936 71.148 44.5673 71.148C44.2355 71.148 44.1064 71.0558 44.1064 70.7793C44.1064 70.5027 44.2355 70.4106 44.5673 70.4106C44.936 70.4106 45.0282 70.3184 45.0282 69.9497C45.0282 69.581 44.936 69.4888 44.5673 69.4888C44.2723 69.4888 44.1064 69.3782 44.1064 69.2123C44.1064 69.0095 44.3276 68.9357 45.0282 68.9357H45.9499V71.7932ZM56.6424 69.2123C56.6424 69.3782 56.4764 69.4888 56.1815 69.4888C55.8128 69.4888 55.7206 69.581 55.7206 69.9497C55.7206 70.3184 55.8128 70.4106 56.1815 70.4106C56.5133 70.4106 56.6424 70.5027 56.6424 70.7793C56.6424 71.0558 56.5133 71.148 56.1815 71.148C55.8128 71.148 55.7206 71.2401 55.7206 71.6088C55.7206 71.9776 55.8128 72.0697 56.1815 72.0697C56.7898 72.0697 56.8267 72.7518 56.2368 72.844C55.9418 72.8809 55.7943 73.0468 55.7575 73.3971C55.7022 73.8211 55.7759 73.8948 56.2183 73.9501C56.5317 73.987 56.7345 74.116 56.7345 74.282C56.7345 74.4847 56.4949 74.5769 55.8681 74.6138L54.9832 74.6691V71.8116V68.9357H55.8128C56.4211 68.9357 56.6424 69.0095 56.6424 69.2123ZM49.0839 72.2541V74.6507H48.623H48.1622V72.2541V69.8575H48.623H49.0839V72.2541ZM52.771 72.2725V74.6691L52.2732 74.6138L51.757 74.5585L51.7017 72.1988L51.6464 69.8575H52.2179H52.771V72.2725ZM35.958 72.844L35.9027 74.1898L34.7597 74.2451L33.5983 74.3004V72.8993V71.5167H34.7966H36.0133L35.958 72.844ZM67.3348 72.8993V74.3004L66.0996 74.2451L64.846 74.1898L64.7907 72.844L64.7354 71.5167H66.0443H67.3348V72.8993ZM50.7247 73.2496C50.8906 73.4339 50.8721 73.5445 50.6509 73.7289C50.3006 74.0239 49.8951 73.7105 50.061 73.2865C50.2085 72.9177 50.4481 72.9177 50.7247 73.2496ZM23.0903 74.3741C23.0903 74.7613 22.9981 74.835 22.5372 74.835C22.0763 74.835 21.9841 74.7613 21.9841 74.3741C21.9841 73.987 22.0763 73.9132 22.5372 73.9132C22.9981 73.9132 23.0903 73.987 23.0903 74.3741ZM78.9121 74.3188C78.8752 74.6507 78.7093 74.7613 78.2669 74.7981C77.935 74.835 77.6585 74.7797 77.6585 74.6691C77.6585 74.1713 77.9166 73.9132 78.4328 73.9132C78.8937 73.9132 78.9674 73.987 78.9121 74.3188ZM39.8663 75.6646V76.1255H34.8888C30.1878 76.1255 29.9113 76.107 29.9113 75.7936C29.9113 75.6093 29.9666 75.3881 30.0403 75.3328C30.0956 75.259 32.3447 75.2037 35.0178 75.2037H39.8663V75.6646ZM71.0218 75.6646V76.1255H66.0628C63.279 76.1255 61.0484 76.0517 60.9931 75.9596C60.9193 75.8674 60.9378 75.6646 60.9931 75.4987C61.0852 75.2406 61.6936 75.2037 66.0628 75.2037H71.0218V75.6646ZM27.6991 75.7568C27.6991 76.0517 27.57 76.1255 27.0538 76.1255C26.5376 76.1255 26.4086 76.0517 26.4086 75.7568C26.4086 75.4618 26.5376 75.3881 27.0538 75.3881C27.57 75.3881 27.6991 75.4618 27.6991 75.7568ZM74.5245 75.7568C74.5245 76.0517 74.3955 76.1255 73.8793 76.1255C73.3631 76.1255 73.2341 76.0517 73.2341 75.7568C73.2341 75.4618 73.3631 75.3881 73.8793 75.3881C74.3955 75.3881 74.5245 75.4618 74.5245 75.7568ZM44.7701 76.5311C44.6595 77.1763 44.2908 80.5868 44.2908 80.9186C44.2908 81.0108 43.9958 81.103 43.6455 81.103C42.8712 81.103 42.8712 81.1583 43.3137 78.098L43.6087 75.9411H44.2355C44.8438 75.9411 44.8623 75.9596 44.7701 76.5311ZM57.5457 77.6372C57.6563 78.5774 57.8038 79.7388 57.8775 80.2181L57.9881 81.103H57.306C56.9373 81.103 56.6424 81.0477 56.6424 80.9555C56.6424 80.8818 56.5133 79.831 56.3658 78.6142C56.2183 77.3975 56.0893 76.2914 56.0893 76.1623C56.0893 76.0333 56.329 75.9411 56.7161 75.9411H57.3245L57.5457 77.6372ZM39.7373 78.0796C41.802 78.2087 42.2813 78.5221 40.4009 78.5221C39.5529 78.5221 39.3132 78.5774 39.3132 78.7986C39.3132 79.0382 38.5021 79.0751 33.0453 79.0751H26.7773V78.6511C26.7773 78.4114 26.8326 78.1534 26.9063 78.098C27.0538 77.9321 37.1748 77.9321 39.7373 78.0796ZM73.8609 78.1534C73.9162 78.2087 73.9162 78.4483 73.8609 78.6511C73.7503 79.0567 73.7134 79.0567 68.3672 79.0751C65.4175 79.0751 62.1914 79.0198 61.2143 78.9645C59.6473 78.8539 59.4076 78.7986 59.4076 78.5036C59.4076 78.2824 59.5736 78.1534 59.9238 78.098C60.6244 77.969 73.7318 78.0427 73.8609 78.1534ZM54.762 79.0198C54.7067 79.3148 54.338 79.3516 50.5034 79.4069C46.4108 79.4438 46.3186 79.4438 46.3186 79.0751C46.3186 78.7248 46.4292 78.7064 50.5772 78.7064C54.5223 78.7064 54.8173 78.7248 54.762 79.0198ZM80.7925 79.4438C80.7925 79.7388 80.6635 79.8125 80.2394 79.8125C79.8154 79.8125 79.6864 79.7388 79.6864 79.4438C79.6864 79.1489 79.8154 79.0751 80.2394 79.0751C80.6635 79.0751 80.7925 79.1489 80.7925 79.4438ZM54.7067 81.1952C54.7067 81.527 54.5592 81.5639 53.195 81.6192L51.6648 81.6745V82.3013V82.9465H53.2318C54.7804 82.9465 54.7988 82.9465 54.7988 83.4074V83.8683H51.9414H49.0839V84.5135V85.1403L51.9045 85.1956C54.5592 85.2509 54.7067 85.2693 54.7067 85.6196C54.7067 85.933 54.5592 85.9883 53.748 86.0436C52.8447 86.0989 52.771 86.1358 52.771 86.5598C52.771 86.9285 52.6788 87.0023 52.2179 87.0023C51.757 87.0023 51.6833 86.9285 51.7202 86.5782C51.757 86.1727 51.7386 86.1727 48.9549 86.1174L46.1343 86.0621V85.6196C46.1343 85.1956 46.1896 85.1587 47.056 85.1587H47.9778V84.5135V83.8683H47.0376C46.1712 83.8683 46.1158 83.8314 46.1712 83.4443C46.2265 83.0571 46.3002 83.0387 48.4018 82.9834L50.5587 82.9281V82.3013V81.656H48.4571C46.3371 81.656 45.9868 81.5454 46.208 80.9924C46.3002 80.7712 46.9454 80.7343 50.5034 80.7712C54.5592 80.8265 54.7067 80.8449 54.7067 81.1952ZM40.0138 81.2689C40.5668 81.2873 40.7881 81.3611 40.7881 81.5639C40.7881 81.7482 40.6037 81.8404 40.1613 81.8404C39.811 81.8404 39.4976 81.951 39.4423 82.0616C39.387 82.246 38.2993 82.3013 34.8704 82.2828C30.7593 82.2644 30.3722 82.246 30.3169 81.951C30.1694 81.2136 30.2616 81.1952 34.8151 81.2136C37.2485 81.232 39.5713 81.2505 40.0138 81.2689ZM70.4688 81.8404C70.4688 82.375 70.3766 82.6147 70.1185 82.7622C69.5655 83.0571 69.1599 82.9834 69.0493 82.5778C68.9571 82.2275 68.7912 82.2091 66.1181 82.2091H63.279V82.67C63.279 82.9834 63.1684 83.1309 62.9656 83.1493C62.6522 83.1677 62.6522 83.1862 62.9656 83.2599C63.1316 83.2968 63.279 83.4627 63.279 83.6102C63.279 83.7945 63.0394 83.8683 62.3573 83.8683C61.4355 83.8683 61.0852 83.5549 61.8042 83.3705C62.2467 83.2599 62.2651 83.094 61.8964 82.3935C61.6567 81.9141 61.5093 81.8404 60.8825 81.8404C60.3663 81.8404 60.1451 81.7667 60.1451 81.5823C60.1451 81.2136 60.7719 81.1767 66.0996 81.1399L70.4688 81.103V81.8404ZM75.9993 82.5962V83.8683H75.3541C74.7458 83.8683 74.7089 83.9051 74.7089 84.5135C74.7089 85.1034 74.7458 85.1587 75.2435 85.1587C75.9256 85.1587 75.9625 85.2325 75.8519 86.2095L75.7781 87.0023H73.953C72.2939 87.0023 72.1279 86.9654 72.1279 86.652C72.1279 86.4676 72.0726 86.0436 72.0173 85.7302L71.9067 85.1587H72.7547C73.6028 85.1587 73.6028 85.1587 73.6028 84.5135C73.6028 83.8867 73.5843 83.8683 72.8654 83.8683C72.3307 83.8683 72.1279 83.7945 72.1279 83.5917C72.1279 83.389 72.3492 83.3152 72.9575 83.3152C73.7503 83.3152 73.7871 83.2968 73.7871 82.7806C73.7871 82.2644 73.7503 82.2275 72.9207 82.1722C72.1648 82.1169 72.0358 82.0616 71.9805 81.7113C71.9252 81.3058 71.9805 81.3058 73.824 81.2505C74.8748 81.2136 75.7781 81.2136 75.8703 81.2505C75.944 81.2873 75.9993 81.8773 75.9993 82.5962ZM28.8052 81.7482C28.8052 82.1907 28.7499 82.2091 27.6991 82.2091H26.5929V82.7622V83.3152H27.6991C28.5655 83.3152 28.8052 83.3705 28.8052 83.5917C28.8052 83.7945 28.6024 83.8683 28.0678 83.8683C27.3488 83.8683 27.3304 83.8867 27.3304 84.5135C27.3304 85.1403 27.3488 85.1587 28.0309 85.1587C28.418 85.1587 28.7867 85.1956 28.8236 85.2325C28.8605 85.2878 28.8789 85.6934 28.842 86.1542L28.7683 87.0023H26.9616H25.155L25.0813 86.2095C24.9706 85.2325 25.0075 85.1587 25.6896 85.1587C26.1874 85.1587 26.2242 85.1034 26.2242 84.5135C26.2242 83.9051 26.1874 83.8683 25.579 83.8683H24.9338V82.5778V81.2873H26.8695H28.8052V81.7482ZM44.4751 83.2046C44.4751 83.9051 44.2539 84.0526 43.2584 84.0526C42.2813 84.0526 42.2629 84.0526 42.2629 83.4996V82.9465H43.369C44.1986 82.9465 44.4751 83.0203 44.4751 83.2046ZM58.8546 83.2046C58.8546 83.9051 58.6334 84.0526 57.6563 84.0526C56.8083 84.0526 56.6792 83.9973 56.5871 83.647C56.4211 83.0387 56.5686 82.9465 57.7669 82.9465C58.5781 82.9465 58.8546 83.0203 58.8546 83.2046ZM70.1738 83.3152C70.9112 83.5917 70.7453 83.8683 69.8235 83.8683C69.2521 83.8683 68.994 83.7945 68.994 83.6286C68.994 83.1124 69.3811 83.0018 70.1738 83.3152ZM31.7548 83.5917C31.7548 83.7945 31.552 83.8683 31.0174 83.8683C30.4828 83.8683 30.28 83.7945 30.28 83.5917C30.28 83.389 30.4828 83.3152 31.0174 83.3152C31.552 83.3152 31.7548 83.389 31.7548 83.5917ZM39.2764 83.6286C39.3132 83.7945 39.092 83.8683 38.5021 83.8683C37.7094 83.8683 37.4882 83.7392 37.7831 83.4258C38.0043 83.223 39.1842 83.389 39.2764 83.6286ZM35.9949 85.5274V87.0023H34.7044H33.414V86.0989C33.414 85.6012 33.4693 84.9375 33.5246 84.6241C33.6352 84.0526 33.6536 84.0526 34.8151 84.0526H35.9949V85.5274ZM67.3348 85.5274V87.0023H66.0443H64.7539V86.0989C64.7539 85.6012 64.8092 84.9375 64.8645 84.6241C64.9751 84.0526 64.9935 84.0526 66.1549 84.0526H67.3348V85.5274ZM31.7548 86.1727V87.0023H31.0174H30.28V86.1727V85.3431H31.0174H31.7548V86.1727ZM39.2395 85.7487C39.1842 85.9883 39.1289 86.357 39.1289 86.5782C39.1289 86.947 39.0367 87.0023 38.4837 87.0023C37.8384 87.0023 37.8384 87.0023 37.8384 86.1727V85.3431H38.5943C39.2948 85.3431 39.3501 85.38 39.2395 85.7487ZM63.0578 86.1174C63.0025 86.8548 62.9656 86.9101 62.4126 86.9654C61.8227 87.0207 61.8042 87.0023 61.8042 86.3755C61.8042 86.0068 61.7305 85.7118 61.6199 85.7118C61.5277 85.7118 61.4355 85.6196 61.4355 85.5274C61.4355 85.4168 61.8227 85.3431 62.2835 85.3431H63.1131L63.0578 86.1174ZM70.5794 85.6381C70.5241 85.804 70.4688 86.1727 70.4688 86.4676C70.4688 86.9654 70.4135 87.0023 69.8235 87.0023C69.2336 87.0023 69.1783 86.9654 69.1783 86.4676C69.1783 86.1727 69.123 85.804 69.0677 85.6381C68.9755 85.3984 69.1046 85.3431 69.8235 85.3431C70.5425 85.3431 70.6716 85.3984 70.5794 85.6381ZM44.4751 86.5414C44.4751 86.9838 44.4382 87.0023 43.2768 87.0023C42.2444 87.0023 42.0785 86.9654 42.0785 86.6704C42.0785 86.1542 42.226 86.0805 43.4059 86.0805C44.4198 86.0805 44.4751 86.0989 44.4751 86.5414ZM58.8546 86.5414C58.8546 86.9838 58.8177 87.0023 57.6563 87.0023C56.4949 87.0023 56.458 86.9838 56.458 86.5414C56.458 86.0989 56.4949 86.0805 57.6563 86.0805C58.8177 86.0805 58.8546 86.0989 58.8546 86.5414Z" fill="#A1987B"/>
<path d="M28.842 24.4515C28.8789 24.8571 28.9895 24.9677 29.3582 24.9677C29.7269 24.9677 29.8191 24.8755 29.8191 24.5068C29.8191 24.1381 29.7085 24.0275 29.3029 23.9906C28.8236 23.9353 28.7867 23.9722 28.842 24.4515Z" fill="#A1987B"/>
<path d="M30.87 24.4515C30.9069 24.8571 31.0175 24.9677 31.3862 24.9677C31.7549 24.9677 31.8471 24.8755 31.8471 24.5068C31.8471 24.1381 31.7365 24.0275 31.3309 23.9906C30.8516 23.9353 30.8147 23.9722 30.87 24.4515Z" fill="#A1987B"/>
<path d="M60.3847 23.8984C60.2556 23.9353 60.145 24.2303 60.145 24.5252C60.145 25.0598 60.1819 25.0783 60.8456 25.023C61.4724 24.9677 61.5277 24.9124 61.583 24.3593C61.6383 23.8247 61.6014 23.7694 61.1221 23.7878C60.8456 23.7878 60.4953 23.8431 60.3847 23.8984Z" fill="#A1987B"/>
<path d="M68.9941 24.5068C68.9941 25.0046 69.0494 25.0599 69.5471 25.0599C70.0449 25.0599 70.1002 25.0046 70.1002 24.5068C70.1002 24.0091 70.0449 23.9538 69.5471 23.9538C69.0494 23.9538 68.9941 24.0091 68.9941 24.5068Z" fill="#A1987B"/>
<path d="M71.0588 24.4515C71.0957 24.8571 71.2247 24.9861 71.6303 25.023C72.0727 25.0783 72.128 25.023 72.128 24.5253C72.128 24.0091 72.0727 23.9538 71.5565 23.9538C71.0588 23.9538 71.0035 24.0091 71.0588 24.4515Z" fill="#A1987B"/>
<path d="M46.3186 24.599C46.3186 24.9861 46.4108 25.0599 46.8717 25.0599C47.3325 25.0599 47.4247 24.9861 47.4247 24.599C47.4247 24.2119 47.3325 24.1381 46.8717 24.1381C46.4108 24.1381 46.3186 24.2119 46.3186 24.599Z" fill="#A1987B"/>
<path d="M53.324 24.599C53.324 25.0414 53.3793 25.0783 53.9323 25.023C54.3748 24.9861 54.5223 24.8755 54.5223 24.599C54.5223 24.3225 54.3748 24.2119 53.9323 24.175C53.3793 24.1197 53.324 24.1565 53.324 24.599Z" fill="#A1987B"/>
<path d="M70.9851 78.6511C71.1141 78.7064 71.28 78.6879 71.3353 78.6326C71.4091 78.5773 71.2985 78.522 71.0957 78.5404C70.8929 78.5404 70.8376 78.5957 70.9851 78.6511Z" fill="#A1987B"/>
</svg>
