<svg width="101" height="101" viewBox="0 0 101 101" fill="none" xmlns="http://www.w3.org/2000/svg">
<path d="M47.3457 13.6309C45.5759 15.1979 43.1609 17.3179 41.9995 18.3134C39.8979 20.1201 39.8795 20.1385 38.9208 20.1385H37.9438V18.5899C37.9438 16.3962 38.0359 16.4515 34.4595 16.4515C32.4501 16.4515 31.4914 16.5252 31.344 16.6727C31.1965 16.8202 31.1227 17.5023 31.1227 18.5162V20.1385H30.0166C29.0764 20.1385 28.8736 20.1938 28.6524 20.5441C28.3943 20.9497 25.6659 29.5589 24.8179 32.6192L24.3939 34.1493H23.2878C21.4627 34.1493 21.2783 34.5364 22.1632 36.5274C22.5135 37.3017 23.3062 39.1821 23.9146 40.7122L25.0391 43.4959V48.6762V53.8381L24.5782 53.9487C24.1542 54.0593 23.7486 54.6677 23.7486 55.2023C23.7486 55.2945 24.0252 55.6448 24.3386 55.9397C24.9285 56.4928 24.9469 56.5296 25.0022 58.3916L25.076 60.2904L24.5598 60.6223C22.2923 62.0049 22.0895 62.1708 22.0895 62.7239C22.0895 63.2401 22.2001 63.406 22.8637 63.8853C23.0481 64.0143 23.6012 65.0467 24.1173 66.2081L25.0391 68.2913V71.7387V75.1861L24.4676 75.3889C23.9514 75.5917 23.9146 75.6654 23.9699 76.4028C24.0067 77.0296 24.1173 77.2324 24.4492 77.3799C24.9838 77.6195 25.076 77.9882 25.0022 79.5921C24.9469 80.7167 24.8916 80.8826 24.5782 80.9379C23.933 81.0485 23.7486 81.5278 23.7486 83.0579C23.7486 84.6618 23.9146 85.1411 24.5967 85.3992C25.0207 85.5651 25.0391 85.6389 25.0391 87.2427V88.9019H21.4627C18.4393 88.9019 17.8309 88.9572 17.5913 89.1969C17.2226 89.5656 17.2226 90.0818 17.5913 90.4505C17.8494 90.7086 21.094 90.7454 50.6456 90.7454C82.1699 90.7454 83.4419 90.727 83.7184 90.4136C84.1424 89.9527 84.1056 89.3259 83.6816 89.0863C83.4603 88.9756 81.9302 88.9019 79.9945 88.9019H76.6577V87.2612C76.6577 85.6389 76.6762 85.602 77.1555 85.3623C77.7454 85.0858 77.8929 84.5881 77.9298 82.763C77.9482 81.6384 77.8929 81.4725 77.4505 81.0485L76.9711 80.606L77.1002 77.4905C77.1924 74.8174 77.1739 74.3565 76.9343 74.1537C76.6762 73.9509 76.6577 73.5085 76.7499 71.1303C76.8605 68.4019 76.879 68.3098 77.7085 66.0975C78.2985 64.5121 78.6487 63.8116 78.8884 63.7378C79.2571 63.6088 79.4968 62.982 79.3862 62.4289C79.3493 62.2446 78.7225 61.6915 77.9851 61.2122L76.6577 60.3273V58.2994V56.29L77.1739 56.0503C77.5611 55.866 77.6901 55.6632 77.727 55.1101C77.7823 54.5018 77.7085 54.3912 77.2108 54.0962L76.6577 53.7828L76.6946 48.3444L76.7499 42.906L78.3722 39.1268C79.2387 37.0436 79.9761 35.1632 79.9761 34.9604C79.9761 34.3705 79.6258 34.1677 78.4091 34.1124L77.3214 34.0571L75.5885 28.4344C74.6299 25.3372 73.7081 22.277 73.5053 21.6318C73.321 20.9681 73.0629 20.3782 72.9338 20.286C72.8048 20.2122 70.2238 20.1385 67.2005 20.1385H61.7068L58.3516 17.152C56.508 15.5113 54.1483 13.3912 53.116 12.451C52.0651 11.5108 51.0696 10.7365 50.9037 10.755C50.7194 10.755 49.1155 12.0454 47.3457 13.6309ZM51.8808 13.723C52.3785 14.1655 54.6461 16.1749 56.9136 18.2028C59.1996 20.2307 61.3381 22.1295 61.6883 22.4429L62.3151 22.996L61.8727 23.4015L61.4302 23.8255L58.9599 21.5765C57.5957 20.3597 55.2544 18.2397 53.7612 16.8939C52.2679 15.5297 50.959 14.4236 50.83 14.4236C50.6272 14.4236 48.968 15.8431 46.5161 18.1106C45.1519 19.3642 41.9995 22.2217 40.9487 23.1619L40.156 23.8624L39.8057 23.4384C39.5292 23.1066 39.4923 22.9407 39.6582 22.7379C39.7688 22.6088 41.4465 21.0971 43.3822 19.4011C49.0049 14.4605 50.7378 12.9488 50.8669 12.9488C50.9222 12.9488 51.383 13.299 51.8808 13.723ZM51.8071 17.3179C52.2495 17.7051 54.0377 19.3274 55.7706 20.9312L58.9599 23.844V29.0058V34.1493H50.8484H42.7369L42.7738 28.9505L42.8291 23.7518L45.0045 21.7608C47.991 19.014 50.7194 16.6358 50.8853 16.6358C50.9775 16.6358 51.383 16.9492 51.8071 17.3179ZM36.2846 19.2167C36.2846 20.0648 36.2477 20.1385 35.8421 20.1385C35.4919 20.1385 35.3813 20.0279 35.326 19.6223C35.2707 19.1983 35.1785 19.1246 34.5886 19.0693C33.9249 19.014 33.888 19.0324 33.888 19.5854C33.888 20.1016 33.8327 20.1569 33.3903 20.1016C32.9478 20.0648 32.8556 19.9542 32.8188 19.438C32.7082 18.3503 32.7819 18.295 34.6254 18.295H36.2846V19.2167ZM37.4276 22.8485C37.7041 23.125 37.9438 23.4015 37.9438 23.4937C37.9438 23.5675 36.0634 23.6412 33.7774 23.6412H29.6295L29.7585 23.2172C30.0166 22.3692 30.0719 22.3507 33.5746 22.3507H36.9114L37.4276 22.8485ZM71.8093 23.0328L72.0489 23.6412H67.8826H63.7346L64.1218 23.0881C64.4905 22.572 64.5642 22.5535 66.205 22.4798C67.1452 22.4429 68.7306 22.4245 69.7261 22.4245L71.5696 22.4429L71.8093 23.0328ZM39.4186 25.5769L40.0454 26.2221H34.3858H28.7261L28.9289 25.7428C29.0211 25.4663 29.1502 25.1713 29.2055 25.0976C29.2608 25.0054 31.4361 24.9317 34.0539 24.9317H38.7918L39.4186 25.5769ZM72.602 25.411C72.7126 25.6691 72.7863 25.964 72.7863 26.0562C72.7863 26.1484 70.5925 26.2221 67.3295 26.2221H61.8911L62.2783 25.6691C62.647 25.1345 62.7023 25.1345 64.5458 25.0607C65.5782 25.0423 67.772 24.987 69.4311 24.9685L72.4176 24.9317L72.602 25.411ZM40.709 27.7338C40.709 27.8629 40.7644 28.1578 40.8197 28.3791L40.9303 28.8031H34.4595C30.9015 28.8031 27.9887 28.7662 27.9887 28.7293C27.9887 28.7109 28.0809 28.4159 28.1915 28.0841L28.3943 27.5126H34.5517C39.3448 27.5126 40.709 27.5679 40.709 27.7338ZM73.5053 28.0841C73.6159 28.4159 73.7081 28.7109 73.7081 28.7293C73.7081 28.7662 70.8138 28.8031 67.2558 28.8031C60.4716 28.8031 60.4532 28.8031 61.0431 28.0103C61.3012 27.6601 62.1492 27.6048 69.044 27.5495L73.3025 27.5126L73.5053 28.0841ZM40.8565 30.8678L40.8012 31.4762L33.9433 31.5315C30.1641 31.5499 27.067 31.5499 27.067 31.513C27.067 31.4762 27.1592 31.1812 27.2698 30.8494L27.4726 30.2779H34.2014H40.9118L40.8565 30.8678ZM74.4271 30.8494C74.5377 31.1812 74.6299 31.4762 74.6299 31.4946C74.6299 31.6236 63.6609 31.5683 62.223 31.4577C60.8219 31.3287 60.8034 31.3287 60.8034 30.8125V30.2779H67.5139H74.2243L74.4271 30.8494ZM40.8934 33.504V34.1493H33.5193C29.4636 34.1493 26.1452 34.1124 26.1452 34.0755C26.1452 34.0571 26.2374 33.7621 26.348 33.4303L26.5508 32.8588H33.7221H40.8934V33.504ZM75.312 33.504L75.5148 34.1493H68.1591H60.8034V33.504V32.8588H67.9563H75.1276L75.312 33.504ZM77.9482 36.1956C77.9482 36.3062 77.856 36.5459 77.7639 36.7486C77.5611 37.0989 77.0817 37.0989 50.83 37.0989H24.1173L23.933 36.6196C23.8224 36.3615 23.7486 36.1218 23.7486 36.0665C23.7486 36.0297 35.9528 35.9928 50.8484 35.9928C69.9104 35.9928 77.9482 36.0481 77.9482 36.1956ZM42.9213 39.1084C43.8983 39.3849 44.138 39.5139 44.1749 39.8642C44.2486 40.2513 44.1933 40.2698 43.4375 40.1592C43.0134 40.0854 39.9163 39.9748 36.5611 39.9195C30.9752 39.8273 28.9289 39.9195 26.9379 40.3435C26.5877 40.4173 26.5139 40.3435 26.5139 39.9748C26.5139 39.5877 26.6245 39.4955 27.2145 39.4033C27.5832 39.3296 28.1915 39.2005 28.5418 39.1084C29.4451 38.8687 29.611 38.9056 29.7032 39.2558C29.777 39.5139 29.7954 39.4771 29.8138 39.1637L29.8323 38.7581H35.7868C40.9487 38.7765 41.8889 38.8134 42.9213 39.1084ZM73.1182 39.1637C74.9801 39.5139 75.1829 39.5877 75.1829 39.9564C75.1829 40.3251 75.1276 40.3435 74.1321 40.1776C73.5422 40.0854 70.4082 39.9748 67.1636 39.9195C61.6883 39.8458 60.2688 39.9011 58.0013 40.3435C57.5404 40.4357 57.4851 40.3988 57.4851 39.9748C57.4851 39.643 57.5957 39.4771 57.9091 39.4033C58.1303 39.348 58.8124 39.2005 59.4208 39.053C60.232 38.8687 61.9649 38.7765 65.781 38.7765C70.4819 38.7581 71.2562 38.795 73.1182 39.1637ZM55.4757 40.2329C55.5494 40.3804 55.7153 40.8044 55.8444 41.1547C55.9734 41.5049 56.4343 42.1686 56.8399 42.6295C57.2454 43.0904 57.8169 43.7725 58.0935 44.1412L58.5912 44.8233V49.3399V53.875H57.5957C56.0103 53.875 55.531 54.7414 56.4712 55.866C57.1348 56.6587 57.5957 59.0368 57.0795 59.0368C56.9689 59.0368 55.5678 58.1704 53.9824 57.1011C52.397 56.0319 50.9959 55.1654 50.8669 55.1654C50.7562 55.1654 49.5211 55.9028 48.12 56.7877C46.7374 57.6911 45.5022 58.4653 45.3916 58.5391C45.1335 58.6866 45.5206 56.6587 45.9631 55.5894C46.2765 54.852 46.2765 54.7783 45.9815 54.3358C45.7234 53.9487 45.5391 53.875 44.7648 53.875H43.843V49.4136V44.9708L44.562 44.0306C44.9676 43.5144 45.6313 42.353 46.0368 41.4681L46.7742 39.8642L51.0512 39.9011C54.6276 39.9564 55.3466 39.9932 55.4757 40.2329ZM42.5341 41.9289C43.0503 42.0396 43.4743 42.2055 43.4743 42.2792C43.4743 42.7585 43.1978 42.9982 42.6263 42.9982H41.9995V48.4366V53.875H41.2621H40.5247V48.4366V42.9982H36.1002H31.6758V48.4366V53.875H30.8462H30.0166V48.4366V42.9982H28.4312C26.9011 42.9982 26.8642 42.9798 26.9195 42.5742C26.9748 42.2055 27.1407 42.1502 28.4496 41.9658C30.5144 41.6708 41.3358 41.6524 42.5341 41.9289ZM72.8416 41.9289C74.5193 42.1317 74.6299 42.1686 74.6299 42.5742C74.6299 42.9798 74.5746 42.9982 73.2472 42.9982H71.8646L71.8277 48.3813L71.7724 53.7828H70.9428H70.1132L70.0579 48.3813L70.0211 42.9982H65.6888H61.3565L61.3196 48.3813C61.2643 53.3588 61.2459 53.7828 60.9509 53.8381C60.6375 53.8934 60.6191 53.5984 60.6191 49.6902C60.6191 47.3858 60.5638 44.9339 60.5085 44.2518C60.3794 43.0535 60.3794 43.0166 59.8264 42.9613C59.513 42.9244 59.1627 42.7401 59.0152 42.5004C58.7571 42.1133 58.7756 42.0949 59.5498 41.9289C60.7297 41.6708 70.7032 41.6708 72.8416 41.9289ZM38.8287 46.2612L38.884 47.9757H36.1002H33.335V46.2243V44.4546L36.0634 44.5099L38.7733 44.5652L38.8287 46.2612ZM68.3619 46.2243V47.9757H65.6888H63.0157V46.2243V44.473H65.6888H68.3619V46.2243ZM28.3206 49.303L28.3574 53.875H27.7122H27.067V49.3952C27.067 46.9249 27.1223 44.8417 27.196 44.768C27.2698 44.6942 27.5463 44.6574 27.8044 44.6942L28.2653 44.7495L28.3206 49.303ZM74.5746 47.0908C74.5008 48.3075 74.4455 50.3538 74.4455 51.6074V53.875H73.9846H73.5238V49.3583V44.8417H74.1137H74.6852L74.5746 47.0908ZM38.8655 51.6627V53.8934L36.1555 53.8381L33.4271 53.7828L33.3718 51.6074L33.3165 49.4505H36.1002H38.8655V51.6627ZM68.3619 51.6627V53.875H65.6888H63.0157V51.6627V49.4505H65.6888H68.3619V51.6627ZM43.4559 55.8291C43.7693 55.9028 44.0274 55.995 44.0274 56.0688C44.009 56.6034 43.6218 56.6218 35.3075 56.6771L26.8826 56.7324V56.3269C26.8826 56.0688 27.0117 55.9028 27.3066 55.8475C27.9703 55.7185 42.8107 55.7001 43.4559 55.8291ZM73.7818 55.8291C74.4824 55.9397 74.6299 56.0135 74.6299 56.3453V56.7324L67.4954 56.6956C63.5503 56.6587 59.9923 56.6403 59.5867 56.6403C58.9784 56.6403 58.794 56.5665 58.7203 56.2715C58.665 56.0872 58.7203 55.8844 58.8493 55.8291C59.1627 55.7001 72.8048 55.7001 73.7818 55.8291ZM54.6829 59.5899L58.3147 61.9865H57.3192C56.379 61.9865 56.1946 61.8943 53.5953 60.2351L50.8669 58.4838L48.1016 60.2351C45.4469 61.9312 45.3179 61.9865 44.2855 61.9865C43.2162 61.9865 43.2162 61.9865 43.6587 61.6546C44.6542 60.9541 50.7378 57.1933 50.8853 57.1933C50.959 57.1933 52.6735 58.2626 54.6829 59.5899ZM29.6479 58.6681V59.2212H28.2653C26.9195 59.2212 26.8826 59.2027 26.8826 58.7787C26.8826 58.3732 26.9748 58.3179 27.6753 58.2441C29.6663 58.0782 29.6479 58.0598 29.6479 58.6681ZM42.5157 58.2257C43.3637 58.3363 43.4743 58.3916 43.4743 58.7787V59.2212H36.6533H29.8323V58.6681V58.1151H35.6947C38.9024 58.1151 41.9811 58.1704 42.5157 58.2257ZM73.2104 58.2257C74.5377 58.3547 74.6299 58.3732 74.6299 58.7787V59.2027L66.8871 59.2212H59.1443V58.7787C59.1443 58.4469 59.2549 58.2994 59.5683 58.2441C60.232 58.1151 71.6987 58.0966 73.2104 58.2257ZM52.2126 61.9496C51.5674 61.9865 50.4428 61.9865 49.7054 61.9496L48.3597 61.8943L49.6317 61.1384L50.9037 60.3826L52.1389 61.1384L53.374 61.8943L52.2126 61.9496ZM41.8152 61.0278C41.8152 61.1016 41.4649 61.3597 41.0409 61.5809C40.2482 62.0049 40.2297 62.0049 33.0584 61.9496L25.8687 61.8943L26.5139 61.5256C26.8642 61.3228 27.6569 61.1016 28.2653 61.0463C29.9613 60.8804 41.8152 60.8619 41.8152 61.0278ZM75.1829 61.4703L76.0125 61.9865H68.4541H60.8956L60.1951 61.5256C59.8264 61.2675 59.513 61.0094 59.513 60.9541C59.513 60.8988 62.8498 60.8804 66.9424 60.9172L74.3533 60.9725L75.1829 61.4703ZM41.9995 69.6371V75.4442H41.2437H40.5063L40.5431 70.227L40.5616 65.0283L36.1187 64.973L31.6758 64.9361V70.1901V75.4442H30.8462H30.0166V70.1901V64.9361H27.6569C25.2972 64.9361 25.2788 64.9361 25.076 64.4752C24.9469 64.2171 24.8548 63.959 24.8548 63.9222C24.8548 63.8669 28.7077 63.83 33.4271 63.83H41.9995V69.6371ZM57.6695 64.383V64.9361H50.6641H43.6587V64.383V63.83H50.6641H57.6695V64.383ZM76.4365 64.383L76.2522 64.9361L67.8273 64.8992L59.4208 64.8439L59.3655 64.3277L59.3102 63.83H67.9747H76.6393L76.4365 64.383ZM38.8655 67.7014V68.9919H36.1002H33.335V67.7014V66.4109H36.1002H38.8655V67.7014ZM44.6726 67.2405C44.6726 67.7014 44.5989 67.7936 44.1749 67.8489C43.6956 67.9042 43.6587 67.8673 43.6587 67.2405C43.6587 66.6137 43.6956 66.5768 44.1749 66.6321C44.5989 66.6875 44.6726 66.7796 44.6726 67.2405ZM58.2225 67.1483C58.2225 67.6461 58.1672 67.7014 57.6695 67.7014C57.1717 67.7014 57.1164 67.6461 57.1164 67.1483C57.1164 66.6506 57.1717 66.5953 57.6695 66.5953C58.1672 66.5953 58.2225 66.6506 58.2225 67.1483ZM75.5516 67.2405C75.5516 67.8304 75.5148 67.8857 74.9986 67.8857C74.4824 67.8857 74.4455 67.8304 74.4455 67.2405C74.4455 66.6506 74.4824 66.5953 74.9986 66.5953C75.5148 66.5953 75.5516 66.6506 75.5516 67.2405ZM28.3574 71.1303V75.4626L27.7675 75.4073L27.1592 75.352L27.1038 73.1398C27.067 71.9231 27.1038 69.9874 27.1592 68.8444L27.2882 66.7796H27.8228H28.3574V71.1303ZM68.3619 67.6092V68.2544H66.4262H64.4905V67.6092V66.964H66.4262H68.3619V67.6092ZM47.1614 74.6146V80.7904H46.7005H46.2396V77.4721C46.2396 74.6883 46.2027 74.1168 45.9631 74.0431C45.7419 73.9509 45.6866 73.4716 45.6866 71.2963V68.6416L46.2949 68.5678C46.6083 68.531 46.9402 68.4757 47.0323 68.4757C47.1061 68.4572 47.1614 71.2225 47.1614 74.6146ZM52.5076 70.4667V72.4945H50.8484H49.1893V70.4667V68.4388H50.8484H52.5076V70.4667ZM55.7338 74.1537C55.5125 74.3934 55.4572 75.057 55.4572 77.7117V80.9748H54.9963H54.5355V74.8174V68.6416L55.236 68.5863L55.9181 68.531L55.9734 71.1856C56.0103 73.361 55.9734 73.8956 55.7338 74.1537ZM62.4626 70.8538C62.4626 73.2135 62.4442 73.2873 62.0017 73.6375C61.4671 74.0615 61.4118 74.633 61.8543 75.1124C62.1308 75.4073 62.5179 75.4442 66.5184 75.4442C71.4037 75.4442 71.5696 75.4073 71.459 74.3381C71.4221 73.785 71.3115 73.6744 70.8138 73.5085L70.2054 73.3426V70.8907V68.4204L71.7355 68.4757L73.2472 68.531L73.3025 72.4392L73.3394 76.3659H67.477C64.2324 76.3659 61.08 76.3106 60.4532 76.2553L59.3286 76.1263V72.2918V68.4388H60.8956H62.4626V70.8538ZM44.5804 71.8493V73.9694H44.1196H43.6587V71.8493V69.7293H44.1196H44.5804V71.8493ZM58.0382 71.8493V73.9694H57.5773H57.1164V71.8493V69.7293H57.5773H58.0382V71.8493ZM68.3619 71.665V73.6191L66.3893 73.5638L64.3983 73.5085L64.343 71.6097L64.2877 69.7293H66.334H68.3619V71.665ZM75.5516 71.8493V73.9694H75.0907H74.6299V71.8493V69.7293H75.0907H75.5516V71.8493ZM38.8655 72.8633V75.4442H36.1002H33.335V72.8633V70.2823H36.1002H38.8655V72.8633ZM52.6551 74.3749L52.7104 74.8911H50.959H49.1893V74.3381V73.7666L50.9037 73.8219L52.5998 73.8772L52.6551 74.3749ZM44.7648 78.0251C44.7648 80.0346 44.7095 80.348 44.2117 81.62C43.6771 82.9658 43.6587 83.1132 43.6587 85.9523V88.9019H43.1978H42.7369V85.6757C42.7369 82.5971 42.7554 82.3758 43.2162 81.3066C43.6402 80.2742 43.6956 79.9424 43.6771 77.9882L43.6402 75.8129H44.2117H44.7648V78.0251ZM58.0382 77.9145C58.0382 79.8318 58.0935 80.1267 58.5912 81.3066C59.1258 82.5971 59.1443 82.6708 59.1443 85.7495V88.9019H58.6834H58.2225V86.0813C58.2225 83.2792 58.2225 83.2607 57.5773 81.7306C56.9689 80.2742 56.932 80.1083 56.932 78.0067V75.8129H57.4851H58.0382V77.9145ZM75.5516 78.3938V80.9748H75.0907H74.6299V78.3938V75.8129H75.0907H75.5516V78.3938ZM41.9995 77.7302C41.9995 78.0436 41.8705 78.2095 41.5571 78.2832C41.3174 78.3385 37.9069 78.3385 33.9618 78.2832L26.7904 78.1726L26.7351 77.7302L26.6798 77.2877H34.3305H41.9995V77.7302ZM60.5822 79.4446C60.6375 81.0116 60.4163 81.196 59.8817 79.9977C59.513 79.205 59.4024 78.3754 59.642 78.1357C59.7158 78.062 59.937 78.0251 60.1582 78.062C60.49 78.1173 60.5269 78.2648 60.5822 79.4446ZM62.647 79.4999C62.647 80.9563 62.647 80.9748 62.1861 80.9748C61.7252 80.9748 61.7252 80.9563 61.7252 79.4999C61.7252 78.0436 61.7252 78.0251 62.1861 78.0251C62.647 78.0251 62.647 78.0436 62.647 79.4999ZM64.767 79.4999C64.767 80.8457 64.7486 80.8826 64.3061 80.8826C63.8637 80.8826 63.8453 80.8273 63.79 79.7027C63.7162 78.2648 63.8084 77.9882 64.343 78.062C64.7486 78.1173 64.767 78.2095 64.767 79.4999ZM66.8871 79.4999C66.8871 80.9563 66.8871 80.9748 66.4262 80.9748C65.9653 80.9748 65.9653 80.9563 65.9653 79.4999C65.9653 78.0436 65.9653 78.0251 66.4262 78.0251C66.8871 78.0251 66.8871 78.0436 66.8871 79.4999ZM68.9149 79.4999C68.9149 80.9563 68.9149 80.9748 68.4541 80.9748C67.9932 80.9748 67.9932 80.9563 67.9932 79.4999C67.9932 78.0436 67.9932 78.0251 68.4541 78.0251C68.9149 78.0251 68.9149 78.0436 68.9149 79.4999ZM71.035 79.4999C71.035 80.7904 71.0166 80.8826 70.6294 80.9379C70.2238 80.9932 70.2054 80.9563 70.2054 79.4999C70.2054 78.0436 70.2238 78.0067 70.6294 78.062C71.0166 78.1173 71.035 78.2095 71.035 79.4999ZM73.155 79.4999C73.155 80.9563 73.155 80.9748 72.6942 80.9748C72.2333 80.9748 72.2333 80.9563 72.2333 79.4999C72.2333 78.0436 72.2333 78.0251 72.6942 78.0251C73.155 78.0251 73.155 78.0436 73.155 79.4999ZM41.9995 79.7765C41.9995 79.8502 41.8705 80.1267 41.723 80.4401L41.428 80.9748L34.1092 80.9379L26.7904 80.8826L26.7351 80.2742L26.6798 79.6843H34.3305C38.5521 79.6843 41.9995 79.7212 41.9995 79.7765ZM56.3606 82.9842C56.4712 83.187 56.5633 83.4266 56.5633 83.5372C56.5633 83.6847 54.7936 83.74 50.9406 83.74C45.6497 83.74 45.3179 83.7216 45.3179 83.4082C45.3179 82.7077 45.5944 82.6708 50.9406 82.6524C55.9734 82.6155 56.1762 82.6339 56.3606 82.9842ZM40.8934 83.3713V83.9244H33.2428H25.5922V83.3713V82.8183H33.2428H40.8934V83.3713ZM76.289 83.3713V83.9244H68.5462H60.8034V83.3713V82.8183H68.5462H76.289V83.3713ZM56.7477 85.6757V86.1366H50.9406H45.1335V85.6757V85.2149H50.9406H56.7477V85.6757ZM28.4312 86.6159C28.4865 87.0952 28.5418 87.7958 28.5418 88.1829V88.9019H27.7122H26.8826V88.1829C26.8826 87.7958 26.9379 87.0952 26.9932 86.6159C27.1038 85.8048 27.1407 85.7679 27.7122 85.7679C28.2837 85.7679 28.3206 85.8048 28.4312 86.6159ZM33.1137 86.2657C33.0584 86.7081 32.9663 86.7818 32.5054 86.7818C32.0445 86.7818 31.9523 86.7081 31.897 86.2657C31.8417 85.8048 31.8786 85.7679 32.5054 85.7679C33.1322 85.7679 33.169 85.8048 33.1137 86.2657ZM35.5103 86.2657C35.5656 86.6344 35.4919 86.6897 35.0126 86.6897C34.5148 86.6897 34.4411 86.6159 34.4411 86.2104C34.4411 85.8048 34.5148 85.7495 34.9573 85.8048C35.3075 85.8417 35.4734 85.9707 35.5103 86.2657ZM37.9438 86.2288C37.9438 86.6159 37.8516 86.6897 37.3907 86.6897C36.9298 86.6897 36.8376 86.6159 36.8376 86.2288C36.8376 85.8417 36.9298 85.7679 37.3907 85.7679C37.8516 85.7679 37.9438 85.8417 37.9438 86.2288ZM65.0067 86.2657C65.062 86.6344 64.9882 86.6897 64.4167 86.6897C63.9006 86.6897 63.7531 86.6159 63.7531 86.3578C63.7531 85.8785 63.9374 85.7495 64.4905 85.8048C64.8039 85.8417 64.9698 85.9891 65.0067 86.2657ZM67.4033 86.2657C67.3664 86.6712 67.2558 86.7818 66.8871 86.7818C66.5184 86.7818 66.4078 86.6712 66.3709 86.2657C66.3156 85.8232 66.3709 85.7679 66.8871 85.7679C67.4033 85.7679 67.4586 85.8232 67.4033 86.2657ZM69.8367 86.2288C69.8367 86.6159 69.7445 86.6897 69.2836 86.6897C68.8228 86.6897 68.7306 86.6159 68.7306 86.2288C68.7306 85.8417 68.8228 85.7679 69.2836 85.7679C69.7445 85.7679 69.8367 85.8417 69.8367 86.2288ZM74.7036 86.6159C74.7589 87.0952 74.8142 87.7958 74.8142 88.1829C74.8142 88.9019 74.8142 88.9019 74.0768 88.9019H73.3394V87.3349V85.7679H73.9662C74.5561 85.7679 74.593 85.8048 74.7036 86.6159ZM56.5633 88.2567V88.9019H50.9406H45.3179V88.3673C45.3179 87.8511 45.3547 87.8142 46.2027 87.7405C46.6821 87.7036 49.2077 87.6667 51.8255 87.6483L56.5633 87.6114V88.2567ZM33.1506 88.3488C33.1506 88.865 33.0953 88.9019 32.5054 88.9019C31.9154 88.9019 31.8601 88.865 31.8601 88.3488C31.8601 87.8327 31.9154 87.7958 32.5054 87.7958C33.0953 87.7958 33.1506 87.8327 33.1506 88.3488ZM35.455 88.3488C35.455 88.7175 35.3444 88.8282 34.9573 88.865C34.4964 88.9203 34.4411 88.865 34.4411 88.3488C34.4411 87.8327 34.4964 87.7774 34.9573 87.8327C35.3444 87.8695 35.455 87.9801 35.455 88.3488ZM37.9438 88.3488C37.9438 88.8466 37.8885 88.9019 37.3907 88.9019C36.893 88.9019 36.8376 88.8466 36.8376 88.3488C36.8376 87.8511 36.893 87.7958 37.3907 87.7958C37.8885 87.7958 37.9438 87.8511 37.9438 88.3488ZM65.0067 88.2935C64.9514 88.736 64.8592 88.8097 64.3983 88.8097C63.9374 88.8097 63.8453 88.736 63.79 88.2935C63.7346 87.8327 63.7715 87.7958 64.3983 87.7958C65.0251 87.7958 65.062 87.8327 65.0067 88.2935ZM67.4401 88.3488C67.4401 88.8466 67.3848 88.9019 66.8871 88.9019C66.3893 88.9019 66.334 88.8466 66.334 88.3488C66.334 87.8511 66.3893 87.7958 66.8871 87.7958C67.3848 87.7958 67.4401 87.8511 67.4401 88.3488ZM69.8367 88.3488C69.8367 88.8466 69.7814 88.9019 69.2836 88.9019C68.7859 88.9019 68.7306 88.8466 68.7306 88.3488C68.7306 87.8511 68.7859 87.7958 69.2836 87.7958C69.7814 87.7958 69.8367 87.8511 69.8367 88.3488Z" fill="#A1987B"/>
<path d="M47.5854 21.1894C47.4011 21.2447 47.3458 22.2033 47.3458 25.0423V28.8031H46.3318C45.5575 28.8031 45.2257 28.8953 44.9492 29.1718C44.7464 29.3746 44.5805 29.6143 44.5805 29.7064C44.5805 30.112 44.8386 30.4991 45.2073 30.6466C45.4285 30.7204 45.7235 31.0338 45.8709 31.3103C46.0184 31.6053 46.3318 32.1583 46.5899 32.527L47.0324 33.2276H50.8485C55.0701 33.2276 54.8858 33.2829 55.5494 31.9371C55.7154 31.5868 56.1394 31.0338 56.4896 30.7019C57.6326 29.6143 57.1902 28.8031 55.4388 28.8031H54.3511V25.1529C54.3511 22.5536 54.2958 21.4474 54.1299 21.2815C53.9824 21.134 53.0054 21.0603 50.8485 21.0787C49.1708 21.0787 47.696 21.134 47.5854 21.1894ZM52.5998 23.5491V24.2865L50.9591 24.3418C50.0557 24.3786 49.263 24.3233 49.1893 24.2496C49.1155 24.1759 49.0971 23.7887 49.134 23.4016L49.2262 22.701L50.9222 22.7563L52.5998 22.8117V23.5491ZM52.5998 27.2361V28.7109L50.9038 28.7662L49.1893 28.8215V27.2361V25.6507L50.9038 25.706L52.5998 25.7613V27.2361ZM54.7198 30.7941C54.7198 30.8678 54.5908 31.1259 54.4249 31.3472C54.1484 31.7343 54.0562 31.7527 50.7747 31.7527H47.4011L47.1983 31.2919C47.0692 31.0338 46.9771 30.7757 46.9771 30.7388C46.9771 30.6835 48.7284 30.6466 50.8485 30.6466C52.9869 30.6466 54.7198 30.7019 54.7198 30.7941Z" fill="#A1987B"/>
<path d="M44.5252 26.1484C44.4515 26.2221 44.3962 26.5171 44.3962 26.7936C44.3962 27.1808 44.5068 27.3098 44.8755 27.402C45.6866 27.6048 46.0922 27.3836 46.0185 26.7199C45.9632 26.1853 45.8894 26.13 45.3179 26.0747C44.9492 26.0378 44.599 26.0747 44.5252 26.1484Z" fill="#A1987B"/>
<path d="M56.0104 26.683C56.0104 27.2914 56.0473 27.3283 56.6557 27.3283C57.264 27.3283 57.3009 27.2914 57.3009 26.683C57.3009 26.0747 57.264 26.0378 56.6557 26.0378C56.0473 26.0378 56.0104 26.0747 56.0104 26.683Z" fill="#A1987B"/>
<path d="M47.1061 43.8463C47.0508 43.9016 47.0692 44.1597 47.1799 44.4177C47.272 44.6574 47.3458 46.2797 47.3458 48.0126C47.3458 51.1466 47.3458 51.1466 46.8849 51.5153C46.3503 51.9393 46.295 52.5846 46.7558 53.0086C47.0508 53.2851 47.6223 53.322 50.9775 53.322C54.4986 53.322 54.8673 53.2851 55.1439 52.9901C55.6416 52.4555 55.531 51.8656 54.8858 51.5153L54.3327 51.2019L54.4065 47.8836C54.4433 46.0585 54.5355 44.3809 54.6277 44.1412L54.7567 43.7356H50.996C48.9128 43.7356 47.1799 43.7909 47.1061 43.8463ZM52.6551 46.4456L52.5998 47.3305L50.9038 47.3858L49.1893 47.4411V46.5009V45.5792H50.9591H52.7104L52.6551 46.4456ZM52.5076 50.0958V51.4784H50.8485H49.1893V50.0958V48.7132H50.8485H52.5076V50.0958Z" fill="#A1987B"/>
<path d="M44.7649 48.8053C44.7649 49.4137 44.8018 49.4505 45.4102 49.4505C46.0185 49.4505 46.0554 49.4137 46.0554 48.8053C46.0554 48.1969 46.0185 48.1601 45.4102 48.1601C44.8018 48.1601 44.7649 48.1969 44.7649 48.8053Z" fill="#A1987B"/>
<path d="M56.0104 48.8053C56.0104 49.4137 56.0473 49.4505 56.6557 49.4505C57.264 49.4505 57.3009 49.4137 57.3009 48.8053C57.3009 48.1969 57.264 48.1601 56.6557 48.1601C56.0473 48.1601 56.0104 48.1969 56.0104 48.8053Z" fill="#A1987B"/>
<path d="M20.6147 86.8741C20.6147 87.3903 20.67 87.4271 21.2599 87.4271C21.8499 87.4271 21.9052 87.3903 21.9052 86.8741C21.9052 86.3579 21.8499 86.321 21.2599 86.321C20.67 86.321 20.6147 86.3579 20.6147 86.8741Z" fill="#A1987B"/>
<path d="M22.827 86.8741C22.827 87.3718 22.8823 87.4271 23.3801 87.4271C23.8778 87.4271 23.9331 87.3718 23.9331 86.8741C23.9331 86.3763 23.8778 86.321 23.3801 86.321C22.8823 86.321 22.827 86.3763 22.827 86.8741Z" fill="#A1987B"/>
<path d="M77.9483 86.8741C77.9483 87.3718 78.0036 87.4271 78.5014 87.4271C78.9991 87.4271 79.0544 87.3718 79.0544 86.8741C79.0544 86.3763 78.9991 86.321 78.5014 86.321C78.0036 86.321 77.9483 86.3763 77.9483 86.8741Z" fill="#A1987B"/>
<path d="M79.7919 86.8741C79.7919 87.3903 79.8472 87.4271 80.4371 87.4271C81.027 87.4271 81.0823 87.3903 81.0823 86.8741C81.0823 86.3579 81.027 86.321 80.4371 86.321C79.8472 86.321 79.7919 86.3579 79.7919 86.8741Z" fill="#A1987B"/>
</svg>
